<svg width="2000" height="2000" viewBox="0 0 2000 2000" fill="none" xmlns="http://www.w3.org/2000/svg">
<g clip-path="url(#clip0_32_2)">
<g clip-path="url(#clip1_32_2)">
<path d="M982.145 3203.24C852.137 3213.09 722.227 3216.91 593.032 3194.37L593.278 3189.71C606.06 3191.51 618.792 3194.02 631.648 3194.96C673.219 3197.99 714.839 3200.38 756.435 3203.14C766.483 3203.81 776.531 3205.9 786.529 3205.6C824.357 3204.59 862.16 3202.57 899.963 3201.61C917.72 3201.14 935.525 3202.6 953.282 3202.43C963.28 3202.43 969.856 3199.96 960.966 3187.96C957.715 3183.63 957.69 3176.14 957.813 3170.13C958.527 3130.71 960.448 3091.28 960.522 3051.86C960.645 2994.24 958.823 2936.61 959.217 2878.98C959.611 2824.78 962.64 2770.38 962.887 2716.08C963.034 2680.62 959.759 2645.14 959.045 2609.66C958.478 2582.29 959.562 2554.89 959.759 2527.52C959.759 2522.4 959.168 2517.25 958.848 2512.37C913.041 2514 878.045 2493.18 847.63 2464.08C833.346 2450.43 823.323 2432.44 809.679 2418.01C804.187 2412.17 794.509 2409.11 786.185 2407.34C759.095 2401.55 731.881 2396.55 704.594 2391.96C673.194 2386.67 641.622 2382.36 610.222 2377.18C600.82 2375.39 591.56 2372.92 582.516 2369.79C535.921 2354.86 490.779 2335.81 450.636 2308.2C413.276 2282.38 383.723 2249.06 370.301 2203.09C360.918 2171.06 362.125 2140.34 374.759 2110.4C386.063 2083.67 408.893 2067.14 433.249 2052.97C434.924 2052.01 437.633 2052.97 439.849 2052.97L442.312 2056.82C438.101 2060.14 434.111 2063.76 429.678 2066.67C402.588 2084.83 380.029 2106.26 375.079 2140.58C370.74 2170.84 376.635 2201.68 391.826 2228.2C430.442 2297.65 496.246 2328.97 567.739 2353.11C600.494 2364.17 634.357 2366.37 667.702 2372.67C704.323 2379.6 740.624 2388.24 777.22 2395.29C787.687 2397.31 798.942 2395.29 809.408 2397.26C812.301 2398.02 815 2399.38 817.323 2401.26C819.647 2403.14 821.541 2405.5 822.88 2408.18C844.478 2463.14 888.413 2489.7 942.544 2503.03C947.051 2504.14 956.483 2500.27 957.69 2496.72C960.153 2489.58 957.838 2481.94 947.839 2479.21C899.742 2465.68 866.051 2433.82 847.655 2389.18C839.602 2369.67 828.839 2368.76 813.497 2368.31C779.511 2367.38 745.18 2368.93 711.613 2364.67C676.505 2359.89 641.835 2352.32 607.931 2342.02C573.995 2332.17 538.975 2321.94 508.56 2304.6C461.768 2277.89 421.625 2241.3 405.445 2187.42C399.042 2166.13 399.46 2141.72 401.8 2119.25C403.647 2101.53 419.212 2090.1 435.416 2082.44C438.298 2081.08 442.214 2081.9 447.041 2085.08C444.173 2087.75 441.119 2090.22 437.904 2092.47C413.547 2107.03 408.351 2129.42 410.395 2155.76C413.35 2194.52 433.052 2224.18 458.172 2251.85C486.937 2283.48 522.721 2303.37 562.937 2315.07C608.917 2328.45 655.339 2340.52 701.91 2351.68C717.573 2355.43 734.319 2354.86 750.598 2355.77C774.511 2357.08 798.474 2358.24 822.436 2358.75C829.184 2358.75 836.006 2356.29 845.709 2354.51C863.219 2407.24 893.265 2451.91 954.71 2471.08C955.277 2461.54 956.212 2455.01 955.966 2448.56C953.503 2382.77 953.947 2316.67 946.977 2251.45C941.51 2200.08 916.513 2155.37 880.237 2116.91C851.053 2086.01 820.047 2057.78 784.485 2034.69C762.321 2020.4 739.196 2007.89 716.464 1994.63C698.314 1984.04 680.459 1972.8 661.767 1963.22C641.794 1952.97 621.009 1944.3 600.519 1935.06C590.939 1930.72 581.58 1925.57 571.581 1922.74C535.921 1912.34 500.039 1902.76 460.093 1891.72C460.093 1917.44 460.093 1939.24 460.093 1961.07C460.306 2003.89 460.627 2046.71 461.054 2089.53C461.054 2095.28 462.851 2101.14 462.112 2106.78C461.3 2113.01 458.542 2119.1 456.621 2125.11L450.981 2123.95V1889.01C422.118 1886.54 397.761 1876.25 375.276 1860.85C358.037 1849.09 349.959 1823.13 358.283 1803.93C384.487 1743.37 395.224 1680.23 393.254 1614.22C390.988 1536.86 390.988 1459.45 389.24 1382.08C386.974 1283.14 383.625 1184.22 381.408 1085.27C380.891 1061.32 387.812 1039.52 409.262 1025.2C420.418 1017.81 420.566 1009.34 415.567 997.315C409.607 983.025 406.11 967.552 402.76 952.326C398.989 935.772 396.168 919.016 394.313 902.139C389.88 857.791 401.431 815.512 414.828 773.727L410.789 774.416C408.326 765.399 403.647 756.382 403.795 747.315C404.755 688.184 407.218 629.053 408.277 570.07C409.09 524.145 450.291 480.807 487.553 467.601C506.934 460.728 526.956 455.578 546.511 449.172C550.456 447.844 553.895 445.332 556.362 441.978C594.879 386.297 634.307 331.108 671.15 274.441C717.129 203.533 760.548 130.975 805.837 59.5989C818.397 39.8886 833.42 21.6073 847.704 3.05504C849.453 0.812996 856.373 -0.887015 857.309 0.221688C865.584 9.85508 874.055 1.77387 882.281 1.7246C895.604 1.7246 909.1 -0.246431 922.227 1.18256C962.353 5.5681 1002.37 10.6846 1042.29 16.5319C1059.77 18.9957 1076.89 24.2189 1094.2 27.9639C1173.48 45.2104 1249.85 70.7598 1320.65 110.525C1368.2 137.233 1416.25 163.718 1455.39 203.114C1464.05 211.836 1468.68 220.361 1468.83 233.197C1469.23 266.286 1471.3 299.374 1472.55 332.463C1472.55 335.05 1472.03 339.657 1470.83 340.002C1455.46 344.314 1459.52 357.47 1459.5 367.104C1459.5 389.278 1460.98 411.304 1462.68 433.355C1463.34 439.963 1465.36 446.363 1468.61 452.154C1482.28 476.989 1481.74 504.189 1480.92 530.847C1479.57 570.44 1474.99 609.91 1472.99 649.478C1469.97 709.028 1467.67 768.602 1465.61 828.201C1463.64 884.277 1461.49 940.377 1461 996.477C1460.53 1047.75 1461.52 1099.07 1463.17 1150.32C1463.88 1173.11 1467.77 1195.8 1470.19 1218.51C1470.42 1220.89 1470.47 1223.28 1470.36 1225.66C1469.32 1254.19 1469.52 1253.72 1495.36 1264.91C1523.53 1277.08 1553.03 1287.45 1578.74 1303.71C1611.01 1324.53 1641.61 1347.82 1670.26 1373.39C1713.28 1411.03 1752.56 1452.52 1783.55 1501.21C1803.13 1532.65 1816.94 1567.34 1824.3 1603.65C1842.06 1686.58 1849.7 1770.7 1852.8 1855.28C1854.67 1906.57 1855.93 1957.94 1856.12 2009.29C1856.32 2062.48 1855.16 2115.7 1854.13 2168.92C1853.27 2213.09 1852.7 2257.32 1850.24 2301.44C1847.95 2342.2 1843.14 2382.75 1839.84 2423.48C1838.88 2435.4 1839.6 2447.42 1838.86 2459.35C1837.01 2488.5 1834.7 2517.62 1832.78 2546.76C1832.28 2554.16 1815.54 2571.06 1807.78 2571.77C1781.99 2574.06 1756.06 2575.49 1730.52 2579.16C1691.56 2584.58 1651.89 2588.11 1614.21 2598.5C1542.22 2618.39 1469.97 2638.64 1405.37 2678.48C1351.36 2711.79 1299.47 2748.23 1252.9 2791.15C1207.04 2833.3 1161.14 2875.68 1124.32 2926.65C1101.1 2958.68 1075.43 2989.26 1054.6 3022.74C1035.41 3053.64 1020.49 3087.32 1005.07 3120.41C996.602 3138.56 990.568 3157.91 984.337 3177.07C982.096 3183.92 982.49 3191.66 981.677 3198.98C981.727 3200.28 981.948 3201.76 982.145 3203.24ZM898.929 231.916C922.744 232.236 946.559 232.951 970.349 232.704C981.825 232.704 993.252 229.896 1004.83 229.625C1045.19 228.688 1085.56 227.604 1125.9 228.023C1145.6 228.245 1158.75 219.769 1168.45 204.322C1174.46 194.653 1179.78 184.576 1184.39 174.165C1194.46 151.695 1201.62 128.708 1194.73 103.503C1187.59 77.7323 1179.68 53.0206 1147.05 50.2365C1146.58 50.2365 1146.16 49.793 1145.72 49.6945C1115.97 42.3031 1086.61 33.2364 1056.4 28.3088C1010.57 20.9175 964.266 16.4087 918.163 10.5449C885.285 6.38115 877.897 13.0334 880.779 46.3437C884.424 86.9222 888.783 127.402 892.846 167.931C894.997 189.366 897.164 210.826 899.348 232.31C895.949 235.464 891.541 238.051 889.3 241.87C880.705 256.652 873.489 272.445 864.451 287.031C843.838 320.415 822.461 353.307 801.38 386.395L767.936 438.972C786.111 442.52 790.1 441.436 801.454 422.49C834.11 367.892 866.125 312.933 897.501 257.613C901.343 250.936 898.634 240.588 898.929 231.941V231.916ZM1445.66 469.991C1441.57 467.528 1437.48 463.019 1433.34 463.043C1394.12 463.438 1354.89 464.259 1315.65 465.507C1272.75 467.01 1229.87 469.203 1187 471.223C1183.88 471.655 1180.8 472.331 1177.79 473.244C1194.11 497.118 1205.34 502.636 1232.14 501.75C1247.95 501.232 1263.96 502.809 1279.57 500.961C1292.43 499.458 1304.86 494.334 1317.47 490.81L1316.41 486.819C1314.07 486.819 1311.76 486.449 1309.42 486.499C1277.4 487.262 1245.39 488.199 1213.37 488.667C1210 488.667 1206.6 486.203 1203.23 484.774L1204.26 480.857C1209.83 480.191 1215.42 479.107 1221.01 478.91C1256.99 477.703 1292.97 476.742 1328.95 475.56C1340.87 475.165 1352.81 474.451 1364.73 473.687C1376.65 472.923 1388.62 471.642 1400.59 471.051C1415.69 470.312 1430.78 470.016 1445.88 469.548C1441.79 472.012 1437.56 476.939 1433.57 476.594C1402.51 474.87 1374.63 487.829 1345.6 495.048C1315.53 502.439 1285.75 511.309 1255.93 519.686C1253.34 520.425 1249.4 522.692 1249.2 524.613C1248.12 534.863 1242.33 532.153 1237.09 529.27C1205.37 511.826 1173.8 494.087 1142.08 476.619C1135.23 472.874 1127.99 469.868 1121.14 466.616C1118.68 508.377 1115.7 548.611 1114.49 588.894C1113.14 633.562 1113.36 678.304 1113.24 723.022C1113.24 727.949 1113.73 734.996 1116.86 737.608C1131.86 750.148 1147.69 761.777 1163.65 773.209C1174.78 781.216 1187.34 787.401 1197.81 796.122C1240.93 832.118 1248.42 897.138 1214.26 940.968C1206.08 951.464 1197.96 964.448 1182.24 964.941C1164.12 965.532 1145.92 965.335 1127.82 964.645C1117.2 964.251 1114.96 959.521 1120.58 949.419C1135.35 923.106 1139.91 895.093 1128.56 866.316C1125.33 858.136 1118.58 851.336 1112.1 841.949C1089.15 875.85 1068.91 905.884 1072.4 945.428C1073.27 955.036 1069.13 965.434 1057.09 965.754C1028.76 966.509 1000.43 966.583 972.072 965.976C949.292 965.458 946.903 966.592 942.52 988.667C942.137 992.007 942.137 995.379 942.52 998.719C943.529 1024.61 945.278 1050.46 945.426 1076.4C945.426 1097.54 943.332 1118.68 942.963 1139.84C942.47 1164.61 942.963 1189.42 942.963 1214.6C953.183 1213.76 962.123 1212.4 971.038 1212.4C1002.24 1212.4 1033.52 1214.3 1064.62 1213.09C1109.83 1211.13 1155.06 1216.28 1198.67 1228.37C1206.39 1230.35 1213.56 1234.04 1219.67 1239.15C1225.78 1244.27 1230.67 1250.68 1233.99 1257.93C1228.17 1256.75 1223.64 1253.13 1218.52 1251.73C1173.08 1239.41 1126.46 1237.29 1079.82 1238.32C1033.94 1239.33 988.105 1242.63 941.584 1244.97V1268.85C954.316 1267.32 965.645 1264.91 977.023 1264.76C1018.18 1264.24 1059.35 1263.82 1100.5 1264.76C1130.06 1265.37 1159.61 1267.22 1188.92 1270.13C1219.18 1273.21 1242.73 1289.2 1257.38 1315.66C1261 1322.19 1258.14 1332.91 1256.27 1341.46C1255.66 1344.19 1248.74 1347.25 1244.7 1347.22C1219.85 1347.07 1194.98 1345.6 1170.1 1345.5C1094.94 1345.23 1019.87 1345.5 942.988 1345.5V1361.24C942.988 1395.73 942.618 1430.23 942.988 1464.87C943.579 1513.85 944.662 1562.83 945.697 1611.78C945.918 1622.35 947.199 1632.92 947.002 1643.49C947.002 1647.41 943.997 1651.28 942.372 1655.19C940.451 1651.1 936.437 1646.72 937.003 1643.02C939.22 1628.24 932.841 1625.38 919.296 1625.78C878.168 1627.03 836.967 1627.01 795.814 1627.4C760.375 1627.75 724.961 1628.14 689.522 1628.27C659.969 1628.27 630.416 1628.81 600.863 1627.45C597.194 1626.91 593.699 1625.53 590.649 1623.42C587.599 1621.31 585.077 1618.53 583.279 1615.28C580.275 1608.04 574.414 1599.98 582.467 1589.61C595.371 1572.93 609.852 1561.32 630.958 1557.36C660.511 1551.79 689.768 1540.38 719.371 1539.54C783.402 1537.75 847.803 1541.02 912.006 1542.33C918.459 1542.48 924.862 1543.39 935.944 1544.35C931.019 1534.49 929.172 1524.12 924.246 1522.37C913.287 1518.5 900.801 1518.36 888.906 1517.81C852.112 1516.11 815.294 1514.29 778.476 1513.75C745.057 1513.26 711.219 1507.71 678.415 1519.64C674.68 1520.54 670.801 1520.67 667.013 1520.03C645.365 1518.31 625.466 1522.5 607.907 1536.17C605.715 1537.87 602.44 1538.19 597.465 1539.89C606.158 1517.72 625.491 1512.3 641.228 1504.04C652.138 1498.33 666.274 1497.41 679.08 1496.9C742.767 1494.43 806.502 1492.19 870.238 1490.86C890.137 1490.44 910.061 1493.13 930.748 1494.43V1347.49H852.605C853.565 1325.32 855.068 1305.78 855.068 1286.27C854.92 1263.53 840.981 1248.57 824.21 1235.54C788.475 1264.61 779.535 1301.74 787.121 1344.44C789.411 1357.27 784.904 1362.69 772.344 1361.86C746.929 1360.18 721.513 1358.68 696.147 1356.63C683.39 1355.57 665.658 1357.91 659.206 1350.7C651.374 1341.75 652.384 1324.55 650.734 1310.78C645.808 1268.9 666.003 1235.37 688.956 1203.76C703.215 1184.05 721.809 1167.64 737.078 1148.64C744.195 1139.77 752.199 1128.44 752.593 1117.94C754.391 1070.44 753.627 1022.84 753.726 975.264C753.726 955.726 753.726 936.188 753.726 916.651L748.16 916.404C744.047 934.488 740.304 952.671 735.698 970.608C732.374 983.616 729.197 999.508 714.47 1002.64C681.715 1009.49 648.468 1015.55 615.147 1017.86C587.097 1019.81 558.652 1015.84 530.38 1014.88C523.73 1014.64 517.032 1016.06 510.333 1016.36C504.324 1016.63 498.019 1017.42 492.355 1016.21C472.006 1012.35 453.154 1002.84 437.953 988.766C433.225 984.306 426.846 981.621 421.206 978.147L417.956 981.448C420.147 985.858 422.068 990.441 424.58 994.654C436.106 1014.36 436.254 1020.13 418.128 1033.36C399.608 1046.89 394.165 1065.39 393.5 1086.01C392.885 1109.07 393.5 1132.18 394.239 1155.24C396.702 1242.68 399.854 1330.17 401.898 1417.51C403.696 1493.42 405.051 1569.38 405.149 1645.29C405.149 1671.09 405.346 1698.43 397.367 1722.38C380.965 1771.66 415.049 1845.03 468.146 1867.33C536.413 1896 607.537 1896.74 678.834 1900.05C709.52 1901.47 740.402 1899.87 771.039 1901.57C815.565 1904.04 860.042 1907.9 904.47 1911.87C915.897 1912.88 927.078 1916.5 938.382 1918.94C938.062 1920.99 937.717 1923.03 937.397 1925.08L896.984 1927.54L941.165 1961.49L945.155 1959.52C942.199 1865.54 939.244 1771.53 936.289 1677.52C946.608 1677.52 958.084 1678.06 969.487 1677.52C989.336 1676.38 1009.16 1673.23 1028.99 1673.4C1049.23 1673.6 1069.52 1678.87 1089.67 1678.33C1158.63 1676.21 1227.73 1672.24 1296.76 1669.51C1317.18 1668.7 1337.69 1670.15 1358.13 1669.66C1379.07 1669.16 1400.27 1673.89 1419.85 1658.96C1434.98 1647.31 1446.98 1632.07 1454.75 1614.62C1473.02 1576.03 1469.52 1535.77 1465.48 1495.66C1463.02 1471.17 1455.63 1447.2 1452.85 1422.74C1448.17 1381.44 1444.99 1339.95 1441.89 1298.51C1438.25 1249.24 1434.5 1200.13 1432.38 1150.86C1431 1119.72 1431.32 1088.38 1432.68 1057.23C1434.72 1009.49 1438.47 961.812 1441.18 914.088C1442.51 890.411 1442.04 866.611 1444.33 843.033C1448.22 802.922 1454.5 763.034 1458.24 722.923C1463.38 667.488 1467.71 611.979 1471.22 556.396C1473.12 526.324 1470.45 496.137 1463.32 466.862L1445.66 469.991ZM1563.52 2263.26C1562.64 2277.67 1561.65 2290.73 1561.06 2303.79C1558.6 2359 1555.45 2414.21 1554.41 2469.45C1554.58 2482.39 1558.62 2494.98 1566.01 2505.59C1580.79 2526.36 1603.89 2535.48 1628.1 2541.39C1685.28 2555.34 1743.45 2553.44 1801.55 2552.01C1816.92 2551.64 1821.72 2546.49 1822.68 2531.17C1825.39 2488.17 1827.83 2445.18 1830.81 2402.21C1833.88 2358.33 1838.19 2314.5 1840.66 2270.57C1842.58 2234.65 1842.36 2198.63 1843.12 2162.66C1843.51 2144.9 1844.38 2127.16 1844.3 2109.39C1844.1 2058.98 1843.69 2008.56 1843.07 1958.12C1842.73 1926.09 1842.7 1893.86 1841.4 1861.78C1840.19 1831.55 1837.92 1801.35 1835.29 1771.21C1832.38 1737.88 1829.43 1704.49 1824.8 1671.36C1821.14 1647.19 1816.21 1623.23 1810.02 1599.59C1798.72 1554.35 1779.53 1512.57 1749.31 1476.77C1727.15 1450.45 1703.78 1425.03 1680.04 1400.05C1666.37 1385.2 1651.43 1371.58 1635.39 1359.34C1602.29 1335 1569.66 1309.7 1530.3 1295.28C1511.81 1288.46 1494.35 1278.95 1476.42 1270.65L1472.06 1274.07C1478.83 1326.62 1484.96 1379.28 1492.57 1431.75C1499.12 1476.87 1507.6 1521.68 1514.74 1566.74C1517.57 1584.88 1513.11 1601.24 1498.51 1613.56C1472.96 1635.32 1447.34 1656.99 1421.65 1678.58C1420.41 1679.61 1417.58 1678.58 1416.08 1679.49C1410.07 1683.18 1402.34 1685.99 1398.84 1691.44C1385.59 1711.86 1379.14 1734.87 1377.54 1759.19C1376.31 1777.41 1374.97 1795.61 1373.52 1813.79C1372.49 1826.82 1371.18 1839.83 1370.37 1848.63C1384.31 1855.5 1395.34 1859.84 1405.22 1865.87C1428.1 1880.19 1429.67 1925.72 1419.26 1949.64C1393.35 2009.24 1347.64 2047.85 1290.28 2075.29C1254.55 2092.37 1215.93 2097.47 1177.98 2105.4C1153.82 2110.5 1129.49 2114.84 1101.64 2120.18C1105.5 2123.68 1109.54 2126.97 1113.75 2130.04C1137.79 2144.99 1162.54 2158.87 1185.89 2174.78C1243.49 2214.03 1305.13 2245.81 1368.13 2274.96C1391.99 2286 1415.27 2300.14 1442.38 2298.51C1443.79 2320.05 1444.85 2339.66 1446.45 2359.22C1447.14 2368.04 1446.59 2377.92 1450.48 2385.29C1455.19 2394.13 1463.98 2400.81 1473.31 2410.94C1474.14 2407.38 1474.72 2403.78 1475.04 2400.14C1473.41 2369.03 1471.98 2337.88 1469.55 2306.82C1469.32 2303.81 1463.22 2300.24 1459.18 2298.76C1450.85 2295.73 1441.94 2293.83 1430.56 2290.85C1435.29 2287.6 1436 2286.71 1436.77 2286.69C1438.68 2286.61 1440.6 2286.7 1442.51 2286.96C1465.06 2289.42 1484.1 2280.45 1501.29 2267.64C1540.2 2238.62 1559.98 2197.23 1571.73 2151.84C1582.14 2111.49 1590.15 2070.54 1599.53 2029.84C1618.62 1947.08 1638.07 1864.39 1657.01 1781.61C1663.96 1751.23 1669.32 1720.46 1676.56 1690.18C1679.91 1676.31 1686.19 1663.08 1691.69 1649.8C1692.4 1648.07 1696.29 1647.68 1700.5 1645.93C1703.24 1659.83 1706.95 1672.32 1707.89 1685.01C1710.35 1718.49 1711.9 1752.07 1713.55 1785.63C1714.39 1802.87 1714.54 1820.24 1715.33 1837.51C1716.73 1867.75 1719 1897.93 1719.74 1928.16C1721.07 1981.92 1721.07 2035.73 1722.49 2089.46C1724.1 2149.8 1727.42 2210.19 1727.91 2270.43C1727.91 2279.71 1717.52 2295.38 1709.47 2297.21C1686.37 2302.43 1661.74 2303.07 1638.74 2294.32C1614.26 2285.23 1590.57 2274.57 1563.52 2263.26ZM971.481 2539.91V3168.65C974.88 3162.19 976.702 3159.01 978.254 3155.71C996.183 3117.43 1012.22 3078.13 1032.43 3041.05C1061.62 2987.34 1096.47 2937.03 1139.29 2893.05C1181.48 2849.78 1223.54 2806.3 1267.55 2764.93C1290.55 2743.32 1317.72 2726.23 1342.84 2706.91C1379.24 2678.97 1418.35 2654.85 1460.63 2637.92C1533.8 2608.65 1608.4 2583.35 1687.92 2576.33C1701.19 2575.2 1714.2 2570.71 1727.32 2567.78C1705.6 2563.27 1684.64 2561.55 1663.93 2558.27C1646.03 2555.41 1628.57 2548.71 1610.64 2547.33C1562.74 2543.63 1514.59 2540.53 1466.69 2539.64C1387.44 2538.19 1308.11 2538.51 1228.84 2538.34C1147.68 2538.14 1066.54 2538.14 985.396 2538.34C981.505 2538.44 977.761 2539.22 971.481 2539.91ZM971.703 2525.82C1158.87 2517.91 1344.09 2516.8 1532.08 2500.62C1520.23 2485.47 1510.26 2474.35 1502.18 2462.03C1467.99 2409.93 1421.52 2369.62 1374.93 2329.61C1347 2305.63 1317.87 2282.79 1287.87 2261.48C1244.3 2230.46 1199.7 2200.9 1155.13 2171.36C1131.66 2155.79 1107.3 2141.55 1083.12 2126.59C1081.71 2132.01 1080.48 2137.55 1078.81 2142.97C1061.81 2197.87 1025.86 2233.05 969.585 2245.74C958.995 2248.2 959.045 2254.26 959.316 2261.19C959.98 2278.88 961.778 2296.52 962.542 2314.21C964.413 2357.23 965.842 2400.27 967.64 2443.29C968.674 2470.46 970.176 2497.64 971.481 2525.82H971.703ZM957.69 2191.36C979.042 2187.3 989.041 2173.75 998.079 2159.78C1014.41 2134.57 1010.12 2107.13 1004.43 2080.1C1001.7 2067.11 1005.74 2062.29 1018.57 2062.11C1038.27 2061.89 1057.97 2061.6 1077.67 2060.02C1129.59 2055.88 1179.83 2044.23 1229.8 2029.15C1276.27 2015.15 1313.53 1989.87 1345.3 1954.49C1347.36 1951.99 1348.51 1948.87 1348.55 1945.63C1348.28 1918.33 1346.73 1891 1347.37 1863.7C1348.72 1806.69 1351.16 1749.71 1353.06 1692.69C1353.06 1691.58 1351.83 1690.43 1349.91 1687.1C1318.33 1699.42 1285.88 1709.57 1255.39 1724.23C1222.69 1740.39 1190.98 1758.49 1160.45 1778.43C1133.85 1795.46 1106.66 1812.93 1084.25 1834.78C1050.59 1868.25 1018.88 1903.62 989.263 1940.72C965.497 1969.99 952.444 2004.16 955.129 2043.54C957.395 2076.58 957.099 2109.81 957.715 2142.95C957.813 2158.27 957.567 2173.55 957.567 2191.36H957.69ZM783.87 453.336C761.705 451.735 741.732 448.926 721.907 449.222C692.083 449.665 662.284 453.656 632.46 453.706C582.59 453.706 533.951 458.633 487.922 479.477C450.341 496.403 424.088 524.54 420.738 565.709C415.961 624.84 416.108 684.488 414.385 743.915C414.212 749.212 415.862 754.583 417.167 763.256L422.093 755.371C423.891 752.513 425.836 749.754 427.363 746.773C451.498 699.641 487.897 669.73 542.004 664.137C579.659 660.245 617.29 655.982 654.896 651.819C659.403 651.301 665.831 651.129 667.899 648.295C677.947 634.4 687.306 619.962 695.974 605.179C716.317 570.44 736.093 535.38 756.189 500.518C765.227 485.07 774.462 469.646 783.87 453.336ZM680.878 648.517C710.431 648.517 735.255 649.232 760.08 648.369C804.655 646.817 849.182 643.934 893.733 642.382C911.612 641.766 927.817 626.442 926.192 608.702C922.867 572.435 919.715 536.144 915.38 499.976C906.909 428.917 903.633 357.335 905.578 285.799C905.578 282.423 904.396 278.999 902.968 271.484L680.878 648.517ZM766.803 1115.68C784.042 1096.73 799.311 1080.34 814.112 1063.62C840.537 1033.78 864.771 1001.68 893.585 974.426C914.37 954.716 923.63 936.484 921.906 906.697C917.547 832.044 918.138 757.096 916.661 682.246C916.488 673.746 915.676 665.246 915.035 654.504C913.041 656.037 911.195 657.753 909.519 659.629C892.748 687.543 876.395 715.729 859.254 743.397C830.046 790.579 800.148 837.415 770.965 884.548C768.059 889.204 765.276 894.969 765.301 900.217C765.424 942.373 766.36 984.528 766.754 1026.68C766.901 1054.92 766.68 1083.13 766.68 1115.68H766.803ZM763.774 1348.55C758.011 1340.5 755.277 1336.65 752.494 1332.83C735.378 1309.18 732.275 1271.81 749.022 1249.93C780.077 1209.4 822.904 1200.48 854.674 1250.52C870.435 1275.28 870.583 1303.96 864.278 1334.66H930.625V1007.81C922.054 1014.29 915.848 1017.67 911.415 1022.59C890.95 1044.77 871.642 1068.12 850.659 1089.83C815.664 1126.05 778.944 1160.64 744.367 1197.23C714.667 1228.66 687.183 1262.25 673.81 1304.5C670.879 1313.81 670.682 1324.21 670.756 1334.06C670.756 1341.46 675.066 1345.1 683.956 1345.15C702.181 1345.15 720.38 1347.39 738.605 1348.43C745.402 1348.87 752.297 1348.55 763.651 1348.55H763.774ZM1013.67 2076.62C1015.24 2084.95 1016.3 2092.91 1018.25 2100.62C1027.71 2138.02 1008.77 2189.84 965.99 2204.27C952.395 2208.86 959.71 2220.58 960.399 2229.06C960.547 2230.88 970.792 2234.43 975.003 2233C1025.66 2216.1 1063.66 2176.9 1071.67 2118.8C1072.18 2115.01 1078.41 2109.91 1082.7 2108.95C1119.64 2101.56 1157.15 2096.38 1193.79 2087.61C1228.39 2079.36 1263.17 2070 1295.95 2056.45C1318.95 2046.96 1339.93 2031.17 1359.63 2015.47C1384.26 1995.76 1399.63 1968.42 1408.54 1938.78C1418.4 1905.86 1412.34 1869.52 1369.14 1863.73V1944.17C1343.4 1983.38 1306.7 2014.14 1263.61 2032.62C1217.19 2052.48 1167.57 2062.95 1117.15 2068.03C1083.76 2071.35 1050.29 2073.62 1013.67 2076.62ZM935.107 1556.91C916.218 1555.68 900.481 1553.49 884.768 1553.81C840.217 1554.75 795.617 1555.9 751.14 1558.52C709.446 1560.98 668.195 1567.46 628.298 1580.49C620.639 1582.96 612.414 1585.84 606.38 1590.89C600.346 1595.94 596.406 1604.1 591.603 1610.9C598.475 1614.12 605.272 1617.5 612.241 1620.58C614.438 1621.57 616.826 1622.07 619.235 1622.03C667.136 1620.38 715.011 1618.56 762.912 1616.88C783.944 1616.14 804.975 1615.16 826.007 1615.08C859.057 1615.08 892.083 1615.48 925.133 1615.85C932.275 1615.85 935.525 1613.38 935.279 1605.67C934.787 1589.95 935.107 1574.21 935.107 1556.91ZM1237.46 1333.84L1239.67 1327.51C1227.73 1317.9 1217.02 1305.73 1203.55 1299.33C1187.44 1291.76 1170.17 1286.97 1152.47 1285.18C1103.9 1280.37 1055.21 1276.89 1006.38 1274.74C985.076 1273.75 963.601 1277.2 942.52 1278.46V1334.9C1041.99 1337.44 1139.74 1335.37 1237.46 1333.84ZM873.267 108.604L670.313 439.564C689.596 443.062 691.788 442.964 700.112 430.226C714.002 408.988 726.907 387.085 740.205 365.453C774.536 309.574 808.719 253.597 843.271 197.916C852.334 183.305 861.274 168.35 872.553 155.539C883.832 142.727 886.172 127.18 873.267 108.604ZM936.634 2166.73C947.273 2163.87 952.518 2144.55 942.618 2135.24C917.991 2111.86 893.683 2087.91 867.48 2066.25C812.561 2020.97 756.312 1977.28 701.023 1932.47C686.074 1920.35 670.288 1915.22 649.306 1919.24C663.91 1931.14 676.593 1941.86 689.719 1952.06C709.421 1967.48 729.616 1982.61 749.712 1997.71C786.653 2025.58 825.736 2051.1 860.239 2081.77C888.364 2106.73 910.997 2137.73 936.634 2166.73ZM939.934 676.875C935.846 688.233 935.919 695.255 945.844 701.784C979.354 723.843 1012.53 746.477 1045.36 769.686C1082.7 796.221 1119.37 823.717 1156.33 850.794L1193.28 877.895L1198.62 873.214C1193.08 863.827 1189.14 852.814 1181.65 845.349C1166.89 831.16 1151.33 817.818 1135.06 805.386C1119.12 792.722 1102.84 780.379 1085.97 768.971C1073.12 760.299 1058.66 753.992 1045.71 745.467C1017.31 726.767 989.509 707.204 961.261 688.307C954.351 684.136 947.233 680.32 939.934 676.875ZM868.957 28.9001C829.11 99.9064 781.407 164.408 739.836 232.754C697.698 302.035 654.527 370.726 611.773 439.711L615.098 443.383C618.841 441.067 623.693 439.588 626.131 436.287C639.528 418.178 653.049 400.094 665.215 381.147C692.576 338.499 719.223 295.408 746.017 252.39C760.671 228.861 774.881 205.061 789.608 181.556C805.837 155.588 821.057 128.807 839.38 104.366C849.576 90.815 851.94 70.7845 870.78 63.7873C872.036 63.3192 872.75 59.4757 872.528 57.3322C871.617 47.9205 870.238 38.6074 868.957 28.9001ZM873.883 73.2482C788.352 191.313 717.129 316.818 640.661 440.894L657.556 443.654C660.018 437.593 661.201 432.419 663.91 428.206C673.465 413.423 684.055 399.182 693.29 384.128C727.473 328.595 760.917 272.593 795.297 217.158C817.782 180.916 841.252 145.289 864.722 109.688C867.184 105.992 872.652 104.317 878.316 100.67C877.06 92.2933 875.434 82.7092 873.957 73.125L873.883 73.2482ZM946.066 2120.65C946.756 2106.19 947.888 2095.23 936.929 2085.94C910.282 2063.39 884.719 2039.57 857.949 2017.22C832.263 1995.76 805.813 1975.34 779.141 1954.86C767.443 1945.9 753.603 1939.59 742.57 1929.93C730.945 1919.78 720.134 1915.57 705.801 1920.08L946.066 2120.65ZM878.464 160.146C818.299 253.375 761.36 345.176 706.244 441.51C718.115 441.165 726.734 444.935 732.669 433.453C738.087 422.982 746.362 414.039 752.544 403.888C795.33 334.114 838.017 264.265 880.606 194.343C886.566 184.488 887.995 174.929 878.464 160.146ZM959.291 647.975L964.216 646.965C964.389 643.466 964.832 639.943 964.734 636.445C963.822 603.824 962.739 571.204 961.852 538.558C960.547 489.554 959.069 440.549 958.257 391.544C957.739 359.811 958.257 328.077 958.257 296.344C958.257 285.158 959.365 273.258 941.781 273.997C940.991 276.252 940.47 278.593 940.229 280.97C941.485 351.607 942.002 422.268 944.465 492.855C946.041 537.918 950.376 582.907 953.922 627.92C954.513 634.818 957.468 641.397 959.291 647.975ZM1077.5 358.209L1072.26 359.096C1071.22 362.495 1070.51 365.985 1070.14 369.518C1069.2 437.691 1068.54 505.864 1067.5 574.012C1066.96 610.033 1065.85 646.053 1064.92 682.074C1064.3 704.765 1068.14 711.245 1084.84 713.66C1084.84 691.042 1084.62 668.548 1084.84 646.053C1085.48 597.049 1086.76 548.044 1087.06 499.039C1087.28 463.019 1087.06 426.949 1085.63 390.978C1085.28 380.088 1080.38 369.223 1077.53 358.308L1077.5 358.209ZM1181.58 830.369L1185.44 827.905C1182.12 820.243 1179.9 811.817 1175.27 805.041C1155.45 775.87 1126.93 755.495 1097.84 737.608C1048.93 707.574 997.784 681.162 947.42 653.469C945.253 652.287 941.732 653.469 938.825 653.716C939.687 656.648 939.638 660.639 941.584 662.265C946.312 666.232 952.075 668.942 957.271 672.416C994.951 697.694 1032.8 722.702 1070.16 748.448C1095.65 766.015 1120.5 784.543 1145.47 802.873C1157.71 811.817 1169.58 821.253 1181.6 830.468L1181.58 830.369ZM1003.94 671.627L1010.52 669.73C1010.52 656.45 1010.52 643.171 1010.52 629.891C1010.91 584.804 1011.62 539.716 1011.67 494.654C1011.67 467.33 1010.34 440.032 1010.32 412.708C1010.32 382.552 1011.06 352.42 1011.67 322.263C1011.87 312.408 1007.91 306.889 996.306 305.682C995.189 309.066 994.438 312.559 994.065 316.103C994.213 361.61 994.582 407.091 994.828 452.597C995.075 498.103 995.001 543.757 995.493 589.214C995.74 612.669 996.577 636.026 997.956 659.53C998.128 663.768 1001.85 667.685 1003.97 671.726L1003.94 671.627ZM1026.11 684.439L1031.82 682.69C1031.28 671.011 1029.85 659.308 1030.37 647.679C1031.94 610.969 1035.29 574.333 1036.08 537.622C1037.36 482.68 1037.26 427.688 1037.56 372.746C1037.9 360.784 1037.39 348.812 1036.03 336.922C1035.34 331.995 1030.32 327.535 1027.26 322.879L1020.64 325.096C1020.64 346.802 1020.64 368.508 1020.64 390.214C1020.64 433.872 1020.88 477.555 1020.91 521.213C1020.91 572.017 1020.76 622.795 1021.06 673.598C1021.03 677.319 1024.31 680.916 1026.06 684.538L1026.11 684.439ZM851.25 683.626L847.138 677.54C838.912 680.793 827.83 681.729 822.953 687.716C803.399 711.812 785.52 737.287 767.468 762.59C748.833 788.706 730.535 815.044 712.573 841.604C709.199 846.531 704.422 855.179 706.367 858.136C709.79 863.359 717.893 868.188 723.976 868.114C728.63 868.114 734.221 860.871 737.619 855.795C756.189 827.388 773.846 798.414 792.514 770.08C811.649 740.934 831.573 712.452 851.176 683.725L851.25 683.626ZM1554.19 2230.88C1545.15 2240.49 1534.49 2251.36 1524.47 2262.91C1521.32 2266.45 1519.35 2270.87 1518.83 2275.58C1517.79 2289.93 1517.79 2304.34 1518.83 2318.69C1523.09 2363.04 1528.33 2407.39 1533.16 2451.61C1534.83 2466.86 1536.39 2482.09 1538.08 2497.29C1539.07 2497.29 1540.84 2497.29 1540.84 2497.29C1545.3 2407.88 1549.71 2318.42 1554.12 2231.01L1554.19 2230.88ZM980.372 658.348L987.145 656.795C987.145 650.808 987.292 644.821 987.145 638.859C986.209 608.678 984.682 578.546 984.288 548.364C984.066 533.582 986.209 518.799 986.233 503.844C986.233 472.159 985.494 440.5 985.224 408.816C984.928 374.692 984.83 340.569 984.632 306.445C984.632 297.009 981.16 290.776 967.393 291.022C967.393 306.125 967.098 320.932 967.393 335.715C968.772 394.378 970.373 453.016 971.876 511.679C973.008 555.361 973.969 599.044 975.446 642.727C975.767 648.098 978.87 653.272 980.421 658.471L980.372 658.348ZM1050.14 340.52C1048.57 346.507 1047.33 349.093 1047.28 351.705C1046.55 380.482 1045.63 409.259 1045.44 437.938C1045.22 473.268 1046.3 508.599 1045.59 543.88C1044.65 589.805 1042.58 635.73 1040.81 681.655C1040.41 691.855 1044.85 696.438 1056.45 696.832C1056.45 690.5 1056.45 684.833 1056.45 679.142C1056.45 656.106 1056.1 633.045 1056.79 610.156C1057.78 576.624 1060.14 543.116 1060.81 509.584C1061.69 465.926 1062.16 422.219 1061.22 378.56C1061.03 366.882 1063.88 352.715 1050.29 340.544L1050.14 340.52ZM1714.37 2272.94L1717.99 2268.23C1713.53 2263.48 1709.93 2256.23 1704.49 2254.34C1661.17 2239.26 1617.51 2225.19 1572.74 2210.41C1569.14 2224.3 1560.25 2238.3 1571.21 2246.01C1592.98 2261.31 1616.57 2275.33 1641.4 2284.62C1663.96 2292.91 1688.57 2293.77 1711.66 2287.08C1665.85 2267.62 1617.06 2263.38 1573.47 2243.92C1574.14 2241.45 1574.78 2239.23 1575.42 2236.92C1599.21 2238.37 1621.25 2248.45 1644.13 2254.44C1667.56 2260.56 1690.97 2266.73 1714.37 2272.94ZM731.586 947.103C733.901 932.049 729.911 929.265 711.884 929.857C648.665 932.32 585.471 934.538 522.253 937.075C497.871 938.036 473.441 939.194 449.134 941.362C444.381 941.781 440.071 947.276 435.564 950.429C440.096 952.4 444.676 956.145 449.183 956.047C483.194 955.455 517.204 954.1 551.215 952.967L731.586 947.103ZM882.823 682.468C871.002 676.481 863.638 680.99 858.195 689.391C845.882 708.683 834.454 728.59 821.771 747.66C796.75 785.208 770.965 822.214 745.82 859.688C733.999 877.329 734.861 879.152 755.474 888.219C797.809 819.873 840.07 751.602 882.823 682.468ZM442.977 969.992L441.918 974.919C453 978.738 464.083 985.612 475.19 985.784C507.747 986.302 540.354 984.282 572.936 983C618.004 981.251 663.048 978.319 708.116 977.95C723.36 977.802 728.113 973.194 726.562 957.549L442.977 969.992ZM814.235 683.626C792.489 675.939 785.618 678.009 775.841 692.939C762.986 712.502 750.77 732.532 737.275 751.626C716.415 781.192 694.694 810.092 672.8 840.002L691.591 853.233L814.235 683.626ZM644.577 825.195C661.57 836.873 661.964 837.194 673.711 822.362C682.897 810.782 690.95 798.241 699.472 786.193C719.174 758.599 739.097 731.202 758.43 703.386C762.789 697.128 765.153 689.49 768.748 681.803C750.795 677.072 738.383 679.019 729.345 694.294C719.173 711.541 707.549 728.048 696.615 744.9C679.277 771.657 661.931 798.422 644.577 825.195ZM942.323 635.656C943.141 631.303 943.659 626.899 943.874 622.475C941.042 571.77 937.84 521.066 935.23 470.312C933.26 431.975 931.782 393.589 930.526 355.204C929.664 328.817 929.713 302.429 929.048 276.042C928.851 267.074 926.364 259.239 915.405 257.736C907.77 307.135 928.088 606.312 942.323 635.656ZM737.225 903.79C722.449 904.48 709.889 905.095 697.378 905.638C643.198 908.101 589.215 910.565 535.108 912.709C507.378 913.768 479.598 913.522 451.892 914.926C446.967 915.172 442.558 920.593 437.904 923.623C442.558 925.865 447.238 930.078 451.892 930.054C487.331 929.783 522.794 929.167 558.209 927.762C617.536 925.299 676.839 922.391 737.225 919.583V903.79ZM412.759 971.371H417.685C418.005 966.444 418.571 961.319 418.547 956.293C418.547 939.465 417.586 922.613 418.325 905.81C418.694 896.965 418.842 884.4 424.26 880.236C435.663 871.465 439.505 858.998 446.425 848.207C464.748 819.528 482.775 790.628 500.088 761.334C512.87 739.652 524.371 717.207 536.438 695.107L533.975 691.264C528.089 693.555 519.765 694.171 516.736 698.483C507.452 711.688 500.359 726.422 492.109 740.367C470.141 777.521 447.779 814.28 426.156 851.755C417.363 866.907 409.748 882.714 403.376 899.035C393.427 924.757 416.429 946.093 412.759 971.371ZM1504.22 2282.1C1484.79 2287.43 1478.07 2299.99 1480.46 2320.22C1483.56 2345.95 1485.28 2371.84 1485.6 2397.75C1485.8 2416.13 1490.87 2431.41 1503.16 2444.74C1507.52 2449.44 1511.24 2454.59 1515.25 2459.72L1517.99 2457.55C1513.41 2399.11 1508.85 2340.79 1504.22 2281.98V2282.1ZM1155.25 444.91C1170.94 462.304 1170.94 462.329 1190.89 461.196C1219.6 459.545 1248.29 457.204 1277.08 456.268C1328.8 454.765 1380.67 454.272 1432.43 452.991C1436.55 452.991 1440.58 449.936 1444.75 448.31C1441.22 445.206 1438.17 440.525 1434.11 439.342C1427.13 437.561 1419.93 436.798 1412.73 437.075C1396.94 437.223 1381.16 438.209 1365.37 438.578C1309.89 439.909 1254.38 441.042 1198.87 442.471C1184.21 442.939 1169.73 444.122 1155.25 444.91ZM1437.33 365.601V360.796C1428.44 358.628 1419.63 355.154 1410.64 354.563C1379.63 352.469 1348.55 350.128 1317.5 350.202C1264.89 350.35 1212.31 352.296 1159.73 353.43C1153.23 353.553 1145.75 353.43 1146.95 362.225C1147.32 364.936 1155.4 368.459 1159.93 368.41C1194.41 368.212 1228.89 366.71 1263.37 366.562C1316.07 366.34 1368.77 366.931 1421.47 367.03C1426.77 367.104 1432.01 366.094 1437.33 365.601ZM1148.8 379.669L1148.43 386.371C1152.51 387.595 1156.7 388.42 1160.94 388.834C1190.74 389.031 1220.53 389.031 1250.31 388.834C1290.6 388.588 1330.87 387.75 1371.14 387.8C1391.8 387.8 1412.44 389.426 1433.1 389.746C1436.05 389.746 1439.06 386.568 1442.06 384.818C1439.6 381.739 1437.92 377.673 1434.82 375.85C1431.31 374.286 1427.45 373.642 1423.62 373.978C1394.93 373.978 1366.26 374.273 1337.57 374.446C1294.4 374.692 1251.22 374.446 1208.05 375.382C1188.2 375.875 1168.5 378.215 1148.8 379.669ZM741.905 439.12L746.83 444.417C750.573 442.175 755.721 440.82 757.839 437.519C777.541 406.894 797.242 376.269 815.959 345.004C839.208 306.076 861.668 266.68 883.882 227.136C886.665 222.209 885.926 215.261 886.812 209.224L880.754 207.007L741.905 439.12ZM680.582 687.396C662.777 683.601 651.325 685.351 642.73 700.675C625.121 732.089 605.789 762.467 587.22 793.412C582.467 801.346 578.502 809.747 573.404 819.381C590.889 819.898 602.957 817.607 610.936 801.567C620.984 781.561 634.455 763.305 646.227 744.137C657.457 726.003 668.416 707.599 680.582 687.396ZM615.738 813.862C625.195 822.707 632.362 820.859 638.469 812.334C656.004 787.893 673.834 763.65 690.704 738.765C702.476 721.519 712.869 703.139 725.035 683.355C711.736 681.507 699.176 676.654 691.271 688.972C673.49 716.961 656.965 745.565 639.922 773.899C631.869 787.277 623.767 800.73 615.738 813.935V813.862ZM972.836 1689.49L971.038 1695.13L1082.3 1817.68C1099.2 1807.83 1099.54 1807.38 1088.54 1793.36C1070.53 1770.48 1052.33 1747.71 1033.39 1725.58C1025.05 1715.88 1015.71 1706.22 1004.95 1699.67C995.74 1694 983.795 1692.77 972.934 1689.56L972.836 1689.49ZM943.751 2074.83C947.741 2059.62 942.298 2049.52 930.428 2040.33C886.615 2006.36 843.567 1971.35 799.754 1937.45C786.283 1927 772.196 1915.69 756.041 1921.28L943.751 2074.83ZM609.458 689.342C595.248 685.08 586.727 686.164 580.349 696.733C559.908 730.709 539.073 764.463 518.534 798.364C511.786 809.476 505.408 820.809 498.832 832.044L502.6 836.184C510.185 831.428 519.987 828.349 524.986 821.647C541.807 799.079 557.445 775.525 572.591 751.75C585.274 732.138 596.504 711.639 609.458 689.342ZM1153.72 424.116C1153.31 425.914 1152.91 427.688 1152.52 429.462C1154.98 431.162 1157.44 434.119 1160.13 434.39C1170.66 435.207 1181.23 435.494 1191.8 435.252C1246.94 433.675 1302.1 431.704 1357.25 430.324C1382.69 429.635 1408.15 429.906 1433.59 429.265C1436.62 429.265 1439.55 426.087 1442.53 424.337C1439.8 422.613 1437.09 419.41 1434.3 419.41C1405.49 418.72 1376.68 418.006 1347.86 418.35C1305.21 418.868 1262.53 420.075 1219.8 421.307C1198.05 421.75 1175.89 423.106 1153.85 424.116H1153.72ZM1200.52 193.333C1201.28 204.051 1200.98 213.24 1202.98 221.938C1203.87 225.855 1209.19 228.762 1212.49 232.138C1214.95 228.417 1220.02 224.549 1219.87 220.952C1217.93 182.246 1214.95 143.589 1212.83 104.908C1212.39 96.2846 1214.83 87.6614 1215.47 78.8657C1215.69 76.0323 1215.24 71.3018 1213.62 70.4888C1207.2 67.7009 1200.62 65.3066 1193.92 63.3192L1190.71 66.1772C1220.93 127.772 1202.34 179.955 1160.52 227.727C1191.23 234.626 1191.23 234.626 1189.78 206.81C1189.58 199.197 1189.83 192.175 1200.71 193.333H1200.52ZM1715.99 2243.2C1718.14 2228.62 1715.82 2220.56 1701.78 2216.42C1667.85 2206.39 1634.5 2194.39 1600.81 2183.65C1576.18 2175.79 1576.01 2176.11 1576.18 2201.37L1715.99 2243.2ZM1443.86 406.697C1443.86 405.145 1443.86 403.592 1443.86 402.016C1438.22 401.005 1432.61 399.084 1426.97 399.059C1374.29 399.059 1321.63 399.231 1268.98 399.404C1236.37 399.404 1203.74 399.256 1171.16 400.118C1164.41 400.291 1151.34 394.846 1152.03 407.707C1152.64 418.966 1164.88 414.088 1171.97 413.916C1210.76 412.905 1249.55 410.54 1288.36 409.924C1333.97 409.161 1379.48 409.924 1425.19 409.555C1431.64 409.555 1437.85 407.732 1444.06 406.746L1443.86 406.697ZM938.924 2035.65L946.312 2031.44C943.209 2023.41 942.421 2012.52 936.609 2007.76C903.633 1980.81 869.647 1955.09 835.637 1929.46C824.973 1921.43 818.841 1922.07 805.246 1929.07L938.924 2035.65ZM1106.93 824.012L937.619 710.974C932.053 722.258 932.275 727.9 942.101 734.355C985.273 762.787 1027.85 792.131 1070.16 821.869C1081.15 829.556 1091.2 828.25 1106.93 824.012ZM435.835 903.888L718.853 896.817C719.198 894.698 719.568 892.555 719.937 890.436C710.973 887.972 701.934 883.513 693.044 883.784C643.789 885.262 594.534 888.046 545.279 890.165C511.343 891.594 477.381 892.629 443.445 894.181C441.524 894.353 439.874 898.493 435.835 903.888ZM1225.91 81.4526C1225.05 88.7208 1223.25 95.373 1223.67 101.877C1226.28 143.072 1229.16 184.266 1232.7 225.412C1233 228.885 1238.49 233.271 1242.43 234.478C1244.43 235.094 1250.07 230.068 1250.98 226.742C1252.36 220.668 1252.71 214.406 1252.04 208.214C1249.43 171.258 1245.36 134.572 1244.28 97.689C1243.86 83.399 1239.23 79.9005 1225.91 81.4526ZM570.054 689.859C553.874 688.159 552.988 688.923 546.043 700.725C520.759 743.644 495.36 786.497 469.845 829.285C464.255 838.672 458.172 847.763 452.311 856.978L456.645 860.698C464.329 853.553 473.687 847.566 479.426 839.115C499.522 809.55 518.887 779.492 537.522 748.941C548.85 730.192 558.603 710.531 570.054 689.859ZM1712.27 2205.8C1717.62 2183.33 1715.75 2179.98 1695.97 2175.27C1659.92 2166.73 1623.86 2158.03 1587.39 2149.33C1585.86 2154.95 1584.29 2160.79 1582.64 2166.92L1712.27 2205.8ZM479.204 696.314L482.627 700.01C480.78 706.884 480.361 714.62 476.815 720.46C457.31 752.883 436.131 784.296 417.537 817.212C410.543 829.531 408.917 845.004 404.854 859.097L411.503 861.56C443.519 806.766 475.362 751.996 509.102 694.146L479.204 696.314ZM1064.75 1836.31C1074.08 1829.14 1074.99 1826.45 1066.03 1816.6C1033.81 1780.68 1001.31 1745.02 968.502 1709.62C963.576 1704.45 956.533 1701.46 949.194 1696.64C946.337 1709.45 946.337 1717.9 957.912 1722.83C962.025 1724.6 965.152 1728.98 968.428 1732.46C978.5 1743.25 988.376 1754.21 998.424 1765.05C1020.47 1788.76 1042.58 1812.51 1064.75 1836.31ZM1258.17 92.6382C1257.01 95.7426 1255.41 97.9353 1255.53 100.03C1258.39 144.378 1261.27 188.726 1264.77 233.074C1264.99 235.784 1270.26 238.001 1273.17 240.465C1275.93 236.4 1281.1 232.31 1281.05 228.294C1280.53 193.801 1280.38 159.308 1277.18 125.012C1276.12 113.95 1278.14 96.8513 1258.17 92.6382ZM936.092 741.599C931.166 757.096 935.033 763.182 944.81 769.39C978.623 790.899 1011.77 813.517 1044.77 836.307C1054.03 842.688 1060.07 842.146 1067.16 828.669L936.092 741.599ZM719.371 245.171L715.873 242.436L576.458 447.177C582.319 445.156 591.702 444.885 595.174 440.204C617.142 410.639 638.864 380.605 658.565 349.414C679.991 315.364 699.151 279.861 719.321 245.048L719.371 245.171ZM1109.25 1797.6C1128.11 1789.52 1122.23 1780.82 1113.68 1771.53C1091.74 1747.71 1069.97 1723.69 1048.15 1699.72C1040.14 1690.94 1030.61 1690.4 1017.95 1693.73L1109.25 1797.6ZM712.278 992.56C712.155 990.958 712.056 989.357 711.958 987.78L499.595 995.369C499.595 996.896 499.719 998.448 499.768 999.976C571.089 1012.84 641.843 1008.13 712.278 992.56ZM932.422 799.424L1040.78 864.689C1047.63 854.982 1044.3 848.626 1037.24 843.772C1011.97 826.402 986.677 809.033 961.039 792.23C952.666 786.735 943.209 782.892 932.348 777.324L932.422 799.424ZM1169.24 240.145C1154.66 235.883 1145.87 238.864 1141.29 252.045C1139.24 256.903 1136.61 261.488 1133.43 265.694C1119.37 286.76 1104.77 307.456 1091.2 328.817C1081.47 344.092 1083.46 348.527 1099.22 355.327L1169.24 240.145ZM1289.32 108.111C1289.32 123.436 1288.9 136.74 1289.32 149.995C1290.46 178.797 1291.79 207.623 1293.9 236.375C1294.15 239.677 1299.94 242.584 1303.14 245.664C1305.6 242.338 1310.28 238.938 1310.18 235.809C1309.1 198.852 1307.35 161.895 1305.68 124.938C1305.23 112.743 1297.11 109.417 1289.32 107.988V108.111ZM674.401 875.456L674.844 870.529C669.672 868.36 664.575 864.468 659.354 864.32C633.076 863.655 606.749 863.211 580.546 864.147C552.889 865.108 525.282 867.572 497.674 869.74C484.967 870.75 471.594 870.479 459.379 882.305L674.401 875.456ZM1713.68 2135.39C1713.9 2123.07 1711.61 2115.28 1699.42 2112.4C1669.6 2105.35 1640.07 2097.12 1610.24 2090.22C1607.09 2089.49 1599.75 2093.85 1599.53 2096.29C1599.14 2100.82 1601.7 2109.17 1604.46 2109.89C1640.14 2118.85 1676.12 2126.81 1713.58 2135.39H1713.68ZM1043.89 932.468C1041.42 905.194 973.132 854.859 933.851 848.576C929.442 863.359 929.639 862.891 941.51 869.568C956.065 877.772 970.324 886.543 984.559 895.314C1003.89 907.239 1023.2 919.435 1043.89 932.468ZM1590.84 2137.26L1713.43 2168.13C1712.99 2150.14 1713.43 2148.89 1701.12 2145.59C1666.12 2136.1 1630.83 2127.72 1594.68 2118.66C1593.18 2126.25 1592.24 2130.63 1590.84 2137.23V2137.26ZM955.006 1734.65L950.277 1737.12C954.267 1746.97 946.337 1758.8 959.291 1767.67C971.26 1776.23 982.326 1786 992.316 1796.81C1010.44 1815.81 1027.68 1835.52 1047.83 1857.69C1049.87 1851.02 1052.95 1846.36 1051.69 1843.99C1047.76 1836.42 1042.89 1829.37 1037.19 1823.03C1020.83 1805.04 1003.89 1787.62 987.292 1769.86C976.407 1758.28 965.768 1746.43 955.006 1734.65ZM1026.43 1875.78C1037.09 1869.84 1037.58 1864.42 1030.66 1856.71C1014.01 1838.18 998.325 1818.77 981.406 1800.46C973.575 1791.96 963.847 1785.23 952.371 1775.53C951.238 1793.46 949.908 1805.09 963.478 1816.08C985.864 1834.02 1005.37 1855.38 1026.52 1875.78H1026.43ZM1339.93 257.687C1339.93 237.755 1340.94 221.1 1339.69 204.642C1337.89 181.334 1334.76 158.101 1331.31 134.966C1330.7 130.876 1325.6 127.451 1322.57 123.707L1319.54 125.899V251.01L1339.93 257.687ZM1368.67 342.047C1369.07 340.569 1369.49 339.091 1369.88 337.637C1365.4 335.332 1360.73 333.435 1355.92 331.97C1313.8 322.977 1271.22 326.032 1228.79 328.595C1216.87 329.334 1203.47 330.172 1194.93 342.047H1368.67ZM1135.43 238.568C1118.93 235.636 1107.79 233.172 1104.42 249.975C1103.66 253.868 1099.79 257.145 1097.28 260.644C1086.61 275.426 1075.48 289.839 1065.41 304.992C1056.1 318.986 1057.6 322.09 1073.91 329.359C1093.98 299.941 1113.88 270.548 1135.52 238.593L1135.43 238.568ZM1710.3 2101.73C1713.01 2088.67 1713.41 2079.56 1697.55 2079.98C1693.43 2080.12 1689.3 2077.73 1685.23 2076.72C1659.42 2070.51 1633.52 2064.4 1607.29 2058.1C1603.54 2067.95 1600.66 2075.34 1611.03 2078C1643.81 2086.28 1676.76 2093.8 1710.3 2101.73ZM1041.69 941.757L935.624 880.408L930.551 884.621C932.669 891.52 932.619 901.868 937.249 904.751C958.207 917.661 981.726 926.678 1001.85 940.648C1015.12 949.887 1026.3 951.39 1041.69 941.757ZM542.964 821.007C557.544 826.378 561.681 815.734 566.336 808.244C583.575 780.576 600.051 752.464 616.723 724.476C623.594 712.871 630.195 701.119 638.1 687.396L623.57 686.73L542.964 821.007ZM1359.51 265.497L1364.04 263.034C1364.43 261.179 1364.71 259.303 1364.88 257.416C1366.01 234.675 1367.81 211.935 1367.91 189.219C1367.94 176.277 1366.31 163.385 1363.06 150.857C1361.8 145.93 1354.12 142.702 1349.34 138.686C1348.06 143.614 1345.79 148.541 1345.7 153.469C1345.7 159.604 1347.84 165.788 1348.16 171.947C1349.51 198.679 1350.2 225.485 1352 252.193C1352.37 256.8 1356.93 261.161 1359.51 265.497ZM1708.06 2068.99C1710.75 2058 1707.57 2051.1 1695.45 2048.29C1670.31 2042.45 1645.41 2035.55 1620.24 2029.81C1617.78 2029.25 1612.56 2033.04 1611.47 2035.9C1607.58 2046.34 1616.05 2050.02 1623.27 2051.62C1651.2 2057.83 1679.32 2063.12 1708.06 2068.91V2068.99ZM1036.5 892.136C1040.29 877.353 1030.59 871.243 1022.09 865.749C997.931 850.178 973.328 835.37 948.603 820.711C944.046 818.001 938.185 817.459 932.422 815.783C929.812 826.353 930.575 833.03 941.51 835.691C946.017 836.75 950.031 840.027 954.119 842.515C981.135 858.727 1008.1 875.013 1036.5 892.136ZM1376.18 157.115C1375.1 160.718 1374.34 164.413 1373.92 168.153C1374.39 199.862 1375.99 231.571 1375.15 263.231C1374.85 274.983 1379.41 274.392 1386.92 273.899C1398.74 229.403 1394.26 172.243 1376.18 157.115ZM1618.74 1995.94C1620.88 2005.79 1610.02 2015.65 1624.53 2019.24C1652.11 2025.87 1680.04 2031 1712.5 2037.72C1708.41 2029.02 1707 2020.15 1703.21 2019C1676.32 2010.69 1648.93 2003.97 1618.74 1995.94ZM1090.43 1695.35C1113.09 1718.07 1134.29 1739.7 1156.19 1760.62C1157.91 1762.25 1165.18 1760.05 1168.16 1757.59C1169.78 1756.26 1169.22 1749.43 1167.24 1747.04C1156.61 1734.08 1146.07 1720.83 1133.85 1709.45C1123.04 1699.27 1111.86 1686.93 1090.43 1695.28V1695.35ZM1127.62 331.65L1133.73 336.577C1164.81 312.457 1176.5 273.381 1200.84 242.707C1193.08 241.697 1184.48 241.697 1181.82 245.688C1163.06 273.85 1145.52 302.848 1127.62 331.576V331.65ZM943.48 1998.99C944.736 1977.73 944.859 1977.58 932.841 1968.37C916.513 1955.85 900.456 1942.92 883.34 1931.56C876.838 1927.22 867.751 1926.78 859.845 1924.54L857.383 1930.37L943.48 1998.99ZM1703.85 1942.32C1711.76 1920.59 1710.57 1918.28 1691.76 1914.48C1680.97 1912.29 1670.11 1910.49 1659.37 1908.1C1642.41 1904.33 1640.19 1905.98 1638.71 1926.63L1703.85 1942.32ZM1061.57 1691.63L1056 1700.33C1062.65 1704.99 1070.24 1708.76 1075.7 1714.47C1094.08 1733.42 1111.54 1753.28 1129.89 1772.22C1132.35 1774.69 1137.96 1773.95 1142.2 1774.69C1141.71 1770.65 1142.72 1765.25 1140.5 1762.81C1120.13 1740.64 1099.52 1718.46 1078.22 1697.15C1074.5 1693.46 1067.21 1693.38 1061.57 1691.63ZM1171.11 313.295L1175.17 316.301C1211.25 307.406 1212.93 267.247 1237.61 246.723C1228.59 245.048 1217.46 243.397 1214.31 247.684C1198.74 268.676 1185.3 291.268 1171.11 313.295ZM1627.85 1967.63L1622.93 1983.44L1707 2006.16C1711.22 1995.17 1709.98 1987.9 1699.62 1985.24C1676.44 1979.28 1653.24 1973.84 1627.85 1967.63ZM1705.38 1974.08L1710.53 1971.27C1707.64 1965.8 1705.87 1956.79 1701.73 1955.51C1682.03 1949.76 1662.05 1945.02 1641.86 1941.31C1638.64 1940.65 1634.48 1944.25 1630.86 1945.87C1632.95 1950.06 1634.25 1957.16 1637.23 1957.97C1659.84 1964.03 1682.7 1968.86 1705.38 1974.08ZM1404.11 2302.36C1413.1 2326.43 1402.71 2357.13 1437.56 2369.15C1435.09 2347.39 1433.05 2327.27 1430.93 2307.56L1404.11 2302.36ZM1011.43 1898.54C1013.4 1892.85 1017.21 1886.57 1015.84 1885.09C996.355 1864.07 976.185 1843.72 956.163 1823.2L952.494 1826.58C951.977 1837.07 949.268 1848.13 964.093 1852.72C967.763 1853.85 970.349 1858.46 973.427 1861.46L1011.43 1898.54ZM1099.37 240.416C1087.06 234.404 1079.42 232.113 1075.61 245.541C1074.7 248.768 1070.68 251.035 1068.22 253.917C1059.23 264.438 1049.75 274.613 1041.77 285.947C1039.53 289.1 1041.77 295.457 1041.94 300.335C1046.72 298.906 1053.05 298.931 1055.95 295.777C1064.33 286.686 1071.22 276.264 1078.83 266.458C1085.06 258.204 1091.59 250.173 1099.37 240.416ZM1217.58 295.9C1244.5 295.358 1267.72 274.613 1274.23 250.37C1266.52 250.37 1255.66 247.216 1252.18 250.936C1239.33 264.684 1228.91 280.723 1217.58 295.9ZM1710.3 1905.32C1706.88 1897.56 1705.9 1889.75 1702.42 1888.42C1686.95 1882.61 1671.06 1877.96 1654.89 1874.52C1652.68 1874.03 1647.5 1881.59 1645.93 1886.2C1645.21 1888.17 1649.5 1894.16 1652.28 1894.77C1669.84 1898.57 1687.7 1901.38 1710.3 1905.32ZM1190.22 912.881L1195.15 911.477C1195.64 905.711 1198.74 896.867 1196.21 894.698C1178.6 879.768 1159.81 866.242 1139.29 850.646C1142.05 886.42 1171.33 895.117 1190.22 912.881ZM1400 195.255C1400 209.84 1400.12 224.401 1400 238.962C1399.85 251.725 1398.99 264.487 1399.31 277.225C1399.31 280.502 1402.76 283.68 1404.63 286.883C1407.51 285.06 1411.7 283.828 1412.93 281.216C1414.72 276.914 1415.56 272.274 1415.39 267.616C1415.39 257.096 1412.73 246.157 1414.78 236.104C1417.93 219.548 1409.97 207.697 1400 195.255ZM992.513 955.505C993.646 952.671 994.754 949.813 995.887 946.98L932.94 913.177C933.851 929.364 934.442 940.278 935.057 951.07C941.288 938.135 949.194 942.175 958.035 945.428C969.24 949.567 980.988 952.228 992.513 955.505ZM1139.24 1691.19C1138.41 1692.87 1137.59 1694.54 1136.78 1696.12C1151.11 1711.44 1165.27 1726.89 1179.95 1741.85C1181.92 1743.84 1186.55 1743.23 1189.95 1743.82C1189.95 1739.95 1191.75 1734.68 1189.95 1732.48C1179.94 1720.32 1169.18 1708.8 1157.71 1697.99C1153.11 1694.07 1145.45 1693.41 1139.24 1691.19ZM1703.88 1874.67C1708.95 1863.16 1704.74 1856.81 1695.95 1853.78C1683.46 1849.49 1670.58 1846.38 1652.85 1841.28C1655.16 1850.2 1655.11 1859.07 1658.14 1860.28C1672.97 1866.19 1688.58 1870.01 1703.88 1874.67ZM1702.72 1843.67L1706.88 1839.83C1704.42 1834.31 1703.14 1825.76 1698.95 1823.89C1688.44 1819.13 1676.61 1817.19 1665.14 1814.92C1664.37 1814.77 1661.54 1821.06 1661.12 1824.53C1661.2 1825.84 1661.61 1827.1 1662.3 1828.21C1662.99 1829.32 1663.95 1830.24 1665.09 1830.89C1677.5 1835.52 1690.13 1839.49 1702.72 1843.67ZM1310.87 259.461C1290.95 252.07 1279.1 260.299 1270.61 286.415C1290.36 291.564 1301.74 284.099 1310.87 259.486V259.461ZM1368.52 2312.01L1396.3 2334.68V2298.88L1372.91 2290.11C1371.38 2297.97 1370.17 2303.91 1368.52 2312.01ZM1428.86 252.612L1424.95 253.055C1424.21 259.88 1423.17 266.68 1422.8 273.529C1422.43 280.379 1422.8 287.647 1422.8 295.432L1451.17 311.077L1428.86 252.612ZM667.284 1951.05C658.368 1932.2 614.679 1912.39 592.145 1917.05C592.145 1917.49 592.145 1918.23 592.416 1918.33C617.388 1929.27 642.344 1940.17 667.284 1951.05ZM1217.76 1732.19C1206.67 1704 1186.82 1688.7 1170.62 1693.46C1181.45 1705.38 1191.97 1717.6 1203.37 1728.94C1205.86 1731.47 1211.5 1730.91 1217.76 1732.19ZM1063.22 239.455C1052.14 233.887 1045.19 233.246 1040.17 245.467C1036.79 253.622 1030 260.249 1024.87 267.789C1021.3 272.963 1014.75 278.26 1025.96 284.493L1063.22 239.455ZM956.015 1893.71C947.47 1915.32 964.241 1923.67 978.574 1933.68C986.159 1928.21 988.179 1921.92 980.643 1914.98C972.737 1907.68 964.364 1900.88 956.015 1893.71ZM1147.67 910.269C1159.17 919.114 1167.64 926.087 1176.65 932.271C1179.12 934.02 1183.38 933.478 1186.8 933.996C1186.23 930.177 1187.07 924.806 1184.85 922.835C1174.07 913.226 1162.47 904.504 1149.49 894.132C1148.55 902.459 1147.94 908.003 1147.67 910.269ZM1146.04 921.012L1135.67 950.848L1177.86 946.265L1146.04 921.012ZM1449.97 356.46C1451.1 348.009 1453.22 340.495 1452.65 333.202C1452.33 328.989 1447.73 325.145 1444.92 321.13C1441.96 323.396 1437.92 325.047 1436.25 328.028C1427.63 343.378 1428.74 345.472 1449.97 356.46ZM1670.65 1787.57C1664.84 1803.37 1674.3 1809.3 1702.67 1807.65C1702.65 1794.52 1692.62 1788.19 1670.65 1787.57ZM954.242 1878.93L958.355 1877.99C964.487 1883.51 970.669 1888.91 976.727 1894.58C982.785 1900.24 988.893 1906.6 994.951 1912.64C993.351 1895.09 971.58 1871.44 955.942 1866.46C955.326 1870.73 954.759 1874.94 954.242 1878.93ZM1360.59 2304.3C1358.82 2290.65 1360.13 2279.67 1344.44 2276.91C1334.59 2275.18 1325.67 2268.26 1316.34 2263.65L1315.18 2266.34L1360.59 2304.3ZM1307.3 290.332C1317.82 298.389 1317.89 298.463 1324.34 289.938C1328.04 285.535 1331.28 280.763 1334 275.697C1335.25 272.987 1334 269.045 1333.73 265.645C1329.96 266.557 1324.79 266.212 1322.67 268.602C1317.03 274.958 1312.69 282.497 1307.3 290.332ZM562.666 853.652H616.526C616.379 851.902 616.256 850.153 616.132 848.404C594.214 839.904 573.995 853.233 562.666 853.652ZM1335.38 298.586L1338.43 303.045C1343.18 301.247 1349.59 300.779 1352.32 297.354C1356.78 291.786 1358.87 284.321 1361.95 277.644C1357.59 277.052 1350.82 274.441 1349.32 276.215C1343.7 282.842 1339.86 290.973 1335.38 298.586ZM1359.49 309.895C1374.68 313.344 1388.47 301.074 1389.41 285.947C1369.41 281.019 1369.49 299.769 1359.49 309.895ZM1031.23 240.588C1016.45 237.114 1000.96 249.113 1002.14 259.042C1002.34 260.767 1009.7 263.822 1010.66 262.935C1017.36 256.652 1023.2 249.507 1031.23 240.588ZM425.689 776.092L431.057 779.319L462.063 723.86L456.621 720.854L425.689 776.092ZM1237.63 1716.1C1225.07 1695.43 1217.04 1689.76 1205.27 1693.24C1226.47 1719.72 1227.73 1720.68 1237.63 1716.1ZM1387.04 320.489C1401.82 325.983 1402.44 313.418 1407.39 307.973C1409.6 305.509 1408.99 300.582 1409.68 296.689C1405.15 298.093 1399.01 298.167 1396.43 301.222C1392.29 306.1 1390.52 312.901 1387.04 320.489ZM1680.11 1760.69L1672.06 1767.91C1679.67 1772.62 1687.08 1777.77 1695.04 1781.69C1696.34 1782.33 1699.96 1778.26 1702.57 1776.36L1680.11 1760.69ZM1677.65 1735.17C1676.37 1752.14 1680.9 1755.96 1699.81 1754.88C1701.64 1738.42 1687.94 1739.75 1677.7 1735.17H1677.65ZM1407.78 327.043C1408.3 328.644 1408.84 330.246 1409.36 331.97C1413.05 331.97 1418.94 333.399 1420.07 331.699C1424.37 324.504 1428.19 317.03 1431.5 309.328L1426.15 305.977L1407.78 327.043ZM957.444 1965.46C972.836 1949.32 972.762 1945.53 957.444 1935.3V1965.46ZM1699.3 1713.76L1680.97 1717.63L1699.3 1733.64V1713.76ZM1264.55 1692.62C1275.31 1704.64 1280.75 1704.52 1293.29 1692.62H1264.55ZM1693.39 1678.33C1682.62 1694.64 1683.53 1699.69 1697.65 1704.49C1696.93 1700.13 1696.27 1695.95 1695.58 1691.76C1694.89 1687.57 1694.35 1683.43 1693.48 1678.23L1693.39 1678.33ZM1238.2 1688.9C1236.69 1691.12 1235.19 1693.31 1233.71 1695.53L1255.26 1709.35L1258.81 1704.13L1238.2 1688.9Z" fill="#67DBD6"/>
<path d="M1499.2 401.104C1502.37 390.559 1508.75 391.249 1517.23 399.872C1532 414.852 1547.81 428.747 1563.08 443.21C1580.96 460.161 1585.74 481.99 1583.79 505.248C1580.91 539.544 1575.44 573.692 1573.57 608.037C1572.59 625.973 1577.59 644.156 1578.79 662.24C1581.01 695.698 1581.65 729.28 1584.38 762.689C1587.34 798.487 1592.02 834.138 1595.76 869.913C1598.82 899.034 1601.03 928.255 1604.6 957.303C1611.35 1012.52 1618.99 1067.66 1625.64 1122.87C1626.25 1128.04 1622.58 1133.73 1617.85 1138.69C1618.72 1141.9 1620 1144.99 1621.65 1147.88C1631.5 1160.98 1629.33 1170.27 1614.7 1177.91C1598.47 1186.34 1581.9 1182.84 1565.45 1179.09C1548.99 1175.35 1532.22 1170.49 1515.6 1166.23C1506.86 1163.97 1502.5 1159.33 1501.19 1149.48C1495.18 1104.37 1487.01 1059.5 1482.06 1014.27C1480.01 995.689 1485.01 976.447 1485.33 957.475C1486.05 912.339 1485.09 867.178 1486.32 821.967C1487.55 776.757 1490.68 731.941 1492.87 686.927C1496.86 605.45 1508.04 524.17 1499.3 442.323C1497.94 428.698 1499.2 414.876 1499.2 401.104ZM1606.87 1116.34L1610.56 1115.26C1607.51 1098.01 1603.84 1080.76 1601.52 1063.25C1594.48 1009.9 1586.06 956.687 1581.63 903.1C1574.24 812.63 1569.63 721.938 1563.28 631.369C1561.76 609.864 1558.93 588.471 1554.81 567.311C1552.17 553.883 1545.72 541.49 1524.69 541.071C1532.08 532.818 1538.9 527.89 1541.93 521.213C1549.31 504.41 1557.12 487.188 1560.47 469.351C1561.68 462.895 1551.14 453.755 1545.08 446.585C1537.69 437.913 1529.51 430.029 1521.68 421.8L1516.95 422.218C1515.72 429.61 1513.33 437.001 1513.48 444.392C1513.78 460.727 1515.94 477.013 1516.31 493.348C1517.96 547.683 1519.37 602.009 1520.55 656.327C1521.02 678.772 1521.14 701.291 1520.03 723.736C1518.21 761.58 1515.11 799.35 1512.82 837.07C1510.35 878.043 1508.16 919.065 1504.99 959.989C1504.25 969.647 1499.32 978.91 1497.6 988.568C1496.99 993.119 1498.12 997.731 1500.77 1001.48C1506.27 1008.55 1513.38 1014.31 1519.44 1020.97C1546.93 1051.17 1574.35 1081.44 1601.72 1111.78C1603.35 1113.4 1605.07 1114.92 1606.87 1116.34ZM1515.03 1150.83L1519.96 1150.69C1520.91 1148.18 1521.49 1145.55 1521.68 1142.88C1519.54 1115.77 1516.76 1088.67 1515.01 1061.4C1514.52 1054.43 1516.19 1047.3 1516.86 1040.26L1521.36 1038.46L1507.65 1033.04C1503.9 1025.03 1501.34 1019.51 1498.78 1013.99L1494.96 1015.6C1501.69 1060.62 1508.38 1105.66 1515.03 1150.73V1150.83ZM1537.96 1154.18L1543.11 1153.67C1543.64 1150.12 1543.9 1146.54 1543.9 1142.95C1542.35 1119.57 1540.94 1096.14 1538.8 1072.88C1537 1053.42 1536.58 1053.46 1527.42 1049.45C1530.89 1084.06 1534.44 1119 1537.91 1154.09L1537.96 1154.18ZM1562.59 1161.77C1565.72 1128.44 1562.42 1089.63 1554.86 1083.45C1556.26 1108.65 1557.54 1132.4 1558.97 1156.18C1559.12 1157.17 1560.37 1158.2 1562.66 1161.67L1562.59 1161.77ZM1575.12 1105.11V1163.18C1588.84 1157.44 1586.82 1117.23 1575.2 1104.98L1575.12 1105.11ZM1600.59 1137.13C1597.49 1162.76 1597.73 1163.13 1615.07 1159.31L1600.59 1137.13Z" fill="#67DBD6"/>
<path d="M343.679 871.465C318.781 882.478 303.044 911.403 307.92 935.326C308.462 938.086 308.955 941.683 310.826 943.235C325.135 954.962 320.677 965.113 311.294 978.27C295.311 1001.04 294.055 1027.96 293.094 1055.21C291.568 1099.22 288.341 1143.17 284.376 1187.03C281.421 1219.55 277.136 1252.02 271.718 1284.25C262.655 1338.25 251.105 1391.89 242.51 1445.99C234.186 1499.04 228.398 1552.48 221.429 1605.75C220.909 1611.96 219.762 1618.11 218.005 1624.1C216.749 1627.62 212.908 1630.21 210.248 1633.24C208.524 1629.42 204.854 1625.33 205.322 1621.86C208.647 1600.08 213.425 1578.5 216.749 1556.69C222.808 1516.83 227.783 1476.77 233.989 1436.93C239.087 1404.18 245.785 1371.71 250.932 1338.99C257.5 1296.8 263.665 1254.51 269.428 1212.13C274.624 1174.12 279.845 1136.05 283.416 1097.86C285.14 1079.36 282.185 1060.46 283.022 1041.81C284.376 1011.16 289.105 981.177 308.659 955.578C273.934 910.738 318.067 863.063 354.097 852.247C367.001 848.379 369.76 852.789 369.292 866.439C368.528 887.948 369.612 909.53 370.425 931.064C371.237 953.09 372.887 975.116 373.675 997.167C373.833 1001.03 372.811 1004.84 370.745 1008.11C351.043 1036.32 352.865 1069.28 352.2 1100.82C351.388 1141.13 355.032 1181.53 355.87 1221.89C356.732 1264.66 355.87 1307.48 357.052 1350.23C357.865 1379.79 361.657 1409.36 362.593 1439.12C364.317 1494.51 365.056 1549.99 365.942 1605.3C365.629 1610.51 364.93 1615.69 363.849 1620.8C345.846 1613.11 334.296 1627.55 319.938 1632.23C309.553 1636.06 299.531 1640.81 289.991 1646.42C266.645 1659.09 245.933 1653.47 226.403 1638.1C217.464 1631.07 223.005 1624.08 227.413 1618.04C243.47 1596.11 259.971 1574.48 276.372 1552.77C295.631 1527.55 312.599 1500.05 334.518 1477.53C355.303 1456.19 350.329 1433.33 347.792 1409.58C340.404 1340.86 331.095 1272.32 325.627 1203.48C321.81 1154.21 322.253 1104.59 322.894 1055.16C323.091 1039.94 330.282 1024.76 334.296 1009.61C336.143 1002.74 339.887 996.058 340.231 989.16C342.128 952.203 343.236 915.246 344.566 878.29C344.437 875.996 344.14 873.715 343.679 871.465ZM333.828 1494.56L338.754 1495.05C339.763 1505.72 341.463 1516.36 341.635 1527.08C342.005 1550.39 341.266 1573.69 341.906 1596.98C341.906 1600.3 347.275 1603.5 350.156 1606.83C352.619 1602.96 356.929 1599.17 357.101 1595.2C358.062 1574.16 358.456 1553.07 358.111 1532.01C357.815 1512.74 356.288 1493.47 355.303 1474.2L351.043 1472.97L333.828 1494.56ZM316.909 1618.71C329.223 1617.65 333.04 1614.69 332.351 1602.47C330.848 1575.93 332.769 1549.23 332.843 1522.59C332.843 1516.93 330.996 1511.24 330.011 1505.57L325.258 1504.73C320.899 1512.79 313.289 1520.65 312.944 1528.93C311.861 1547.33 314.397 1565.88 315.407 1584.43C315.875 1595.6 316.392 1606.83 316.909 1618.71ZM304.866 1539.86C292.848 1549.5 288.957 1622.08 298.118 1628.78L304.866 1626.32V1539.86ZM281.914 1566.47L266.448 1580.62C268.393 1590.94 270.413 1598.23 270.979 1605.67C271.546 1613.11 269.871 1620.04 270.585 1627.08C270.905 1630.33 274.525 1633.27 276.668 1636.32C278.417 1633.54 281.593 1630.8 281.593 1627.97C282.185 1608.85 281.914 1589.9 281.914 1566.47ZM259.749 1595.2L256.4 1594.07C253.37 1598.8 248.026 1603.38 247.755 1608.26C247.214 1617.97 249.332 1627.97 250.735 1637.63C250.908 1638.86 253.912 1640.88 254.848 1640.51C256.744 1639.8 259.453 1637.75 259.478 1636.17C259.749 1622.55 259.749 1608.85 259.749 1595.2Z" fill="#67DBD6"/>
</g>
</g>
<defs>
<clipPath id="clip0_32_2">
<rect width="2000" height="2000" fill="white"/>
</clipPath>
<clipPath id="clip1_32_2">
<rect width="1712" height="3211" fill="white" transform="translate(144)"/>
</clipPath>
</defs>
</svg>
