<svg width="696" height="1304" viewBox="0 0 696 1304" fill="none" xmlns="http://www.w3.org/2000/svg">
<g clip-path="url(#clip0_29_21)">
<path d="M340.33 1300.13C287.54 1304.13 234.79 1305.68 182.33 1296.53L182.43 1294.64C187.62 1295.37 192.79 1296.39 198.01 1296.77C214.89 1298 231.79 1298.97 248.68 1300.09C252.76 1300.36 256.84 1301.21 260.9 1301.09C276.26 1300.68 291.61 1299.86 306.96 1299.47C314.17 1299.28 321.4 1299.87 328.61 1299.8C332.67 1299.8 335.34 1298.8 331.73 1293.93C330.41 1292.17 330.4 1289.13 330.45 1286.69C330.74 1270.69 331.52 1254.69 331.55 1238.69C331.6 1215.3 330.86 1191.91 331.02 1168.52C331.18 1146.52 332.41 1124.44 332.51 1102.4C332.57 1088.01 331.24 1073.61 330.95 1059.21C330.72 1048.1 331.16 1036.98 331.24 1025.87C331.24 1023.79 331 1021.7 330.87 1019.72C312.27 1020.38 298.06 1011.93 285.71 1000.12C279.91 994.58 275.84 987.28 270.3 981.42C268.07 979.05 264.14 977.81 260.76 977.09C249.76 974.74 238.71 972.71 227.63 970.85C214.88 968.7 202.06 966.95 189.31 964.85C185.492 964.124 181.732 963.121 178.06 961.85C159.14 955.79 140.81 948.06 124.51 936.85C109.34 926.37 97.34 912.85 91.89 894.19C88.08 881.19 88.57 868.72 93.7 856.57C98.29 845.72 107.56 839.01 117.45 833.26C118.13 832.87 119.23 833.26 120.13 833.26L121.13 834.82C119.42 836.17 117.8 837.64 116 838.82C105 846.19 95.84 854.89 93.83 868.82C92.0683 881.1 94.4618 893.616 100.63 904.38C116.31 932.57 143.03 945.28 172.06 955.08C185.36 959.57 199.11 960.46 212.65 963.02C227.52 965.83 242.26 969.34 257.12 972.2C261.37 973.02 265.94 972.2 270.19 973C271.365 973.306 272.461 973.86 273.404 974.624C274.347 975.388 275.116 976.345 275.66 977.43C284.43 999.74 302.27 1010.52 324.25 1015.93C326.08 1016.38 329.91 1014.81 330.4 1013.37C331.4 1010.47 330.46 1007.37 326.4 1006.26C306.87 1000.77 293.19 987.84 285.72 969.72C282.45 961.8 278.08 961.43 271.85 961.25C258.05 960.87 244.11 961.5 230.48 959.77C216.225 957.831 202.147 954.758 188.38 950.58C174.6 946.58 160.38 942.43 148.03 935.39C129.03 924.55 112.73 909.7 106.16 887.83C103.56 879.19 103.73 869.28 104.68 860.16C105.43 852.97 111.75 848.33 118.33 845.22C119.5 844.67 121.09 845 123.05 846.29C121.886 847.376 120.646 848.379 119.34 849.29C109.45 855.2 107.34 864.29 108.17 874.98C109.37 890.71 117.37 902.75 127.57 913.98C139.25 926.82 153.78 934.89 170.11 939.64C188.78 945.07 207.63 949.97 226.54 954.5C232.9 956.02 239.7 955.79 246.31 956.16C256.02 956.69 265.75 957.16 275.48 957.37C278.22 957.37 280.99 956.37 284.93 955.65C292.04 977.05 304.24 995.18 329.19 1002.96C329.42 999.09 329.8 996.44 329.7 993.82C328.7 967.12 328.88 940.29 326.05 913.82C323.83 892.97 313.68 874.82 298.95 859.21C287.1 846.67 274.51 835.21 260.07 825.84C251.07 820.04 241.68 814.96 232.45 809.58C225.08 805.28 217.83 800.72 210.24 796.83C202.13 792.67 193.69 789.15 185.37 785.4C181.48 783.64 177.68 781.55 173.62 780.4C159.14 776.18 144.57 772.29 128.35 767.81C128.35 778.25 128.35 787.1 128.35 795.96C128.437 813.34 128.567 830.72 128.74 848.1C128.74 850.43 129.47 852.81 129.17 855.1C128.84 857.63 127.72 860.1 126.94 862.54L124.65 862.07V766.71C112.93 765.71 103.04 761.53 93.91 755.28C86.91 750.51 83.63 739.97 87.01 732.18C97.65 707.6 102.01 681.97 101.21 655.18C100.29 623.78 100.29 592.36 99.58 560.96C98.66 520.8 97.3 480.65 96.4 440.49C96.19 430.77 99 421.92 107.71 416.11C112.24 413.11 112.3 409.67 110.27 404.79C107.85 398.99 106.43 392.71 105.07 386.53C103.539 379.811 102.393 373.01 101.64 366.16C99.84 348.16 104.53 331 109.97 314.04L108.33 314.32C107.33 310.66 105.43 307 105.49 303.32C105.88 279.32 106.88 255.32 107.31 231.38C107.64 212.74 124.37 195.15 139.5 189.79C147.37 187 155.5 184.91 163.44 182.31C165.042 181.771 166.439 180.751 167.44 179.39C183.08 156.79 199.09 134.39 214.05 111.39C232.72 82.61 250.35 53.16 268.74 24.19C273.84 16.19 279.94 8.76998 285.74 1.23998C286.45 0.329978 289.26 -0.360022 289.64 0.0899775C293 3.99998 296.44 0.719977 299.78 0.699978C305.19 0.699978 310.67 -0.100022 316 0.479978C332.293 2.25998 348.543 4.33664 364.75 6.70998C371.85 7.70998 378.8 9.82998 385.83 11.35C418.02 18.35 449.03 28.72 477.78 44.86C497.09 55.7 516.6 66.45 532.49 82.44C536.01 85.98 537.89 89.44 537.95 94.65C538.11 108.08 538.95 121.51 539.46 134.94C539.46 135.99 539.25 137.86 538.76 138C532.52 139.75 534.17 145.09 534.16 149C534.16 158 534.76 166.94 535.45 175.89C535.72 178.572 536.54 181.17 537.86 183.52C543.41 193.6 543.19 204.64 542.86 215.46C542.31 231.53 540.45 247.55 539.64 263.61C538.41 287.78 537.48 311.96 536.64 336.15C535.84 358.91 534.97 381.68 534.77 404.45C534.58 425.26 534.98 446.09 535.65 466.89C535.94 476.14 537.52 485.35 538.5 494.57C538.593 495.534 538.617 496.503 538.57 497.47C538.15 509.05 538.23 508.86 548.72 513.4C560.16 518.34 572.14 522.55 582.58 529.15C595.681 537.6 608.105 547.055 619.74 557.43C637.21 572.71 653.16 589.55 665.74 609.31C673.694 622.071 679.299 636.154 682.29 650.89C689.5 684.55 692.6 718.69 693.86 753.02C694.62 773.84 695.13 794.69 695.21 815.53C695.29 837.12 694.82 858.72 694.4 880.32C694.05 898.25 693.82 916.2 692.82 934.11C691.89 950.65 689.94 967.11 688.6 983.64C688.21 988.48 688.5 993.36 688.2 998.2C687.45 1010.03 686.51 1021.85 685.73 1033.68C685.53 1036.68 678.73 1043.54 675.58 1043.83C665.11 1044.76 654.58 1045.34 644.21 1046.83C628.39 1049.03 612.28 1050.46 596.98 1054.68C567.75 1062.75 538.41 1070.97 512.18 1087.14C490.25 1100.66 469.18 1115.45 450.27 1132.87C431.65 1149.98 413.01 1167.18 398.06 1187.87C388.63 1200.87 378.21 1213.28 369.75 1226.87C361.96 1239.41 355.9 1253.08 349.64 1266.51C346.2 1273.88 343.75 1281.73 341.22 1289.51C340.31 1292.29 340.47 1295.43 340.14 1298.4C340.16 1298.93 340.25 1299.53 340.33 1300.13ZM306.54 94.13C316.21 94.26 325.88 94.55 335.54 94.45C340.2 94.45 344.84 93.31 349.54 93.2C365.93 92.82 382.32 92.38 398.7 92.55C406.7 92.64 412.04 89.2 415.98 82.93C418.419 79.0056 420.581 74.9156 422.45 70.69C426.54 61.57 429.45 52.24 426.65 42.01C423.75 31.55 420.54 21.52 407.29 20.39C407.1 20.39 406.93 20.21 406.75 20.17C394.67 17.17 382.75 13.49 370.48 11.49C351.87 8.48998 333.07 6.65998 314.35 4.27998C301 2.58998 298 5.28998 299.17 18.81C300.65 35.28 302.42 51.71 304.07 68.16C304.943 76.86 305.823 85.57 306.71 94.29C305.33 95.57 303.54 96.62 302.63 98.17C299.14 104.17 296.21 110.58 292.54 116.5C284.17 130.05 275.49 143.4 266.93 156.83L253.35 178.17C260.73 179.61 262.35 179.17 266.96 171.48C280.22 149.32 293.22 127.013 305.96 104.56C307.52 101.85 306.42 97.65 306.54 94.14V94.13ZM528.54 190.76C526.88 189.76 525.22 187.93 523.54 187.94C507.613 188.1 491.683 188.433 475.75 188.94C458.33 189.55 440.92 190.44 423.51 191.26C422.244 191.435 420.993 191.71 419.77 192.08C426.4 201.77 430.96 204.01 441.84 203.65C448.26 203.44 454.76 204.08 461.1 203.33C466.32 202.72 471.37 200.64 476.49 199.21L476.06 197.59C475.11 197.59 474.17 197.44 473.22 197.46C460.22 197.77 447.22 198.15 434.22 198.34C432.85 198.34 431.47 197.34 430.1 196.76L430.52 195.17C432.78 194.9 435.05 194.46 437.32 194.38C451.93 193.89 466.54 193.5 481.15 193.02C485.99 192.86 490.84 192.57 495.68 192.26C500.52 191.95 505.38 191.43 510.24 191.19C516.37 190.89 522.5 190.77 528.63 190.58C526.97 191.58 525.25 193.58 523.63 193.44C511.02 192.74 499.7 198 487.91 200.93C475.7 203.93 463.61 207.53 451.5 210.93C450.45 211.23 448.85 212.15 448.77 212.93C448.33 217.09 445.98 215.99 443.85 214.82C430.97 207.74 418.15 200.54 405.27 193.45C402.49 191.93 399.55 190.71 396.77 189.39C395.77 206.34 394.56 222.67 394.07 239.02C393.52 257.15 393.61 275.31 393.56 293.46C393.56 295.46 393.76 298.32 395.03 299.38C401.12 304.47 407.55 309.19 414.03 313.83C418.55 317.08 423.65 319.59 427.9 323.13C445.41 337.74 448.45 364.13 434.58 381.92C431.26 386.18 427.96 391.45 421.58 391.65C414.22 391.89 406.83 391.81 399.48 391.53C395.17 391.37 394.26 389.45 396.54 385.35C402.54 374.67 404.39 363.3 399.78 351.62C398.47 348.3 395.73 345.54 393.1 341.73C383.78 355.49 375.56 367.68 376.98 383.73C377.33 387.63 375.65 391.85 370.76 391.98C359.26 392.287 347.753 392.317 336.24 392.07C326.99 391.86 326.02 392.32 324.24 401.28C324.085 402.636 324.085 404.004 324.24 405.36C324.65 415.87 325.36 426.36 325.42 436.89C325.42 445.47 324.57 454.05 324.42 462.64C324.22 472.69 324.42 482.76 324.42 492.98C328.57 492.64 332.2 492.09 335.82 492.09C348.49 492.09 361.19 492.86 373.82 492.37C392.176 491.573 410.544 493.665 428.25 498.57C431.383 499.375 434.297 500.871 436.778 502.947C439.259 505.023 441.245 507.628 442.59 510.57C440.23 510.09 438.39 508.62 436.31 508.05C417.86 503.05 398.93 502.19 379.99 502.61C361.36 503.02 342.75 504.36 323.86 505.31V515C329.03 514.38 333.63 513.4 338.25 513.34C354.96 513.13 371.68 512.96 388.39 513.34C400.39 513.59 412.39 514.34 424.29 515.52C436.58 516.77 446.14 523.26 452.09 534C453.56 536.65 452.4 541 451.64 544.47C451.39 545.58 448.58 546.82 446.94 546.81C436.85 546.75 426.75 546.15 416.65 546.11C386.13 546 355.65 546.11 324.43 546.11V552.5C324.43 566.5 324.28 580.5 324.43 594.56C324.67 614.44 325.11 634.32 325.53 654.19C325.62 658.48 326.14 662.77 326.06 667.06C326.06 668.65 324.84 670.22 324.18 671.81C323.4 670.15 321.77 668.37 322 666.87C322.9 660.87 320.31 659.71 314.81 659.87C298.11 660.38 281.38 660.37 264.67 660.53C250.28 660.67 235.9 660.83 221.51 660.88C209.51 660.88 197.51 661.1 185.51 660.55C184.02 660.331 182.601 659.772 181.362 658.915C180.124 658.058 179.1 656.927 178.37 655.61C177.15 652.67 174.77 649.4 178.04 645.19C183.28 638.42 189.16 633.71 197.73 632.1C209.73 629.84 221.61 625.21 233.63 624.87C259.63 624.14 285.78 625.47 311.85 626C314.47 626.06 317.07 626.43 321.57 626.82C319.57 622.82 318.82 618.61 316.82 617.9C312.37 616.33 307.3 616.27 302.47 616.05C287.53 615.36 272.58 614.62 257.63 614.4C244.06 614.2 230.32 611.95 217 616.79C215.483 617.155 213.908 617.21 212.37 616.95C203.58 616.25 195.5 617.95 188.37 623.5C187.48 624.19 186.15 624.32 184.13 625.01C187.66 616.01 195.51 613.81 201.9 610.46C206.33 608.14 212.07 607.77 217.27 607.56C243.13 606.56 269.01 605.65 294.89 605.11C302.97 604.94 311.06 606.03 319.46 606.56V546.92H287.73C288.12 537.92 288.73 529.99 288.73 522.07C288.67 512.84 283.01 506.77 276.2 501.48C261.69 513.28 258.06 528.35 261.14 545.68C262.07 550.89 260.24 553.09 255.14 552.75C244.82 552.07 234.5 551.46 224.2 550.63C219.02 550.2 211.82 551.15 209.2 548.22C206.02 544.59 206.43 537.61 205.76 532.02C203.76 515.02 211.96 501.41 221.28 488.58C227.07 480.58 234.62 473.92 240.82 466.21C243.71 462.61 246.96 458.01 247.12 453.75C247.85 434.47 247.54 415.15 247.58 395.84C247.58 387.91 247.58 379.98 247.58 372.05L245.32 371.95C243.65 379.29 242.13 386.67 240.26 393.95C238.91 399.23 237.62 405.68 231.64 406.95C218.34 409.73 204.84 412.19 191.31 413.13C179.92 413.92 168.37 412.31 156.89 411.92C154.19 411.82 151.47 412.4 148.75 412.52C146.31 412.63 143.75 412.95 141.45 412.46C133.187 410.893 125.532 407.032 119.36 401.32C117.44 399.51 114.85 398.42 112.56 397.01L111.24 398.35C112.13 400.14 112.91 402 113.93 403.71C118.61 411.71 118.67 414.05 111.31 419.42C103.79 424.91 101.58 432.42 101.31 440.79C101.06 450.15 101.31 459.53 101.61 468.89C102.61 504.38 103.89 539.89 104.72 575.34C105.45 606.15 106 636.98 106.04 667.79C106.04 678.26 106.12 689.36 102.88 699.08C96.22 719.08 110.06 748.86 131.62 757.91C159.34 769.55 188.22 769.85 217.17 771.19C229.63 771.77 242.17 771.12 254.61 771.81C272.69 772.81 290.75 774.38 308.79 775.99C313.43 776.4 317.97 777.87 322.56 778.86C322.43 779.69 322.29 780.52 322.16 781.35L305.75 782.35L323.69 796.13L325.31 795.33C324.11 757.183 322.91 719.03 321.71 680.87C325.9 680.87 330.56 681.09 335.19 680.87C343.25 680.41 351.3 679.13 359.35 679.2C367.57 679.28 375.81 681.42 383.99 681.2C411.99 680.34 440.05 678.73 468.08 677.62C476.37 677.29 484.7 677.88 493 677.68C501.5 677.48 510.11 679.4 518.06 673.34C524.205 668.61 529.075 662.424 532.23 655.34C539.65 639.68 538.23 623.34 536.59 607.06C535.59 597.12 532.59 587.39 531.46 577.46C529.56 560.7 528.27 543.86 527.01 527.04C525.53 507.04 524.01 487.11 523.15 467.11C522.59 454.47 522.72 441.75 523.27 429.11C524.1 409.73 525.62 390.38 526.72 371.01C527.26 361.4 527.07 351.74 528 342.17C529.58 325.89 532.13 309.7 533.65 293.42C535.737 270.92 537.493 248.39 538.92 225.83C539.69 213.624 538.608 201.372 535.71 189.49L528.54 190.76ZM576.4 918.61C576.04 924.46 575.64 929.76 575.4 935.06C574.4 957.47 573.12 979.88 572.7 1002.3C572.77 1007.55 574.41 1012.66 577.41 1016.97C583.41 1025.4 592.79 1029.1 602.62 1031.5C625.84 1037.16 649.46 1036.39 673.05 1035.81C679.29 1035.66 681.24 1033.57 681.63 1027.35C682.73 1009.9 683.72 992.45 684.93 975.01C686.18 957.2 687.93 939.41 688.93 921.58C689.71 907 689.62 892.38 689.93 877.78C690.09 870.57 690.44 863.37 690.41 856.16C690.33 835.7 690.163 815.233 689.91 794.76C689.77 781.76 689.76 768.68 689.23 755.66C688.74 743.39 687.82 731.13 686.75 718.9C685.57 705.37 684.37 691.82 682.49 678.37C681.005 668.561 679.002 658.838 676.49 649.24C671.9 630.88 664.11 613.92 651.84 599.39C642.84 588.71 633.35 578.39 623.71 568.25C618.161 562.225 612.094 556.697 605.58 551.73C592.14 541.85 578.89 531.58 562.91 525.73C555.4 522.96 548.31 519.1 541.03 515.73L539.26 517.12C542.01 538.45 544.5 559.82 547.59 581.12C550.25 599.43 553.69 617.62 556.59 635.91C557.74 643.27 555.93 649.91 550 654.91C539.627 663.743 529.223 672.54 518.79 681.3C518.29 681.72 517.14 681.3 516.53 681.67C514.09 683.17 510.95 684.31 509.53 686.52C504.15 694.81 501.53 704.15 500.88 714.02C500.38 721.413 499.837 728.8 499.25 736.18C498.83 741.47 498.3 746.75 497.97 750.32C503.63 753.11 508.11 754.87 512.12 757.32C521.41 763.13 522.05 781.61 517.82 791.32C507.3 815.51 488.74 831.18 465.45 842.32C450.94 849.25 435.26 851.32 419.85 854.54C410.04 856.61 400.16 858.37 388.85 860.54C390.417 861.961 392.06 863.296 393.77 864.54C403.53 870.61 413.58 876.24 423.06 882.7C446.45 898.63 471.48 911.53 497.06 923.36C506.75 927.84 516.2 933.58 527.21 932.92C527.78 941.66 528.21 949.62 528.86 957.56C529.14 961.14 528.92 965.15 530.5 968.14C532.41 971.73 535.98 974.44 539.77 978.55C540.105 977.108 540.339 975.645 540.47 974.17C539.81 961.54 539.23 948.9 538.24 936.29C538.15 935.07 535.67 933.62 534.03 933.02C530.65 931.79 527.03 931.02 522.41 929.81C524.33 928.49 524.62 928.13 524.93 928.12C525.708 928.087 526.488 928.124 527.26 928.23C536.42 929.23 544.15 925.59 551.13 920.39C566.93 908.61 574.96 891.81 579.73 873.39C583.96 857.01 587.21 840.39 591.02 823.87C598.77 790.28 606.67 756.72 614.36 723.12C617.18 710.79 619.36 698.3 622.3 686.01C623.66 680.38 626.21 675.01 628.44 669.62C628.73 668.92 630.31 668.76 632.02 668.05C633.13 673.69 634.64 678.76 635.02 683.91C636.02 697.5 636.65 711.13 637.32 724.75C637.66 731.75 637.72 738.8 638.04 745.81C638.61 758.08 639.53 770.33 639.83 782.6C640.37 804.42 640.37 826.26 640.95 848.07C641.6 872.56 642.95 897.07 643.15 921.52C643.15 925.29 638.93 931.65 635.66 932.39C626.28 934.51 616.28 934.77 606.94 931.22C597 927.53 587.38 923.2 576.4 918.61ZM336 1030.9V1286.09C337.38 1283.47 338.12 1282.18 338.75 1280.84C346.03 1265.3 352.54 1249.35 360.75 1234.3C372.6 1212.5 386.75 1192.08 404.14 1174.23C421.27 1156.67 438.35 1139.02 456.22 1122.23C465.56 1113.46 476.59 1106.52 486.79 1098.68C501.57 1087.34 517.45 1077.55 534.62 1070.68C564.33 1058.8 594.62 1048.53 626.91 1045.68C632.3 1045.22 637.58 1043.4 642.91 1042.21C634.09 1040.38 625.58 1039.68 617.17 1038.35C609.9 1037.19 602.81 1034.47 595.53 1033.91C576.08 1032.41 556.53 1031.15 537.08 1030.79C504.9 1030.2 472.69 1030.33 440.5 1030.26C407.547 1030.18 374.597 1030.18 341.65 1030.26C340.07 1030.3 338.55 1030.62 336 1030.9ZM336.09 1025.18C412.09 1021.97 487.3 1021.52 563.63 1014.95C558.82 1008.8 554.77 1004.29 551.49 999.29C537.61 978.14 518.74 961.78 499.82 945.54C488.48 935.81 476.65 926.54 464.47 917.89C446.78 905.3 428.67 893.3 410.57 881.31C401.04 874.99 391.15 869.21 381.33 863.14C380.76 865.34 380.26 867.59 379.58 869.79C372.68 892.07 358.08 906.35 335.23 911.5C330.93 912.5 330.95 914.96 331.06 917.77C331.33 924.95 332.06 932.11 332.37 939.29C333.13 956.75 333.71 974.22 334.44 991.68C334.86 1002.71 335.47 1013.74 336 1025.18H336.09ZM330.4 889.43C339.07 887.78 343.13 882.28 346.8 876.61C353.43 866.38 351.69 855.24 349.38 844.27C348.27 839 349.91 837.04 355.12 836.97C363.12 836.88 371.12 836.76 379.12 836.12C400.2 834.44 420.6 829.71 440.89 823.59C459.76 817.91 474.89 807.65 487.79 793.29C488.626 792.275 489.092 791.005 489.11 789.69C489 778.61 488.37 767.52 488.63 756.44C489.18 733.3 490.17 710.17 490.94 687.03C490.94 686.58 490.44 686.11 489.66 684.76C476.84 689.76 463.66 693.88 451.28 699.83C438.002 706.387 425.129 713.734 412.73 721.83C401.93 728.74 390.89 735.83 381.79 744.7C368.123 758.285 355.245 772.642 343.22 787.7C333.57 799.58 328.27 813.45 329.36 829.43C330.28 842.84 330.16 856.33 330.41 869.78C330.45 876 330.35 882.2 330.35 889.43H330.4ZM259.82 184C250.82 183.35 242.71 182.21 234.66 182.33C222.55 182.51 210.45 184.13 198.34 184.15C178.09 184.15 158.34 186.15 139.65 194.61C124.39 201.48 113.73 212.9 112.37 229.61C110.43 253.61 110.49 277.82 109.79 301.94C109.72 304.09 110.39 306.27 110.92 309.79L112.92 306.59C113.65 305.43 114.44 304.31 115.06 303.1C124.86 283.97 139.64 271.83 161.61 269.56C176.9 267.98 192.18 266.25 207.45 264.56C209.28 264.35 211.89 264.28 212.73 263.13C216.81 257.49 220.61 251.63 224.13 245.63C232.39 231.53 240.42 217.3 248.58 203.15C252.25 196.88 256 190.62 259.82 184ZM218 263.22C230 263.22 240.08 263.51 250.16 263.16C268.26 262.53 286.34 261.36 304.43 260.73C311.69 260.48 318.27 254.26 317.61 247.06C316.26 232.34 314.98 217.61 313.22 202.93C309.78 174.089 308.45 145.035 309.24 116C309.24 114.63 308.76 113.24 308.18 110.19L218 263.22ZM252.89 452.83C259.89 445.14 266.09 438.49 272.1 431.7C282.83 419.59 292.67 406.56 304.37 395.5C312.81 387.5 316.57 380.1 315.87 368.01C314.1 337.71 314.34 307.29 313.74 276.91C313.67 273.46 313.34 270.01 313.08 265.65C312.27 266.272 311.52 266.969 310.84 267.73C304.03 279.06 297.39 290.5 290.43 301.73C278.57 320.88 266.43 339.89 254.58 359.02C253.4 360.91 252.27 363.25 252.28 365.38C252.33 382.49 252.71 399.6 252.87 416.71C252.93 428.17 252.84 439.62 252.84 452.83H252.89ZM251.66 547.35C249.32 544.08 248.21 542.52 247.08 540.97C240.13 531.37 238.87 516.2 245.67 507.32C258.28 490.87 275.67 487.25 288.57 507.56C294.97 517.61 295.03 529.25 292.47 541.71H319.41V409.05C315.93 411.68 313.41 413.05 311.61 415.05C303.3 424.05 295.46 433.53 286.94 442.34C272.73 457.04 257.82 471.08 243.78 485.93C231.72 498.69 220.56 512.32 215.13 529.47C213.94 533.25 213.86 537.47 213.89 541.47C213.89 544.47 215.64 545.95 219.25 545.97C226.65 545.97 234.04 546.88 241.44 547.3C244.2 547.48 247 547.35 251.61 547.35H251.66ZM353.13 842.86C353.77 846.24 354.2 849.47 354.99 852.6C358.83 867.78 351.14 888.81 333.77 894.67C328.25 896.53 331.22 901.29 331.5 904.73C331.56 905.47 335.72 906.91 337.43 906.33C358 899.47 373.43 883.56 376.68 859.98C376.89 858.44 379.42 856.37 381.16 855.98C396.16 852.98 411.39 850.88 426.27 847.32C440.32 843.97 454.44 840.17 467.75 834.67C477.09 830.82 485.61 824.41 493.61 818.04C503.61 810.04 509.85 798.94 513.47 786.91C517.47 773.55 515.01 758.8 497.47 756.45V789.1C487.019 805.012 472.117 817.498 454.62 825C435.77 833.06 415.62 837.31 395.15 839.37C381.59 840.72 368 841.64 353.13 842.86ZM321.23 631.92C313.56 631.42 307.17 630.53 300.79 630.66C282.7 631.04 264.59 631.51 246.53 632.57C229.6 633.57 212.85 636.2 196.65 641.49C193.54 642.49 190.2 643.66 187.75 645.71C185.3 647.76 183.7 651.07 181.75 653.83C184.54 655.14 187.3 656.51 190.13 657.76C191.022 658.163 191.992 658.364 192.97 658.35C212.42 657.68 231.86 656.94 251.31 656.26C259.85 655.96 268.39 655.56 276.93 655.53C290.35 655.53 303.76 655.69 317.18 655.84C320.08 655.84 321.4 654.84 321.3 651.71C321.1 645.33 321.23 638.94 321.23 631.92ZM444 541.38L444.9 538.81C440.05 534.91 435.7 529.97 430.23 527.37C423.691 524.298 416.678 522.357 409.49 521.63C389.77 519.677 369.997 518.263 350.17 517.39C341.52 516.99 332.8 518.39 324.24 518.9V541.81C364.63 542.84 404.32 542 444 541.38ZM296.12 44.08L213.71 178.41C221.54 179.83 222.43 179.79 225.81 174.62C231.45 166 236.69 157.11 242.09 148.33C256.03 125.65 269.91 102.93 283.94 80.33C287.62 74.4 291.25 68.33 295.83 63.13C300.41 57.93 301.36 51.62 296.12 44.08ZM321.85 879.43C326.17 878.27 328.3 870.43 324.28 866.65C314.28 857.16 304.41 847.44 293.77 838.65C271.47 820.27 248.63 802.54 226.18 784.35C220.11 779.43 213.7 777.35 205.18 778.98C211.11 783.81 216.26 788.16 221.59 792.3C229.59 798.56 237.79 804.7 245.95 810.83C260.95 822.14 276.82 832.5 290.83 844.95C302.25 855.08 311.44 867.66 321.85 879.43ZM323.19 274.73C321.53 279.34 321.56 282.19 325.59 284.84C339.197 293.793 352.667 302.98 366 312.4C381.16 323.17 396.05 334.33 411.06 345.32L426.06 356.32L428.23 354.42C425.98 350.61 424.38 346.14 421.34 343.11C415.344 337.351 409.027 331.936 402.42 326.89C395.95 321.75 389.34 316.74 382.49 312.11C377.27 308.59 371.4 306.03 366.14 302.57C354.61 294.98 343.32 287.04 331.85 279.37C329.044 277.677 326.154 276.128 323.19 274.73ZM294.37 11.73C278.19 40.55 258.82 66.73 241.94 94.47C224.83 122.59 207.3 150.47 189.94 178.47L191.29 179.96C192.81 179.02 194.78 178.42 195.77 177.08C201.21 169.73 206.7 162.39 211.64 154.7C222.75 137.39 233.57 119.9 244.45 102.44C250.4 92.89 256.17 83.23 262.15 73.69C268.74 63.15 274.92 52.28 282.36 42.36C286.5 36.86 287.46 28.73 295.11 25.89C295.62 25.7 295.91 24.14 295.82 23.27C295.45 19.45 294.89 15.67 294.37 11.73ZM296.37 29.73C261.64 77.65 232.72 128.59 201.67 178.95L208.53 180.07C209.53 177.61 210.01 175.51 211.11 173.8C214.99 167.8 219.29 162.02 223.04 155.91C236.92 133.37 250.5 110.64 264.46 88.14C273.59 73.43 283.12 58.97 292.65 44.52C293.65 43.02 295.87 42.34 298.17 40.86C297.66 37.46 297 33.57 296.4 29.68L296.37 29.73ZM325.68 860.73C325.96 854.86 326.42 850.41 321.97 846.64C311.15 837.49 300.77 827.82 289.9 818.75C279.47 810.04 268.73 801.75 257.9 793.44C253.15 789.8 247.53 787.24 243.05 783.32C238.33 779.2 233.94 777.49 228.12 779.32L325.68 860.73ZM298.23 65C273.8 102.84 250.68 140.1 228.3 179.2C233.12 179.06 236.62 180.59 239.03 175.93C241.23 171.68 244.59 168.05 247.1 163.93C264.473 135.61 281.807 107.26 299.1 78.88C301.52 74.88 302.1 71 298.23 65ZM331.05 263L333.05 262.59C333.12 261.17 333.3 259.74 333.26 258.32C332.89 245.08 332.45 231.84 332.09 218.59C331.56 198.7 330.96 178.81 330.63 158.92C330.42 146.04 330.63 133.16 330.63 120.28C330.63 115.74 331.08 110.91 323.94 111.21C323.619 112.125 323.408 113.075 323.31 114.04C323.82 142.71 324.03 171.39 325.03 200.04C325.67 218.33 327.43 236.59 328.87 254.86C329.11 257.66 330.31 260.33 331.05 263ZM379.05 145.39L376.92 145.75C376.5 147.129 376.212 148.546 376.06 149.98C375.68 177.65 375.41 205.32 374.99 232.98C374.77 247.6 374.32 262.22 373.94 276.84C373.69 286.05 375.25 288.68 382.03 289.66C382.03 280.48 381.94 271.35 382.03 262.22C382.29 242.33 382.81 222.44 382.93 202.55C383.02 187.93 382.93 173.29 382.35 158.69C382.21 154.27 380.22 149.86 379.06 145.43L379.05 145.39ZM421.31 337.03L422.88 336.03C421.53 332.92 420.63 329.5 418.75 326.75C410.7 314.91 399.12 306.64 387.31 299.38C367.45 287.19 346.68 276.47 326.23 265.23C325.35 264.75 323.92 265.23 322.74 265.33C323.09 266.52 323.07 268.14 323.86 268.8C325.78 270.41 328.12 271.51 330.23 272.92C345.53 283.18 360.9 293.33 376.07 303.78C386.42 310.91 396.51 318.43 406.65 325.87C411.62 329.5 416.44 333.33 421.32 337.07L421.31 337.03ZM349.18 272.6L351.85 271.83C351.85 266.44 351.85 261.05 351.85 255.66C352.01 237.36 352.3 219.06 352.32 200.77C352.32 189.68 351.78 178.6 351.77 167.51C351.77 155.27 352.07 143.04 352.32 130.8C352.4 126.8 350.79 124.56 346.08 124.07C345.627 125.443 345.322 126.862 345.17 128.3C345.23 146.77 345.38 165.23 345.48 183.7C345.58 202.17 345.55 220.7 345.75 239.15C345.85 248.67 346.19 258.15 346.75 267.69C346.82 269.41 348.33 271 349.19 272.64L349.18 272.6ZM358.18 277.8L360.5 277.09C360.28 272.35 359.7 267.6 359.91 262.88C360.55 247.98 361.91 233.11 362.23 218.21C362.75 195.91 362.71 173.59 362.83 151.29C362.97 146.435 362.763 141.576 362.21 136.75C361.93 134.75 359.89 132.94 358.65 131.05L355.96 131.95C355.96 140.76 355.96 149.57 355.96 158.38C355.96 176.1 356.06 193.83 356.07 211.55C356.07 232.17 356.01 252.78 356.13 273.4C356.12 274.91 357.45 276.37 358.16 277.84L358.18 277.8ZM287.18 277.47L285.51 275C282.17 276.32 277.67 276.7 275.69 279.13C267.75 288.91 260.49 299.25 253.16 309.52C245.593 320.12 238.163 330.81 230.87 341.59C229.5 343.59 227.56 347.1 228.35 348.3C229.74 350.42 233.03 352.38 235.5 352.35C237.39 352.35 239.66 349.41 241.04 347.35C248.58 335.82 255.75 324.06 263.33 312.56C271.1 300.73 279.19 289.17 287.15 277.51L287.18 277.47ZM572.61 905.47C568.94 909.37 564.61 913.78 560.54 918.47C559.262 919.904 558.462 921.701 558.25 923.61C557.83 929.436 557.83 935.284 558.25 941.11C559.98 959.11 562.11 977.11 564.07 995.06C564.75 1001.25 565.38 1007.43 566.07 1013.6C566.47 1013.6 567.19 1013.6 567.19 1013.6C569 977.31 570.79 941 572.58 905.52L572.61 905.47ZM339.61 267.21L342.36 266.58C342.36 264.15 342.42 261.72 342.36 259.3C341.98 247.05 341.36 234.82 341.2 222.57C341.11 216.57 341.98 210.57 341.99 204.5C341.99 191.64 341.69 178.79 341.58 165.93C341.46 152.08 341.42 138.23 341.34 124.38C341.34 120.55 339.93 118.02 334.34 118.12C334.34 124.25 334.22 130.26 334.34 136.26C334.9 160.07 335.55 183.87 336.16 207.68C336.62 225.41 337.01 243.14 337.61 260.87C337.74 263.05 339 265.15 339.63 267.26L339.61 267.21ZM367.94 138.21C367.3 140.64 366.8 141.69 366.78 142.75C366.48 154.43 366.11 166.11 366.03 177.75C365.94 192.09 366.38 206.43 366.09 220.75C365.71 239.39 364.87 258.03 364.15 276.67C363.99 280.81 365.79 282.67 370.5 282.83C370.5 280.26 370.5 277.96 370.5 275.65C370.5 266.3 370.36 256.94 370.64 247.65C371.04 234.04 372 220.44 372.27 206.83C372.63 189.11 372.82 171.37 372.44 153.65C372.36 148.91 373.52 143.16 368 138.22L367.94 138.21ZM637.65 922.54L639.12 920.63C637.31 918.7 635.85 915.76 633.64 914.99C616.05 908.87 598.32 903.16 580.14 897.16C578.68 902.8 575.07 908.48 579.52 911.61C588.36 917.82 597.94 923.51 608.02 927.28C617.18 930.645 627.176 930.995 636.55 928.28C617.95 920.38 598.14 918.66 580.44 910.76C580.71 909.76 580.97 908.86 581.23 907.92C590.89 908.51 599.84 912.6 609.13 915.03C618.643 917.517 628.15 920.02 637.65 922.54ZM238.59 384.41C239.53 378.3 237.91 377.17 230.59 377.41C204.92 378.41 179.26 379.31 153.59 380.34C143.69 380.73 133.77 381.2 123.9 382.08C121.97 382.25 120.22 384.48 118.39 385.76C120.23 386.56 122.09 388.08 123.92 388.04C137.73 387.8 151.54 387.25 165.35 386.79L238.59 384.41ZM300 277C295.2 274.57 292.21 276.4 290 279.81C285 287.64 280.36 295.72 275.21 303.46C265.05 318.7 254.58 333.72 244.37 348.93C239.57 356.09 239.92 356.83 248.29 360.51C265.48 332.77 282.64 305.06 300 277ZM121.4 393.7L120.97 395.7C125.47 397.25 129.97 400.04 134.48 400.11C147.7 400.32 160.94 399.5 174.17 398.98C192.47 398.27 210.76 397.08 229.06 396.93C235.25 396.87 237.18 395 236.55 388.65L121.4 393.7ZM272.15 277.47C263.32 274.35 260.53 275.19 256.56 281.25C251.34 289.19 246.38 297.32 240.9 305.07C232.43 317.07 223.61 328.8 214.72 340.94L222.35 346.31L272.15 277.47ZM203.26 334.93C210.16 339.67 210.32 339.8 215.09 333.78C218.82 329.08 222.09 323.99 225.55 319.1C233.55 307.9 241.64 296.78 249.49 285.49C251.26 282.95 252.22 279.85 253.68 276.73C246.39 274.81 241.35 275.6 237.68 281.8C233.55 288.8 228.83 295.5 224.39 302.34C217.35 313.2 210.307 324.063 203.26 334.93ZM324.16 258C324.492 256.233 324.703 254.446 324.79 252.65C323.64 232.07 322.34 211.49 321.28 190.89C320.48 175.33 319.88 159.75 319.37 144.17C319.02 133.46 319.04 122.75 318.77 112.04C318.69 108.4 317.68 105.22 313.23 104.61C310.13 124.66 318.38 246.09 324.16 258ZM240.88 366.83C234.88 367.11 229.78 367.36 224.7 367.58C202.7 368.58 180.78 369.58 158.81 370.45C147.55 370.88 136.27 370.78 125.02 371.35C123.02 371.45 121.23 373.65 119.34 374.88C121.23 375.79 123.13 377.5 125.02 377.49C139.41 377.38 153.81 377.13 168.19 376.56C192.28 375.56 216.36 374.38 240.88 373.24V366.83ZM109.13 394.26H111.13C111.26 392.26 111.49 390.18 111.48 388.14C111.48 381.31 111.09 374.47 111.39 367.65C111.54 364.06 111.6 358.96 113.8 357.27C118.43 353.71 119.99 348.65 122.8 344.27C130.24 332.63 137.56 320.9 144.59 309.01C149.78 300.21 154.45 291.1 159.35 282.13L158.35 280.57C155.96 281.5 152.58 281.75 151.35 283.5C147.58 288.86 144.7 294.84 141.35 300.5C132.43 315.58 123.35 330.5 114.57 345.71C111 351.86 107.907 358.276 105.32 364.9C101.28 375.34 110.62 384 109.13 394.26ZM552.32 926.26C544.43 928.42 541.7 933.52 542.67 941.73C543.931 952.175 544.629 962.68 544.76 973.2C544.84 980.66 546.9 986.86 551.89 992.27C553.66 994.18 555.17 996.27 556.8 998.35L557.91 997.47C556.05 973.75 554.2 950.08 552.32 926.21V926.26ZM410.62 180.58C416.99 187.64 416.99 187.65 425.09 187.19C436.75 186.52 448.4 185.57 460.09 185.19C481.09 184.58 502.15 184.38 523.17 183.86C524.84 183.86 526.48 182.62 528.17 181.96C526.74 180.7 525.5 178.8 523.85 178.32C521.016 177.597 518.093 177.287 515.17 177.4C508.76 177.46 502.35 177.86 495.94 178.01C473.41 178.55 450.87 179.01 428.33 179.59C422.38 179.78 416.5 180.26 410.62 180.58ZM525.16 148.39V146.44C521.55 145.56 517.97 144.15 514.32 143.91C501.73 143.06 489.11 142.11 476.5 142.14C455.14 142.2 433.79 142.99 412.44 143.45C409.8 143.5 406.76 143.45 407.25 147.02C407.4 148.12 410.68 149.55 412.52 149.53C426.52 149.45 440.52 148.84 454.52 148.78C475.92 148.69 497.32 148.93 518.72 148.97C520.87 149 523 148.59 525.16 148.39ZM408 154.1L407.85 156.82C409.507 157.317 411.208 157.652 412.93 157.82C425.03 157.9 437.127 157.9 449.22 157.82C465.58 157.72 481.93 157.38 498.28 157.4C506.67 157.4 515.05 158.06 523.44 158.19C524.64 158.19 525.86 156.9 527.08 156.19C526.08 154.94 525.4 153.29 524.14 152.55C522.712 151.915 521.147 151.654 519.59 151.79C507.94 151.79 496.3 151.91 484.65 151.98C467.12 152.08 449.59 151.98 432.06 152.36C424 152.56 416 153.51 408 154.1ZM242.78 178.23L244.78 180.38C246.3 179.47 248.39 178.92 249.25 177.58C257.25 165.15 265.25 152.72 272.85 140.03C282.29 124.23 291.41 108.24 300.43 92.19C301.56 90.19 301.26 87.37 301.62 84.92L299.16 84.02L242.78 178.23ZM217.88 279C210.65 277.46 206 278.17 202.51 284.39C195.36 297.14 187.51 309.47 179.97 322.03C178.04 325.25 176.43 328.66 174.36 332.57C181.46 332.78 186.36 331.85 189.6 325.34C193.68 317.22 199.15 309.81 203.93 302.03C208.49 294.67 212.94 287.2 217.88 279ZM191.55 330.33C195.39 333.92 198.3 333.17 200.78 329.71C207.9 319.79 215.14 309.95 221.99 299.85C226.77 292.85 230.99 285.39 235.93 277.36C230.53 276.61 225.43 274.64 222.22 279.64C215 291 208.29 302.61 201.37 314.11C198.1 319.54 194.81 325 191.55 330.36V330.33ZM336.55 685.73L335.82 688.02L381 737.76C387.86 733.76 388 733.58 383.53 727.89C376.22 718.6 368.83 709.36 361.14 700.38C357.75 696.44 353.96 692.52 349.59 689.86C345.85 687.56 341 687.06 336.59 685.76L336.55 685.73ZM324.74 842.13C326.36 835.96 324.15 831.86 319.33 828.13C301.54 814.34 284.06 800.13 266.27 786.37C260.8 782.13 255.08 777.54 248.52 779.81L324.74 842.13ZM189 279.79C183.23 278.06 179.77 278.5 177.18 282.79C168.88 296.58 160.42 310.28 152.08 324.04C149.34 328.55 146.75 333.15 144.08 337.71L145.61 339.39C148.69 337.46 152.67 336.21 154.7 333.49C161.53 324.33 167.88 314.77 174.03 305.12C179.18 297.16 183.74 288.84 189 279.79ZM410 172.14C409.83 172.87 409.67 173.59 409.51 174.31C410.51 175 411.51 176.2 412.6 176.31C416.878 176.642 421.17 176.758 425.46 176.66C447.85 176.02 470.25 175.22 492.64 174.66C502.97 174.38 513.31 174.49 523.64 174.23C524.87 174.23 526.06 172.94 527.27 172.23C526.16 171.53 525.06 170.23 523.93 170.23C512.23 169.95 500.53 169.66 488.83 169.8C471.51 170.01 454.18 170.5 436.83 171C428 171.18 419 171.73 410.05 172.14H410ZM429 78.47C429.31 82.82 429.19 86.55 430 90.08C430.36 91.67 432.52 92.85 433.86 94.22C434.86 92.71 436.92 91.14 436.86 89.68C436.07 73.97 434.86 58.28 434 42.58C433.82 39.08 434.81 35.58 435.07 32.01C435.16 30.86 434.98 28.94 434.32 28.61C431.715 27.4784 429.043 26.5066 426.32 25.7L425.02 26.86C437.29 51.86 429.74 73.04 412.76 92.43C425.23 95.23 425.23 95.23 424.64 83.94C424.56 80.85 424.66 78 429.08 78.47H429ZM638.31 910.47C639.18 904.55 638.24 901.28 632.54 899.6C618.76 895.53 605.22 890.66 591.54 886.3C581.54 883.11 581.47 883.24 581.54 893.49L638.31 910.47ZM527.81 165.07C527.81 164.44 527.81 163.81 527.81 163.17C525.52 162.76 523.24 161.98 520.95 161.97C499.56 161.97 478.18 162.04 456.8 162.11C443.56 162.11 430.31 162.05 417.08 162.4C414.34 162.47 409.03 160.26 409.31 165.48C409.56 170.05 414.53 168.07 417.41 168C433.16 167.59 448.91 166.63 464.67 166.38C483.19 166.07 501.67 166.38 520.23 166.23C522.85 166.23 525.37 165.49 527.89 165.09L527.81 165.07ZM322.78 826.23L325.78 824.52C324.52 821.26 324.2 816.84 321.84 814.91C308.45 803.97 294.65 793.53 280.84 783.13C276.51 779.87 274.02 780.13 268.5 782.97L322.78 826.23ZM391 334.45L322.25 288.57C319.99 293.15 320.08 295.44 324.07 298.06C341.6 309.6 358.89 321.51 376.07 333.58C380.53 336.7 384.61 336.17 391 334.45ZM118.5 366.87L233.42 364C233.56 363.14 233.71 362.27 233.86 361.41C230.22 360.41 226.55 358.6 222.94 358.71C202.94 359.31 182.94 360.44 162.94 361.3C149.16 361.88 135.37 362.3 121.59 362.93C120.81 363 120.14 364.68 118.5 366.87ZM439.31 33.06C438.96 36.01 438.23 38.71 438.4 41.35C439.46 58.07 440.63 74.79 442.07 91.49C442.19 92.9 444.42 94.68 446.02 95.17C446.83 95.42 449.12 93.38 449.49 92.03C450.05 89.5645 450.195 87.0231 449.92 84.51C448.86 69.51 447.21 54.62 446.77 39.65C446.6 33.85 444.72 32.43 439.31 33.06ZM173 280C166.43 279.31 166.07 279.62 163.25 284.41C152.983 301.83 142.67 319.223 132.31 336.59C130.04 340.4 127.57 344.09 125.19 347.83L126.95 349.34C130.07 346.44 133.87 344.01 136.2 340.58C144.36 328.58 152.223 316.38 159.79 303.98C164.39 296.37 168.35 288.39 173 280ZM636.8 895.29C638.97 886.17 638.21 884.81 630.18 882.9C615.54 879.43 600.9 875.9 586.09 872.37C585.47 874.65 584.83 877.02 584.16 879.51L636.8 895.29ZM136.11 282.62L137.5 284.12C136.75 286.91 136.58 290.05 135.14 292.42C127.22 305.58 118.62 318.33 111.07 331.69C108.23 336.69 107.57 342.97 105.92 348.69L108.62 349.69C121.62 327.45 134.55 305.22 148.25 281.74L136.11 282.62ZM373.87 745.32C377.66 742.41 378.03 741.32 374.39 737.32C361.31 722.74 348.11 708.267 334.79 693.9C332.79 691.8 329.93 690.59 326.95 688.63C325.79 693.83 325.79 697.26 330.49 699.26C332.16 699.98 333.43 701.76 334.76 703.17C338.85 707.55 342.86 712 346.94 716.4C355.893 726.02 364.87 735.66 373.87 745.32ZM452.41 37.6C451.94 38.86 451.29 39.75 451.34 40.6C452.5 58.6 453.67 76.6 455.09 94.6C455.18 95.7 457.32 96.6 458.5 97.6C459.62 95.95 461.72 94.29 461.7 92.66C461.49 78.66 461.43 64.66 460.13 50.74C459.7 46.25 460.52 39.31 452.41 37.6ZM321.63 301C319.63 307.29 321.2 309.76 325.17 312.28C338.9 321.01 352.36 330.19 365.76 339.44C369.52 342.03 371.97 341.81 374.85 336.34L321.63 301ZM233.63 99.51L232.21 98.4L175.6 181.5C177.98 180.68 181.79 180.57 183.2 178.67C192.12 166.67 200.94 154.48 208.94 141.82C217.64 128 225.42 113.59 233.61 99.46L233.63 99.51ZM391.94 729.61C399.6 726.33 397.21 722.8 393.74 719.03C384.83 709.36 375.99 699.61 367.13 689.88C363.88 686.32 360.01 686.1 354.87 687.45L391.94 729.61ZM230.75 402.86C230.7 402.21 230.66 401.56 230.62 400.92L144.39 404C144.39 404.62 144.44 405.25 144.46 405.87C173.42 411.09 202.15 409.18 230.75 402.86ZM320.14 324.47L364.14 350.96C366.92 347.02 365.57 344.44 362.7 342.47C352.44 335.42 342.17 328.37 331.76 321.55C328.36 319.32 324.52 317.76 320.11 315.5L320.14 324.47ZM416.3 97.47C410.38 95.74 406.81 96.95 404.95 102.3C404.12 104.272 403.049 106.133 401.76 107.84C396.05 116.39 390.12 124.79 384.61 133.46C380.66 139.66 381.47 141.46 387.87 144.22L416.3 97.47ZM465.06 43.88C465.06 50.1 464.89 55.5 465.06 60.88C465.52 72.57 466.06 84.27 466.92 95.94C467.02 97.28 469.37 98.46 470.67 99.71C471.67 98.36 473.57 96.98 473.53 95.71C473.09 80.71 472.38 65.71 471.7 50.71C471.52 45.76 468.22 44.41 465.06 43.83V43.88ZM215.37 355.33L215.55 353.33C213.45 352.45 211.38 350.87 209.26 350.81C198.59 350.54 187.9 350.36 177.26 350.74C166.03 351.13 154.82 352.13 143.61 353.01C138.45 353.42 133.02 353.31 128.06 358.11L215.37 355.33ZM637.37 866.71C637.46 861.71 636.53 858.55 631.58 857.38C619.47 854.52 607.48 851.18 595.37 848.38C594.09 848.08 591.11 849.85 591.02 850.84C590.86 852.68 591.9 856.07 593.02 856.36C607.51 860 622.12 863.23 637.33 866.71H637.37ZM365.4 378.47C364.4 367.4 336.67 346.97 320.72 344.42C318.93 350.42 319.01 350.23 323.83 352.94C329.74 356.27 335.53 359.83 341.31 363.39C349.16 368.23 357 373.18 365.4 378.47ZM587.49 867.47L637.27 880C637.09 872.7 637.27 872.19 632.27 870.85C618.06 867 603.73 863.6 589.05 859.92C588.44 863 588.06 864.78 587.49 867.46V867.47ZM329.31 704.06L327.39 705.06C329.01 709.06 325.79 713.86 331.05 717.46C335.91 720.938 340.403 724.902 344.46 729.29C351.82 737 358.82 745 367 754C367.83 751.29 369.08 749.4 368.57 748.44C366.975 745.365 364.996 742.506 362.68 739.93C356.04 732.63 349.16 725.56 342.42 718.35C338 713.65 333.68 708.84 329.31 704.06ZM358.31 761.34C362.64 758.93 362.84 756.73 360.03 753.6C353.27 746.08 346.9 738.2 340.03 730.77C336.85 727.32 332.9 724.59 328.24 720.65C327.78 727.93 327.24 732.65 332.75 737.11C341.84 744.39 349.76 753.06 358.35 761.34H358.31ZM485.61 104.59C485.61 96.5 486.02 89.74 485.51 83.06C484.78 73.6 483.51 64.17 482.11 54.78C481.86 53.12 479.79 51.73 478.56 50.21L477.33 51.1V101.88L485.61 104.59ZM497.28 138.83C497.44 138.23 497.61 137.63 497.77 137.04C495.953 136.104 494.055 135.335 492.1 134.74C475 131.09 457.71 132.33 440.48 133.37C435.64 133.67 430.2 134.01 426.73 138.83H497.28ZM402.57 96.83C395.87 95.64 391.35 94.64 389.98 101.46C389.67 103.04 388.1 104.37 387.08 105.79C382.75 111.79 378.23 117.64 374.14 123.79C370.36 129.47 370.97 130.73 377.59 133.68C385.74 121.74 393.82 109.81 402.61 96.84L402.57 96.83ZM636 853.05C637.1 847.75 637.26 844.05 630.82 844.22C629.15 844.28 627.47 843.31 625.82 842.9C615.34 840.38 604.82 837.9 594.17 835.34C592.65 839.34 591.48 842.34 595.69 843.42C609 846.78 622.38 849.83 636 853.05ZM364.51 382.24L321.44 357.34L319.38 359.05C320.24 361.85 320.22 366.05 322.1 367.22C330.61 372.46 340.16 376.12 348.33 381.79C353.72 385.54 358.26 386.15 364.51 382.24ZM162 333.23C167.92 335.41 169.6 331.09 171.49 328.05C178.49 316.82 185.18 305.41 191.95 294.05C194.74 289.34 197.42 284.57 200.63 279L194.73 278.73L162 333.23ZM493.56 107.76L495.4 106.76C495.557 106.007 495.671 105.246 495.74 104.48C496.2 95.25 496.93 86.02 496.97 76.8C496.981 71.5471 496.319 66.3145 495 61.23C494.49 59.23 491.37 57.92 489.43 56.29C488.91 58.29 487.99 60.29 487.95 62.29C487.95 64.78 488.82 67.29 488.95 69.79C489.5 80.64 489.78 91.52 490.51 102.36C490.66 104.23 492.51 106 493.56 107.76ZM635.09 839.76C636.18 835.3 634.89 832.5 629.97 831.36C619.76 828.99 609.65 826.19 599.43 823.86C598.43 823.63 596.31 825.17 595.87 826.33C594.29 830.57 597.73 832.06 600.66 832.71C612 835.23 623.42 837.38 635.09 839.73V839.76ZM362.4 362.1C363.94 356.1 360 353.62 356.55 351.39C346.74 345.07 336.75 339.06 326.71 333.11C324.86 332.01 322.48 331.79 320.14 331.11C319.08 335.4 319.39 338.11 323.83 339.19C325.66 339.62 327.29 340.95 328.95 341.96C339.92 348.54 350.87 355.15 362.4 362.1ZM500.33 63.77C499.888 65.2323 499.58 66.7318 499.41 68.25C499.6 81.12 500.25 93.99 499.91 106.84C499.79 111.61 501.64 111.37 504.69 111.17C509.49 93.11 507.67 69.91 500.33 63.77ZM598.82 810.11C599.69 814.11 595.28 818.11 601.17 819.57C612.37 822.26 623.71 824.34 636.89 827.07C635.23 823.54 634.66 819.94 633.12 819.47C622.2 816.1 611.08 813.37 598.82 810.11ZM384.3 688.11C393.5 697.33 402.11 706.11 411 714.6C411.7 715.26 414.65 714.37 415.86 713.37C416.52 712.83 416.29 710.06 415.49 709.09C411.17 703.83 406.89 698.45 401.93 693.83C397.54 689.7 393 684.69 384.3 688.08V688.11ZM399.4 134.61L401.88 136.61C414.5 126.82 419.25 110.96 429.13 98.51C425.98 98.1 422.49 98.1 421.41 99.72C413.79 111.15 406.67 122.92 399.4 134.58V134.61ZM324.63 811.35C325.14 802.72 325.19 802.66 320.31 798.92C313.68 793.84 307.16 788.59 300.21 783.98C297.57 782.22 293.88 782.04 290.67 781.13L289.67 783.5L324.63 811.35ZM633.38 788.35C636.59 779.53 636.11 778.59 628.47 777.05C624.09 776.16 619.68 775.43 615.32 774.46C608.43 772.93 607.53 773.6 606.93 781.98L633.38 788.35ZM372.58 686.6L370.32 690.13C373.02 692.02 376.1 693.55 378.32 695.87C385.78 703.56 392.87 711.62 400.32 719.31C401.32 720.31 403.6 720.01 405.32 720.31C405.12 718.67 405.53 716.48 404.63 715.49C396.36 706.49 387.99 697.49 379.34 688.84C377.83 687.34 374.87 687.31 372.58 686.6ZM417.06 127.16L418.71 128.38C433.36 124.77 434.04 108.47 444.06 100.14C440.4 99.46 435.88 98.79 434.6 100.53C428.28 109.05 422.82 118.22 417.06 127.16ZM602.52 798.62L600.52 805.04L634.66 814.26C636.37 809.8 635.87 806.85 631.66 805.77C622.25 803.35 612.83 801.14 602.52 798.62ZM634 801.24L636.09 800.1C634.92 797.88 634.2 794.22 632.52 793.7C624.52 791.368 616.406 789.446 608.21 787.94C606.9 787.67 605.21 789.13 603.74 789.79C604.59 791.49 605.12 794.37 606.33 794.7C615.51 797.16 624.79 799.12 634 801.24ZM511.67 934.48C515.32 944.25 511.1 956.71 525.25 961.59C524.25 952.76 523.42 944.59 522.56 936.59L511.67 934.48ZM352.22 770.58C353.02 768.27 354.57 765.72 354.01 765.12C346.1 756.59 337.91 748.33 329.78 740L328.29 741.37C328.08 745.63 326.98 750.12 333 751.98C334.49 752.44 335.54 754.31 336.79 755.53L352.22 770.58ZM387.93 97.58C382.93 95.14 379.83 94.21 378.28 99.66C377.91 100.97 376.28 101.89 375.28 103.06C371.63 107.33 367.78 111.46 364.54 116.06C363.63 117.34 364.54 119.92 364.61 121.9C366.55 121.32 369.12 121.33 370.3 120.05C373.7 116.36 376.5 112.13 379.59 108.15C382.12 104.8 384.77 101.54 387.93 97.58ZM435.93 120.1C446.86 119.88 456.29 111.46 458.93 101.62C455.8 101.62 451.39 100.34 449.98 101.85C444.76 107.43 440.53 113.94 435.93 120.1ZM636 773.33C634.61 770.18 634.21 767.01 632.8 766.47C626.516 764.113 620.065 762.228 613.5 760.83C612.6 760.63 610.5 763.7 609.86 765.57C609.57 766.37 611.31 768.8 612.44 769.05C619.57 770.59 626.82 771.73 636 773.33ZM424.82 370.52L426.82 369.95C427.02 367.61 428.28 364.02 427.25 363.14C420.1 357.08 412.47 351.59 404.14 345.26C405.26 359.78 417.15 363.31 424.82 370.52ZM510 79.25C510 85.17 510.05 91.08 510 96.99C509.94 102.17 509.59 107.35 509.72 112.52C509.72 113.85 511.12 115.14 511.88 116.44C513.05 115.7 514.75 115.2 515.25 114.14C515.978 112.394 516.319 110.511 516.25 108.62C516.25 104.35 515.17 99.91 516 95.83C517.28 89.11 514.05 84.3 510 79.25ZM344.54 387.82C345 386.67 345.45 385.51 345.91 384.36L320.35 370.64C320.72 377.21 320.96 381.64 321.21 386.02C323.74 380.77 326.95 382.41 330.54 383.73C335.09 385.41 339.86 386.49 344.54 387.82ZM404.12 686.42C403.78 687.1 403.45 687.78 403.12 688.42C408.94 694.64 414.69 700.91 420.65 706.98C421.45 707.79 423.33 707.54 424.71 707.78C424.71 706.21 425.44 704.07 424.71 703.18C420.646 698.242 416.274 693.566 411.62 689.18C409.75 687.59 406.64 687.32 404.12 686.42ZM633.39 760.89C635.45 756.22 633.74 753.64 630.17 752.41C625.1 750.67 619.87 749.41 612.67 747.34C613.61 750.96 613.59 754.56 614.82 755.05C620.84 757.45 627.18 759 633.39 760.89ZM632.92 748.31L634.61 746.75C633.61 744.51 633.09 741.04 631.39 740.28C627.12 738.35 622.32 737.56 617.66 736.64C617.35 736.58 616.2 739.13 616.03 740.54C616.062 741.07 616.227 741.584 616.508 742.034C616.789 742.485 617.178 742.858 617.64 743.12C622.68 745 627.81 746.61 632.92 748.31ZM473.81 105.31C465.72 102.31 460.91 105.65 457.46 116.25C465.48 118.34 470.1 115.31 473.81 105.32V105.31ZM497.22 938.4L508.5 947.6V933.07L499 929.51C498.38 932.7 497.89 935.11 497.22 938.4ZM521.72 102.53L520.13 102.71C519.83 105.48 519.41 108.24 519.26 111.02C519.11 113.8 519.26 116.75 519.26 119.91L530.78 126.26L521.72 102.53ZM212.48 791.89C208.86 784.24 191.12 776.2 181.97 778.09C181.97 778.27 181.97 778.57 182.08 778.61C192.22 783.05 202.353 787.477 212.48 791.89ZM436 703.06C431.5 691.62 423.44 685.41 416.86 687.34C421.26 692.18 425.53 697.14 430.16 701.74C431.17 702.77 433.46 702.54 436 703.06ZM373.25 97.19C368.75 94.93 365.93 94.67 363.89 99.63C362.52 102.94 359.76 105.63 357.68 108.69C356.23 110.79 353.57 112.94 358.12 115.47L373.25 97.19ZM329.72 768.62C326.25 777.39 333.06 780.78 338.88 784.84C341.96 782.62 342.78 780.07 339.72 777.25C336.51 774.29 333.11 771.53 329.72 768.62ZM407.54 369.46C412.21 373.05 415.65 375.88 419.31 378.39C420.31 379.1 422.04 378.88 423.43 379.09C423.2 377.54 423.54 375.36 422.64 374.56C418.26 370.66 413.55 367.12 408.28 362.91C407.9 366.29 407.65 368.54 407.54 369.46ZM406.88 373.82L402.67 385.93L419.8 384.07L406.88 373.82ZM530.29 144.68C530.75 141.25 531.61 138.2 531.38 135.24C531.25 133.53 529.38 131.97 528.24 130.34C527.04 131.26 525.4 131.93 524.72 133.14C521.22 139.37 521.67 140.22 530.29 144.68ZM619.9 725.54C617.54 731.95 621.38 734.36 632.9 733.69C632.89 728.36 628.82 725.79 619.9 725.54ZM329 762.62L330.67 762.24C333.16 764.48 335.67 766.67 338.13 768.97C340.59 771.27 343.07 773.85 345.53 776.3C344.88 769.18 336.04 759.58 329.69 757.56C329.44 759.29 329.21 761 329 762.62ZM494 935.27C493.28 929.73 493.81 925.27 487.44 924.15C483.44 923.45 479.82 920.64 476.03 918.77L475.56 919.86L494 935.27ZM472.36 117.84C476.63 121.11 476.66 121.14 479.28 117.68C480.782 115.893 482.095 113.956 483.2 111.9C483.71 110.8 483.2 109.2 483.09 107.82C481.56 108.19 479.46 108.05 478.6 109.02C476.31 111.6 474.55 114.66 472.36 117.84ZM170 346.48H191.87C191.81 345.77 191.76 345.06 191.71 344.35C182.81 340.9 174.6 346.31 170 346.48ZM483.76 121.19L485 123C486.93 122.27 489.53 122.08 490.64 120.69C492.45 118.43 493.3 115.4 494.55 112.69C492.78 112.45 490.03 111.39 489.42 112.11C487.14 114.8 485.58 118.1 483.76 121.19ZM493.55 125.78C499.72 127.18 505.32 122.2 505.7 116.06C497.58 114.06 497.61 121.67 493.55 125.78ZM360.26 97.65C354.26 96.24 347.97 101.11 348.45 105.14C348.53 105.84 351.52 107.08 351.91 106.72C354.63 104.17 357 101.27 360.26 97.65ZM114.38 315L116.56 316.31L129.15 293.8L126.94 292.58L114.38 315ZM444.07 696.53C438.97 688.14 435.71 685.84 430.93 687.25C439.54 698 440.05 698.39 444.07 696.53ZM504.74 130.08C510.74 132.31 510.99 127.21 513 125C513.9 124 513.65 122 513.93 120.42C512.09 120.99 509.6 121.02 508.55 122.26C506.87 124.24 506.15 127 504.74 130.08ZM623.74 714.63L620.47 717.56C623.56 719.47 626.57 721.56 629.8 723.15C630.33 723.41 631.8 721.76 632.86 720.99L623.74 714.63ZM622.74 704.27C622.22 711.16 624.06 712.71 631.74 712.27C632.48 705.59 626.92 706.13 622.76 704.27H622.74ZM513.16 132.74C513.37 133.39 513.59 134.04 513.8 134.74C515.3 134.74 517.69 135.32 518.15 134.63C519.896 131.71 521.446 128.676 522.79 125.55L520.62 124.19L513.16 132.74ZM330.3 797.74C336.55 791.19 336.52 789.65 330.3 785.5V797.74ZM631.53 695.58L624.09 697.15L631.53 703.65V695.58ZM455 687C459.37 691.88 461.58 691.83 466.67 687H455ZM629.13 681.2C624.76 687.82 625.13 689.87 630.86 691.82C630.57 690.05 630.3 688.35 630.02 686.65C629.74 684.95 629.52 683.27 629.17 681.16L629.13 681.2ZM444.3 685.49C443.69 686.39 443.08 687.28 442.48 688.18L451.23 693.79L452.67 691.67L444.3 685.49Z" fill="black"/>
<path d="M131.31 1154.66C132.2 1171.24 133.09 1187.82 134.05 1205.66L138.16 1198.11L139.7 1198.67C139.51 1200.04 139.75 1201.67 139.05 1202.67C134.05 1209.98 129.15 1217.42 123.61 1224.32C119.77 1229.09 114.61 1232.77 110.61 1237.48C100.73 1249.34 87.7999 1242.06 84.4799 1231.39C81.9999 1223.45 80.8899 1215.01 79.8999 1206.7C77.9999 1190.89 76.2799 1175 75.2199 1159C74.1199 1142.49 73.8599 1125.92 73.3199 1109.37C72.1499 1073.48 71.0599 1037.58 69.8599 1001.69C69.7099 997.43 68.8599 993.2 68.8599 988.95C68.8599 985.7 69.7399 982.45 70.2299 979.2L72.2299 978.96C73.3199 980.63 74.7399 982.17 75.4499 983.96C82.5899 1002.11 89.6099 1020.29 96.6599 1038.46C102.23 1052.84 107.89 1067.19 113.37 1081.6C119.46 1097.6 125.25 1113.79 131.44 1129.79C134.25 1137.03 137.44 1144.14 140.93 1151.1C146.03 1161.33 151.66 1171.31 156.82 1181.52C160.15 1188.12 162.63 1195.18 166.21 1201.64C172.21 1212.5 178.41 1223.33 185.34 1233.64C189.62 1240 197.91 1239.64 204.16 1239.51C218.16 1239.25 231.9 1235.74 243.07 1226.84C252.56 1219.12 261.492 1210.75 269.8 1201.77C278.59 1192.45 286.51 1182.29 294.7 1172.4C296.183 1170.34 297.519 1168.18 298.7 1165.93L301.5 1167.77C301.22 1170.09 300.79 1172.41 300.67 1174.77C300.35 1181.1 299.85 1187.44 299.97 1193.77C300.14 1202.51 292.97 1205.32 287.55 1209.02C276.229 1216.94 264.5 1224.27 252.41 1230.96C244.335 1235.15 235.815 1238.43 227.01 1240.72C219.77 1242.72 212.01 1243.01 204.55 1244.13C187.15 1246.73 174.55 1256.58 165.48 1271.06C161.17 1277.91 157.93 1285.43 153.84 1292.44C152.653 1294.27 150.798 1295.56 148.67 1296.04C129.47 1299.11 110.26 1299.04 90.9199 1296.79C69.9999 1294.41 48.9799 1292.79 27.9899 1290.92C25.2499 1290.67 21.1799 1291.56 20.0799 1290.12C18.6199 1288.21 19.6899 1284.5 19.3199 1281.61C17.4999 1267.32 14.9699 1253.09 13.8099 1238.74C11.6699 1212.29 10.4399 1185.74 8.6199 1159.3C6.7499 1132.07 4.1899 1104.88 2.7599 1077.62C1.4599 1052.75 -2.0501 1027.95 1.5999 1002.88C4.2599 984.63 6.4099 966.3 17.0599 950.72C24.1699 940.33 32.6199 930.85 40.6699 921.13C50.8699 908.83 61.2032 896.63 71.6699 884.53C74.7981 881.038 78.1377 877.742 81.6699 874.66C82.5799 873.84 84.2199 873.83 85.5299 873.45L86.4199 874.74C85.4727 876.274 84.448 877.76 83.3499 879.19C65.7499 899.857 48.1199 920.47 30.4599 941.03C23.6599 948.94 19.9899 957.75 18.2699 968.28C13.2099 999.36 11.5699 1030.55 11.0299 1062.01C10.5299 1091.14 11.8999 1120.1 13.7299 1149.1C15.1599 1171.71 15.4699 1194.45 18.2699 1216.89C20.9899 1238.71 25.6299 1260.28 25.1699 1282.47C25.1699 1283.98 28.4499 1286.6 30.4999 1286.94C39.9199 1288.51 49.4099 1290.05 58.9299 1290.5C82.0899 1291.6 105.27 1292.5 128.44 1292.5C133.91 1292.5 139.57 1289.5 144.78 1287.08C146.49 1286.29 147.98 1283.08 148.02 1280.91C148.17 1271.75 147.71 1262.58 147.53 1253.41C147.43 1248.16 147.83 1242.88 147.32 1237.68C146.62 1230.6 144.93 1223.62 144.26 1216.54C143.21 1205.46 143.36 1194.23 141.68 1183.27C140.17 1173.39 136.89 1163.79 134.39 1154.06L131.31 1154.66ZM81.8799 1015.35L79.3899 1015.93C80.5766 1031.4 81.7599 1046.87 82.9399 1062.34C84.6699 1085.65 86.4399 1108.96 88.0499 1132.27C89.6299 1155.27 90.9099 1178.2 92.5399 1201.15C93.3599 1212.62 94.9499 1224.05 95.5399 1235.53C95.7099 1238.72 94.9099 1241.43 99.0999 1241.73C102.31 1241.97 105.88 1237.85 105.7 1234.49C105.11 1223.04 104.46 1211.58 104.02 1200.12C103.28 1180.66 103.02 1161.17 101.94 1141.72C100.56 1116.02 98.6299 1090.35 97.0099 1064.72C96.8199 1061.67 98.0099 1058.28 97.0999 1055.59C92.3199 1042 86.9999 1028.73 81.8799 1015.35ZM123.05 1219.52L124.95 1220.01C126.76 1216.85 129.75 1213.84 130.14 1210.52C130.89 1204.07 130.3 1197.44 130.04 1190.89C129.64 1180.76 129.33 1170.62 128.46 1160.52C127.52 1149.52 127.08 1138.26 124.46 1127.61C121.38 1115.19 116.19 1103.28 111.83 1091.17C109.13 1083.67 106.28 1076.23 103.49 1068.77L101.9 1069.27C104.21 1123.62 106.53 1177.97 108.9 1233.98C114.79 1229.98 119.13 1227.24 118.9 1220.98C118.49 1211.63 117.9 1202.29 117.61 1192.98C117.09 1177.04 117.09 1161.07 116.17 1145.15C115.51 1133.72 113.68 1122.35 112.51 1110.94C112.42 1110.08 113.43 1109.09 113.94 1108.16C114.82 1108.73 115.629 1109.4 116.35 1110.16C116.688 1110.87 116.83 1111.65 116.76 1112.43C118.22 1139.06 119.63 1165.69 121.14 1192.32C121.6 1201.39 122.38 1210.45 123.05 1219.52ZM88.8199 1234.67L91.6699 1234.05L77.6699 1037.22H75.6699C75.3477 1039.03 75.1339 1040.86 75.0299 1042.69C75.0299 1050.69 74.8599 1058.69 75.0999 1066.69C75.6199 1083.82 76.4299 1100.95 76.9799 1118.08C77.3299 1129.19 76.8499 1140.35 77.7599 1151.4C79.5299 1172.76 81.8299 1194.08 84.3499 1215.4C85.0599 1221.85 87.2699 1228.22 88.8199 1234.67ZM174.61 1250L172.86 1251.71C167.527 1246.11 162.193 1240.51 156.86 1234.92L154.93 1236.66C155.85 1246.72 166.93 1249.43 170.1 1258.01C173.22 1255.91 175.94 1254.94 177.17 1253.01C178.4 1251.08 179.77 1246.82 178.73 1245.62C171.21 1236.93 163.1 1228.75 154.45 1219.62C153.2 1226.22 155.93 1229.53 159.35 1232.98C164.69 1238.43 169.54 1244.33 174.61 1250ZM194.49 1243.92L195.37 1242.28C172.05 1237.28 164.02 1216.94 152.1 1199.7C150.79 1207.93 153.41 1213.81 158.2 1219.13C166.2 1228.06 174.01 1237.24 182.11 1246.13C183.11 1247.21 185.63 1247.69 187.11 1247.31C189.72 1246.65 192.06 1245.1 194.49 1243.93V1243.92ZM166.06 1263.92C168.68 1258.21 161.97 1249.15 154.85 1247.51C151.81 1257.48 161 1258.84 166.06 1264V1263.92ZM161.71 1265.99L155.71 1259.54L154.13 1260.12V1279.55L155.01 1279.72C157 1275.8 158.88 1271.84 161.71 1266V1265.99ZM73.7099 997.3C74.0699 1001.75 74.3099 1004.76 74.6499 1008.84C78.6199 1004.71 78.4499 1003.1 73.7199 997.34L73.7099 997.3Z" fill="black"/>
<path d="M550.28 162.8C551.57 158.52 554.16 158.8 557.6 162.3C563.6 168.38 570.02 174.02 576.22 179.89C583.48 186.77 585.42 195.63 584.63 205.07C583.46 218.99 581.24 232.85 580.48 246.79C580.08 254.07 582.11 261.45 582.6 268.79C583.5 282.37 583.76 296 584.87 309.56C586.07 324.09 587.97 338.56 589.49 353.08C590.73 364.9 591.63 376.76 593.08 388.55C595.82 410.96 598.92 433.34 601.62 455.75C601.87 457.85 600.38 460.16 598.46 462.17C598.813 463.474 599.331 464.727 600 465.9C604 471.22 603.12 474.99 597.18 478.09C590.59 481.51 583.86 480.09 577.18 478.57C570.5 477.05 563.69 475.08 556.94 473.35C553.39 472.43 551.62 470.55 551.09 466.55C548.65 448.24 545.33 430.03 543.32 411.67C542.49 404.13 544.52 396.32 544.65 388.62C544.94 370.3 544.55 351.97 545.05 333.62C545.55 315.27 546.82 297.08 547.71 278.81C549.33 245.74 553.87 212.75 550.32 179.53C549.77 174 550.28 168.39 550.28 162.8ZM594 453.1L595.5 452.66C594.26 445.66 592.77 438.66 591.83 431.55C588.97 409.9 585.55 388.3 583.75 366.55C580.75 329.83 578.88 293.02 576.3 256.26C575.683 247.531 574.534 238.849 572.86 230.26C571.79 224.81 569.17 219.78 560.63 219.61C563.63 216.26 566.4 214.26 567.63 211.55C570.63 204.73 573.8 197.74 575.16 190.5C575.65 187.88 571.37 184.17 568.91 181.26C565.91 177.74 562.59 174.54 559.41 171.2L557.49 171.37C556.99 174.37 556.02 177.37 556.08 180.37C556.2 187 557.08 193.61 557.23 200.24C557.896 222.293 558.47 244.343 558.95 266.39C559.14 275.5 559.19 284.64 558.74 293.75C558 309.11 556.74 324.44 555.81 339.75C554.81 356.38 553.92 373.03 552.63 389.64C552.33 393.56 550.33 397.32 549.63 401.24C549.383 403.087 549.844 404.959 550.92 406.48C553.15 409.35 556.04 411.69 558.5 414.39C569.66 426.65 580.796 438.937 591.91 451.25C592.571 451.905 593.269 452.523 594 453.1ZM556.71 467.1L558.71 467.04C559.096 466.023 559.332 464.955 559.41 463.87C558.54 452.87 557.41 441.87 556.7 430.8C556.5 427.97 557.18 425.08 557.45 422.22L559.28 421.49L553.71 419.29C552.19 416.04 551.15 413.8 550.11 411.56L548.56 412.21C551.293 430.483 554.01 448.767 556.71 467.06V467.1ZM566.02 468.46L568.11 468.25C568.326 466.81 568.432 465.356 568.43 463.9C567.8 454.41 567.23 444.9 566.36 435.46C565.63 427.56 565.46 427.58 561.74 425.95C563.15 440 564.59 454.18 566 468.42L566.02 468.46ZM576.02 471.54C577.29 458.01 575.95 442.26 572.88 439.75C573.45 449.98 573.97 459.62 574.55 469.27C574.61 469.67 575.12 470.09 576.05 471.5L576.02 471.54ZM581.11 448.54V472.11C586.68 469.78 585.86 453.46 581.14 448.49L581.11 448.54ZM591.45 461.54C590.19 471.94 590.29 472.09 597.33 470.54L591.45 461.54Z" fill="black"/>
<path d="M81.0799 353.71C70.9699 358.18 64.5799 369.92 66.5599 379.63C66.7799 380.75 66.9799 382.21 67.7399 382.84C73.5499 387.6 71.7399 391.72 67.9299 397.06C61.4399 406.3 60.9299 417.23 60.5399 428.29C59.9199 446.15 58.6099 463.99 56.9999 481.79C55.7999 494.99 54.0599 508.17 51.8599 521.25C48.1799 543.17 43.4899 564.94 39.9999 586.9C36.6199 608.43 34.2699 630.12 31.4399 651.74C31.2289 654.264 30.7632 656.76 30.0499 659.19C29.5399 660.62 27.9799 661.67 26.8999 662.9C26.1999 661.35 24.7099 659.69 24.8999 658.28C26.2499 649.44 28.1899 640.68 29.5399 631.83C31.9999 615.65 34.0199 599.39 36.5399 583.22C38.6099 569.93 41.3299 556.75 43.4199 543.47C46.0866 526.343 48.5899 509.18 50.9299 491.98C53.0399 476.55 55.1599 461.1 56.6099 445.6C57.3099 438.09 56.1099 430.42 56.4499 422.85C56.9999 410.41 58.9199 398.24 66.8599 387.85C52.7599 369.65 70.6799 350.3 85.3099 345.91C90.5499 344.34 91.6699 346.13 91.4799 351.67C91.1699 360.4 91.6099 369.16 91.9399 377.9C92.2699 386.84 92.9399 395.78 93.2599 404.73C93.3239 406.297 92.9088 407.845 92.0699 409.17C84.0699 420.62 84.8099 434 84.5399 446.8C84.2099 463.16 85.6899 479.56 86.0299 495.94C86.3799 513.3 86.0299 530.68 86.5099 548.03C86.8399 560.03 88.3799 572.03 88.7599 584.11C89.4599 606.59 89.7599 629.11 90.1199 651.56C89.9927 653.675 89.7086 655.777 89.2699 657.85C81.9599 654.73 77.2699 660.59 71.4399 662.49C67.223 664.044 63.1535 665.971 59.2799 668.25C49.7999 673.39 41.3899 671.11 33.4599 664.87C29.8299 662.02 32.0799 659.18 33.8699 656.73C40.3899 647.83 47.0899 639.05 53.7499 630.24C61.5699 620 68.4599 608.84 77.3599 599.7C85.7999 591.04 83.7799 581.76 82.7499 572.12C79.7499 544.23 75.9699 516.41 73.7499 488.47C72.1999 468.47 72.3799 448.33 72.6399 428.27C72.7199 422.09 75.6399 415.93 77.2699 409.78C78.0199 406.99 79.5399 404.28 79.6799 401.48C80.4499 386.48 80.8999 371.48 81.4399 356.48C81.3874 355.549 81.2671 354.623 81.0799 353.71ZM77.0799 606.61L79.0799 606.81C79.4899 611.14 80.1799 615.46 80.2499 619.81C80.3999 629.27 80.0999 638.73 80.3599 648.18C80.3599 649.53 82.5399 650.83 83.7099 652.18C84.7099 650.61 86.4599 649.07 86.5299 647.46C86.9199 638.92 87.0799 630.36 86.9399 621.81C86.8199 613.99 86.1999 606.17 85.7999 598.35L84.0699 597.85L77.0799 606.61ZM70.2099 657C75.2099 656.57 76.7599 655.37 76.4799 650.41C75.8699 639.64 76.6499 628.8 76.6799 617.99C76.6799 615.69 75.9299 613.38 75.5299 611.08L73.5999 610.74C71.8299 614.01 68.7399 617.2 68.5999 620.56C68.1599 628.03 69.1899 635.56 69.5999 643.09C69.7899 647.62 69.9999 652.18 70.2099 657ZM65.3199 625C60.4399 628.91 58.8599 658.37 62.5799 661.09L65.3199 660.09V625ZM55.9999 635.8L49.7199 641.54C50.5099 645.73 51.3299 648.69 51.5599 651.71C51.7899 654.73 51.1099 657.54 51.3999 660.4C51.5299 661.72 52.9999 662.91 53.8699 664.15C54.5799 663.02 55.8699 661.91 55.8699 660.76C56.1099 653 55.9999 645.31 55.9999 635.8ZM46.9999 647.46L45.6399 647C44.4099 648.92 42.2399 650.78 42.1299 652.76C41.9099 656.7 42.7699 660.76 43.3399 664.68C43.4099 665.18 44.6299 666 45.0099 665.85C45.7799 665.56 46.8799 664.73 46.8899 664.09C46.9999 658.56 46.9999 653 46.9999 647.46Z" fill="black"/>
<path d="M270.78 1151.17C270.9 1158.27 261.92 1169.05 255.78 1169.17C242.78 1169.52 230.84 1158.85 230.92 1146.92C230.92 1139.79 241.92 1129.41 249.66 1129.17C259.74 1128.9 270.61 1140.18 270.78 1151.17ZM252.12 1162.7C260.12 1162.82 264.54 1158.61 264.65 1150.7C264.74 1143.91 258.52 1137.16 251.96 1136.94C245.58 1136.73 239.28 1141.79 239.12 1147.26C238.88 1155 245.27 1162.61 252.12 1162.7Z" fill="black"/>
<path d="M157.33 1297.74C161.33 1293.22 170.63 1293.74 177.59 1297.74H157.33Z" fill="black"/>
<path d="M448.43 871.86C448.43 863.36 455.43 854.86 469.31 855.48C479.31 855.89 484.83 862.88 484.97 876.79C485.06 885.02 476.46 891.91 465.97 891.7C457.77 891.53 448.17 885.5 448.43 871.86ZM469.05 883.86L469.79 882.41C480.26 882.1 483.29 878.86 479.14 870.5C477.6 867.41 472.09 865.5 468.06 864.71C465.62 864.2 461.36 866.02 460.06 868.11C458.37 870.84 457.24 876 458.72 878.11C460.77 881 465.48 882 469.05 883.88V883.86Z" fill="black"/>
</g>
<defs>
<clipPath id="clip0_29_21">
<rect width="695.16" height="1303.28" fill="white"/>
</clipPath>
</defs>
</svg>
