<svg width="1293" height="877" viewBox="0 0 1293 877" fill="none" xmlns="http://www.w3.org/2000/svg">
<g clip-path="url(#clip0_29_31)">
<path d="M705.513 258.561C708.722 253.784 711.422 249.654 714.246 245.624C716.085 242.987 717.819 240.997 722.129 241.584C726.854 242.241 731.839 241.166 737.343 240.798C737.561 243.494 737.914 246.699 738.059 249.903C738.751 265.401 739.416 280.896 740.053 296.387C740.053 297.044 740.198 297.71 740.198 298.377C740.302 308.806 742.016 310.1 753.252 309.075C755.09 308.906 757.074 310.19 758.995 310.807C758.393 312.489 758.195 314.489 757.115 315.782C749.922 324.626 742.597 333.37 735.141 342.015C734.3 343.01 732.545 343.478 731.132 343.726C727.56 344.353 723.936 344.642 720.353 345.209C710.799 346.712 707.205 351.28 707.995 360.395C708.223 362.993 707.662 365.65 707.735 368.277C707.891 374.089 710.58 376.288 716.604 376.407C742.628 376.915 768.207 373.422 793.754 369.113C809.85 366.376 826.144 364.734 842.262 362.147C854.308 360.206 866.209 357.489 878.183 355.181C879.869 354.827 881.575 354.571 883.293 354.414C889.004 353.967 889.441 354.982 888.88 360.554C888.215 367.093 888.703 373.74 888.361 380.328C887.613 394.31 886.367 408.272 885.899 422.254C885.702 427.956 886.678 433.748 887.654 439.411C888.475 444.167 887.893 447.839 882.638 449.243V468.499L881.351 468.559C880.935 462.319 880.51 456.069 880.032 449.024C872.077 450.706 864.548 451.721 857.434 453.999C848.038 456.871 838.86 460.363 829.966 464.449C821.658 468.36 814.108 473.793 805.935 478.052C793.972 484.302 781.801 490.173 769.588 495.965C767.002 497.199 766.296 498.563 766.337 501.279C766.587 515.918 766.337 530.557 766.68 545.195C766.94 557.078 767.885 568.94 768.321 580.822C768.601 588.385 768.466 595.958 768.612 603.521C768.612 605.313 769.048 607.104 769.463 610.398L806.662 582.454L807.763 583.758C801.532 588.783 795.488 593.928 789.195 598.814C784.251 602.656 779.132 606.308 773.929 609.831C771.125 611.731 770.522 613.612 772.298 616.508C773.949 619.195 775.175 622.111 777.075 625.912L896.679 531.761C891.227 529.303 886.657 525.68 882.057 525.631C877.737 525.631 873.375 529.353 868.39 531.741L881.268 520.595C885.515 523.004 889.409 525.571 893.626 527.502C896.741 528.925 898.455 530.089 898.008 534.03C897.479 538.558 898.455 543.255 898.777 547.872L896.97 548.151C896.419 544.688 895.879 541.185 895.111 536.209C892.12 538.737 890.22 540.727 887.945 542.18C864.943 557.107 844.328 574.931 823.382 592.286C809.695 603.621 795.602 614.518 781.842 625.783C780.088 627.231 778.94 629.239 778.612 631.436C778.114 639.118 778.197 646.831 778.02 654.523C778.02 655.279 777.75 656.026 776.421 657.031C776.058 655.847 775.383 654.652 775.383 653.488C775.583 647.71 775.905 641.938 776.348 636.173C776.577 633.287 775.31 631.913 772.454 631.386C762.682 629.595 753.003 627.186 743.168 625.992C728.058 624.171 712.813 623.365 697.682 621.743C683.787 620.25 669.965 618.15 656.143 616.478C638.768 614.369 621.363 612.498 603.989 610.388C596.969 609.542 590.001 608.328 582.98 607.532C573.582 606.457 564.163 605.273 554.723 604.865C550.392 604.666 549.396 603.233 549.468 599.571C549.614 591.152 549.468 582.733 549.468 573.697C542.5 572.274 536.196 570.89 529.851 569.716C524.96 568.81 520.027 568.034 515.073 567.427C506.07 566.333 497.024 565.517 488.072 564.362C479.401 563.257 470.792 561.635 462.11 560.7C455.308 559.973 448.423 560.053 441.6 559.595C435.088 559.158 428.598 558.521 422.117 557.894C409.656 556.689 397.245 555.485 384.825 554.162C371.231 552.709 357.668 550.987 344.054 549.664C333.804 548.669 323.492 548.181 313.221 547.275C309.825 546.977 306.502 545.862 303.095 545.514C297.519 544.937 296.729 545.882 297.134 551.196C297.664 558.232 298.069 565.278 298.536 572.313L296.719 572.532C295.847 564.81 295.546 556.958 293.926 549.375C292.305 541.792 292.762 534.448 292.42 527.094C300.842 526.417 307.997 519.64 309.596 512.027C309.815 511.032 311.32 510.285 312.328 509.34L307.135 400.311L308.381 399.714C308.963 401.117 309.96 402.5 310.043 403.923C310.635 414.154 310.967 424.394 311.538 434.614C311.829 439.888 312.691 445.143 312.878 450.417C313.2 459.144 312.951 467.892 313.366 476.619C313.906 487.795 314.851 498.951 315.713 511.36L518.22 532.985L518.147 533.821C513.775 533.622 509.403 533.522 505.041 533.214C496.308 532.587 487.553 532 478.84 531.134C466.908 529.94 455.007 528.397 443.074 527.153C435.358 526.367 427.601 526.059 419.885 525.272C408.783 524.138 397.713 522.795 386.653 521.511C371.962 519.806 357.27 518.084 342.579 516.346C335.237 515.47 327.905 514.415 320.573 513.5C316.056 512.933 312.712 514.027 310.396 518.406C308.672 521.66 305.546 524.228 302.223 528.039C310.926 529.203 318.496 530.318 326.109 531.204C335.87 532.338 345.622 533.492 355.415 534.259C366.901 535.154 378.449 535.393 389.924 536.349C403.155 537.463 416.333 539.115 429.543 540.399C440.177 541.394 450.842 542.29 461.487 543.185C475.372 544.35 489.287 545.255 503.141 546.668C515.997 547.982 528.802 549.793 541.628 551.425C543.114 551.592 544.502 552.225 545.574 553.226C544.651 553.637 543.66 553.887 542.645 553.963C530.339 552.629 518.043 551.156 505.748 549.803C488.799 547.932 471.861 546.031 454.861 544.33C435.358 542.339 415.842 540.498 396.311 538.807C386.435 537.931 376.507 537.493 366.62 536.567C355.654 535.572 344.729 534.09 333.762 532.995C323.668 531.993 313.564 531.127 303.449 530.397C300.281 530.169 296.428 529.661 295.639 534.08C294.777 538.856 297.55 542.827 302.317 543.384C317.717 545.156 333.15 546.748 348.571 548.36C374.108 551.087 399.624 553.943 425.191 556.431C436.812 557.565 448.537 557.774 460.178 558.72C467.396 559.297 474.541 560.551 481.738 561.367C493.317 562.69 504.927 563.695 516.475 565.208C523.599 566.143 530.609 567.885 537.712 569.059C541.088 569.617 544.546 569.686 548.637 570.054C548.897 564.472 549.198 558.958 549.385 553.435C549.468 550.798 549.385 548.141 549.312 545.474C549.312 537.264 548.077 536.15 539.416 535.761C536.04 535.602 532.676 535.134 529.311 534.766L529.238 533.483C530.89 533.483 532.551 533.403 534.202 533.483C537.64 533.691 541.067 533.96 544.494 534.269C547.609 534.557 548.793 533.492 548.648 530.288C548.243 518.406 548.066 506.504 547.859 494.612C547.454 470.609 547.277 446.596 546.612 422.592C546.218 408.053 545.127 393.534 544.265 379.005C544.041 376.974 543.694 374.957 543.227 372.964C534.358 372.964 525.915 372.685 517.503 372.964C497.367 373.74 477.251 374.765 457.125 375.741C441.61 376.497 426.105 377.402 410.601 378.129C407.142 378.288 406.685 380.249 406.872 382.816C407.277 388.2 407.911 393.584 408.129 398.977C408.544 407.934 408.638 416.98 409.053 425.976C409.676 439.629 410.59 453.283 411.13 466.936C411.598 478.51 411.701 490.104 412.003 501.677C412.117 506.305 412.449 510.922 412.428 515.54C412.394 516.374 412.169 517.19 411.769 517.931C411.368 518.673 410.803 519.32 410.112 519.829C408.565 478.739 406.997 437.649 405.439 396.032C395.252 395.584 385.469 394.658 375.707 394.838C353.899 395.246 332.09 396.181 310.22 396.957C307.821 397.037 305.391 397.883 303.054 397.684C298.9 397.306 294.538 398.679 290.987 394.051C288.12 390.32 282.793 388.369 278.815 385.314C277.351 384.199 276.583 382.219 275.586 380.587C274.485 378.786 273.592 375.442 272.47 375.372C268.856 375.134 268.41 378.298 268.441 381.025C268.545 389.613 268.711 398.211 269.002 406.799C269.344 417.02 270.206 427.24 270.154 437.46C270.154 446.307 269.261 455.154 268.43 463.981C268.181 466.608 266.8 469.146 265.419 473.305C279.418 465.016 293.147 460.11 306.824 455.084L307.727 457.015C304.144 458.717 300.603 460.488 296.968 462.1C288.079 466.081 279.2 470.061 270.217 473.753C268.14 474.609 265.73 474.579 263.466 474.948C263.354 472.623 263.43 470.294 263.695 467.981C265.118 460.806 268.119 453.671 268.119 446.516C268.119 427.837 266.831 409.158 266.042 390.479C265.886 386.498 265.637 382.577 265.71 378.626C265.782 374.676 267.88 372.536 272.398 372.228C310.088 369.66 347.768 367.006 385.438 364.266C389.052 364.008 392.645 363.6 396.238 363.142C397.253 363.039 398.214 362.651 399.001 362.027C402.012 359.141 404.982 356.196 407.786 353.131C410.59 350.066 412.293 347.01 411.795 342.492C410.31 329.028 409.521 315.504 408.305 302.019C408.225 300.023 407.576 298.085 406.428 296.417C405.28 294.749 403.677 293.413 401.794 292.556C399.62 291.539 397.536 290.354 395.563 289.013C394.627 288.181 393.809 287.234 393.133 286.197C394.038 285.389 395.051 284.699 396.145 284.146C398.855 283.151 402.822 283.151 404.131 281.38C405.439 279.609 404.338 275.966 404.131 273.17C402.781 256.581 401.42 239.991 399.977 223.412C399.696 220.317 398.855 217.272 398.274 214.197C401.067 213.202 403.653 212.038 406.353 211.281C411.784 209.739 414.557 212.077 415.035 217.411C416.877 238.071 418.891 258.71 421.079 279.33C421.172 280.245 423.333 281.708 424.475 281.659C430.841 281.41 434.86 284.097 437.601 289.51C441.485 297.203 447.114 304.328 449.534 312.399C451.694 319.564 450.572 327.655 450.77 335.337C450.946 342.084 450.956 348.851 451.019 355.609C451.019 358.982 452.743 360.326 456.274 359.957C461.393 359.43 466.534 359.121 471.29 358.743C471.041 353.489 470.75 348.274 470.553 343.05C469.566 317.076 468.933 291.083 467.541 265.129C466.285 241.833 463.792 218.596 462.671 195.309C461.923 179.934 462.671 164.459 462.671 149.094C462.671 140.834 462.068 132.525 462.671 124.315C463.844 109.318 465.07 94.261 467.614 79.4432C468.964 71.6113 473.066 64.1974 476.036 56.6342C481.9 41.5406 492.064 28.3254 505.374 18.4899C515.094 11.4443 526.216 6.82673 538.294 3.49297C555.803 -1.33353 573.136 -0.487654 590.219 3.06505C603.117 5.76192 614.665 12.2802 625.829 19.3458C635.061 25.0966 643.307 32.1832 650.275 40.3535C658.103 49.7941 665.327 59.6808 671.907 69.9594C675.022 74.6863 676.061 80.5876 678.138 85.8818C682.292 96.53 687.245 106.969 690.662 117.836C693.874 128.485 696.385 139.317 698.181 150.268C700.019 160.708 701.078 171.286 701.982 181.845C702.584 189.04 702.241 196.294 702.491 203.529C702.823 213.351 703.321 223.173 703.716 232.996C703.996 240.051 704.194 247.117 704.516 254.172C704.737 255.656 705.071 257.123 705.513 258.561ZM668.272 334.491C671.035 334.034 673.018 333.546 675.022 333.397C694.754 332.023 714.599 330.75 734.362 329.217C735.494 329.137 737.218 327.177 737.363 325.933C737.697 322.482 737.746 319.012 737.509 315.554C736.636 293.571 735.639 271.598 734.819 249.625C734.674 245.992 732.804 244.559 729.377 244.519C727.487 244.519 725.597 244.768 723.707 244.868C720.072 245.057 719.044 246.321 719.356 250.232C720.872 269.03 721.869 287.878 722.897 306.717C723.094 310.309 723.936 315.146 722.014 317.186C720.207 319.066 715.015 317.942 711.307 318.181C710.269 318.241 708.898 318.858 708.296 318.43C706.468 317.116 703.706 315.534 703.529 313.842C702.958 308.289 703.591 302.627 703.353 297.024C702.449 276.235 701.276 255.446 700.424 234.657C699.905 221.78 700.029 208.873 699.385 196.006C698.825 184.671 698.129 173.296 696.571 162.051C695.094 150.738 692.881 139.524 689.946 128.474C686.643 116.423 682.209 104.591 677.837 92.8678C675.705 87.1336 673.054 81.5893 669.913 76.2985C663.557 65.5707 657.451 54.5743 649.891 44.6725C642.949 35.8098 634.346 28.2638 624.52 22.4208C612.36 14.9273 600.116 8.21 585.639 5.37381C568.421 1.99028 551.306 2.29878 534.825 6.96605C524.246 10.0678 514.444 15.2198 506.028 22.1024C490.274 34.7707 480.408 51.2305 475.102 69.4021C470.356 85.6231 468.507 102.809 467.053 119.697C465.701 136.682 465.382 153.728 466.098 170.749C467.209 201.31 469.4 231.831 470.927 262.382C471.83 280.554 472.391 298.745 473.004 316.937C473.471 330.869 473.772 344.801 474.156 359.32C491.634 357.798 508.261 356.435 524.866 354.773C526.341 354.623 527.857 352.782 528.927 351.369C532.8 346.344 536.456 341.169 540.267 336.104C547.121 327.018 554.349 318.191 560.777 308.816C564.63 303.224 567.548 297.044 565.222 289.729C563.945 285.689 563.748 281.33 563.052 277.121C561.608 268.453 559.469 259.825 558.898 251.097C557.859 235.692 554.463 220.168 560.05 204.833C560.435 203.788 558.69 201.28 557.309 200.524C549.271 196.145 541.056 192.045 532.842 187.975C531.62 187.42 530.261 187.199 528.916 187.338C519.404 188.174 509.902 189.199 500.379 189.955C499.028 190.065 496.588 189.268 496.349 188.442C495.043 184.002 494.082 179.475 493.473 174.898C493.348 173.903 494.999 171.913 496.09 171.754C509.59 169.355 523.184 167.266 536.726 164.967C543.414 163.832 550.05 162.429 556.54 161.175C555.793 138.814 555.066 117.199 554.339 95.5846L556.312 95.4751C561.826 118.254 557.215 141.73 560.892 164.141C550.569 165.952 540.766 167.644 530.973 169.385C521.18 171.127 511.137 172.878 501.272 174.849C500.005 175.107 498.063 176.839 498.156 177.834C498.483 180.975 499.039 184.091 499.818 187.159C512.155 187.059 523.547 182.87 534.483 184.104C538.169 182.73 541.264 181.337 544.494 180.431C550.424 178.78 557.163 179.914 561.878 174.182C563.187 172.59 569.252 172.192 570.467 173.445C572.824 175.983 574.974 175.326 577.352 175.127C581.61 174.769 585.836 174.132 590.852 173.565C585.099 180.899 580.156 187.398 574.974 193.697C573.727 195.2 571.651 196.085 569.958 197.25C569.137 195.259 567.881 193.269 567.611 191.149C567.06 186.124 567.019 181.048 566.759 175.754C559.822 178.63 557.662 186.094 562.086 191.677C564.277 194.453 564.402 196.165 561.587 198.175C561.484 198.245 561.722 198.742 561.826 199.17L566.666 199.628C565.869 201.411 565.176 203.235 564.589 205.091C563.072 211.152 560.777 217.202 560.435 223.333C559.936 233.284 560.601 243.385 561.172 253.406C561.359 256.66 561.473 260.213 565.326 262.422C567.206 263.507 568.504 265.836 569.584 267.836C573.063 274.275 576.303 280.773 579.346 286.744C579.159 282.763 579.128 278.046 578.681 273.339C576.531 250.61 574.392 227.88 571.92 205.191C571.536 201.658 572.855 199.767 575.161 197.498C579.585 193.14 584.839 189 587.55 183.725C592.296 174.51 598.859 169.634 609.628 170.201C610.841 170.229 612.054 170.153 613.253 169.972C621.748 168.927 630.242 167.843 639.122 166.728C638.852 161.553 638.623 157.045 638.363 152.06C627.729 153.811 618.123 155.413 608.517 156.966C599.371 158.445 590.215 159.901 581.049 161.334C577.487 161.892 575.804 160.807 575.524 156.956C574.486 143.272 573.229 129.619 571.9 115.965C571.183 108.492 570.165 101.038 569.324 93.9227L557.766 95.296L557.236 92.7882C562.429 91.395 567.621 89.9819 572.751 88.6484C573.115 88.5588 573.79 88.9768 574.07 89.3251C577.186 92.8081 580.363 96.2911 583.25 99.8936C583.853 100.65 583.365 102.202 583.375 103.387C582.337 102.998 581.07 102.859 580.405 102.163C578.598 100.272 577.061 98.1819 574.413 94.8581C574.029 98.9382 573.374 101.536 573.613 104.053C575.161 120.334 576.916 136.595 578.598 152.866C578.847 155.314 579.367 157.911 582.752 157.284C585.483 156.767 589.191 156.926 588.578 152.179C586.844 138.784 585.369 125.31 583.884 111.915C583.764 109.681 583.764 107.442 583.884 105.208L586.522 105.088C588.692 121.797 590.873 138.496 593.21 156.518C609.099 153.433 625.091 150.318 641.084 147.243C642.184 146.933 643.345 146.881 644.47 147.094C651.272 149.253 653.463 151.542 653.401 159.782C653.401 165.166 648.613 167.226 644.522 168.221C636.307 170.211 627.823 171.206 619.442 172.55C613.315 173.545 607.105 174.062 601.04 175.296C595.577 176.401 591.102 182.681 591.538 187.855C592.576 199.548 593.615 211.241 594.58 222.944C595.525 234.448 596.232 245.962 597.249 257.456C598.714 273.747 600.583 290.008 601.871 306.319C602.847 318.848 603.262 331.416 603.792 343.965C603.927 347.279 605.173 348.642 608.808 348.503C616.368 348.205 623.949 348.195 631.509 348.274C633.846 348.43 636.165 348.763 638.447 349.269L640.752 384.13L649.693 383.622C662.633 382.866 675.562 382.08 688.502 381.343C692.158 381.134 694.027 380.06 693.56 375.84C692.864 369.61 693.341 363.261 692.77 357.012C692.542 354.514 691.545 351.329 689.655 349.847C683.268 344.712 676.331 340.184 668.272 334.491ZM680.734 427.24C680.734 427.976 680.734 428.703 680.734 429.429C676.694 429.429 672.634 429.29 668.604 429.429C653.515 430.046 638.426 430.673 623.347 431.419C600.116 432.643 576.895 434.096 553.664 435.211C549.115 435.43 548.243 437.321 548.471 441.182C549.032 451.253 549.458 461.324 549.645 471.405C549.956 488.084 549.915 504.762 550.237 521.441C550.486 534.478 551.182 547.514 551.431 560.551C551.576 567.935 551.099 575.339 551.14 582.733C551.14 585.002 550.455 588.047 554.401 588.415C558.69 588.823 562.979 589.261 567.268 589.629C588.401 591.47 609.556 593.092 630.616 595.182C651.905 597.282 673.195 599.79 694.401 602.218C704.318 603.362 714.194 604.765 724.091 606.009C734.84 607.363 745.567 609.184 756.357 609.871C766.877 610.527 766.95 609.97 766.182 599.65C766.098 598.496 766.182 597.332 766.182 596.167C765.489 567.56 764.797 538.953 764.105 510.345C764.011 506.613 764.105 502.882 764.105 499.478C757.313 498.344 752.588 504.523 745.962 502.175C750.365 496.921 759.608 437.191 757.936 425.04C750.334 425.578 742.649 426.235 734.964 426.613C730.353 426.842 724.257 428.424 721.402 426.265C714.018 420.702 706.333 414.771 706.395 403.854C706.489 388.17 705.606 372.476 705.17 356.793C705.108 354.524 704.277 351.091 705.461 350.185C710.175 346.583 713.26 339.965 721.152 341.388C722.97 341.706 724.932 341.278 726.833 341.239C732.773 341.089 735.671 337.387 738.609 332.282L677.338 336.571C681.773 339.557 685.21 341.995 688.762 344.214C693.736 347.289 695.46 351.449 695.543 357.151C695.792 373.253 696.384 389.364 697.454 405.436C698.067 414.522 694.525 422.413 686.165 426.792C685.324 427.23 684.088 426.911 682.988 426.941C683.232 425.948 683.58 424.981 684.026 424.055C684.338 423.558 685.21 423.408 685.76 423.06C693.03 417.955 695.896 412.203 694.068 406.61C676.674 404.52 554.079 408.601 548.336 411.009C548.336 417.547 548.097 423.946 548.554 430.355C548.648 431.579 551.566 433.649 553.103 433.589C564.973 433.121 576.833 432.265 588.682 431.429C603.127 430.434 617.542 429.071 632.008 428.325C644.864 427.648 657.773 427.588 670.661 427.329C674.098 427.18 677.421 427.24 680.755 427.24H680.734ZM752.39 498.254L754.145 499.06C758.299 497.518 762.64 496.294 766.607 494.393C778.799 488.561 790.867 482.501 802.955 476.48C808.002 473.962 813.246 471.703 817.919 468.648C831.817 459.655 847.384 453.297 863.779 449.919C871.122 448.347 878.412 446.556 885.349 444.944C881.475 415.169 887.914 386.06 886.481 356.186C877.581 358.067 869.439 360.166 861.162 361.46C845.221 364.028 829.187 366.058 813.236 368.546C798.084 370.904 783.005 373.661 767.864 376.029C759.442 377.343 759.556 377.154 759.857 385.682C760.491 402.142 762.121 418.672 761.207 435.062C760.335 450.576 756.679 465.911 754.374 481.376C753.522 486.999 753.034 492.602 752.38 498.254H752.39ZM530.671 355.111L581.797 391.494C589.243 378.975 597.478 367.322 602.847 353.34C599.731 353.17 597.509 352.524 595.671 353.051C590.395 354.544 589.336 352.056 589.149 347.816C588.536 333.626 588.111 319.425 587.02 305.284C584.736 275.917 582.098 246.569 579.512 217.232C579.045 212.008 578.1 206.823 577.435 201.628L575.711 201.748C575.95 206.505 576.002 211.281 576.479 216.018C577.726 228.179 579.367 240.29 580.457 252.461C581.495 263.756 581.973 275.101 582.721 286.425C583.022 291.033 583.531 295.641 583.614 300.258C583.614 301.412 582.399 302.597 581.745 303.771C580.908 302.912 580.208 301.94 579.668 300.885C577.705 295.063 576.241 289.082 573.966 283.38C571.806 277.977 568.857 272.861 566.261 267.607L564.828 268.304C566.271 277.26 567.621 286.216 569.179 295.173C569.958 299.631 569.906 303.134 566.468 307.304C556.083 320.022 546.602 333.466 536.799 346.642C534.68 349.429 532.748 352.285 530.671 355.111ZM610.636 609.642L610.708 609.094C613.824 609.283 616.939 609.303 620.055 609.672C645.716 612.816 671.388 615.881 697.007 619.255C718.629 622.111 740.572 622.758 761.809 628.39C765.579 629.386 770.055 627.943 774.209 627.624C772.776 623.902 771.582 620.071 769.806 616.508C768.944 614.797 767.137 612.528 765.507 612.319C757.199 611.234 748.693 610.935 740.313 609.99C726.553 608.447 712.844 606.547 699.095 604.954C681.347 602.885 663.599 600.974 645.841 598.984C635.456 597.849 625.043 596.781 614.603 595.779C606.575 595.013 598.527 594.406 590.478 593.739C580.093 592.883 569.584 592.316 559.209 591.082C551.171 590.087 550.818 590.196 551.846 597.959C552.366 601.869 553.923 603.432 558.482 603.531C567.227 603.74 575.971 604.805 584.673 605.85C593.376 606.895 601.954 608.368 610.636 609.642ZM544.691 369.929C542.749 367.939 541.752 366.505 540.402 365.58C533.475 360.813 526.59 357.221 517.15 358.256C498.385 360.306 479.474 361.241 460.615 362.366C430.353 364.197 400.07 365.68 369.819 367.61C347.865 369.013 325.942 370.924 304.009 372.586C296.615 373.143 289.2 373.482 281.806 374.059C277.164 374.427 279.262 378.039 279.148 380.278C279.148 380.985 281.765 382.537 283.125 382.478C297.726 381.811 312.317 380.766 326.919 380.099C350.877 379.005 374.856 378.278 398.814 377.114C418.275 376.119 437.705 374.417 457.177 373.501C482.89 372.307 508.624 371.571 534.358 370.616C537.557 370.426 540.766 370.198 544.691 369.929ZM624.427 386.249L624.614 387.245C623.634 387.594 622.627 387.87 621.602 388.07C615.61 388.757 609.607 389.742 603.595 389.922C593.729 390.22 584.227 393.375 574.164 392.529C567.517 391.972 560.726 393.126 553.986 393.255C547.433 393.395 546.488 394.469 548.399 400.779C596.865 399.196 645.415 397.952 694.37 395.027C694.11 390.489 693.933 387.304 693.726 383.742L630.066 387.175C632.506 385.304 636.525 383.682 636.557 381.97C636.754 372.725 635.965 363.46 635.518 354.205L633.586 353.937L604.862 387.115L624.427 386.249ZM434.933 360.843C435.109 360.296 435.275 359.748 435.452 359.201C434.092 358.026 432.845 356.737 431.724 355.35C428.473 350.563 423.623 345.966 422.616 340.721C420.342 328.779 420.352 316.419 418.69 304.318C417.652 296.815 419.127 290.924 425.96 286.704C426.24 286.525 426.209 285.888 426.323 285.44C418.015 284.186 418.14 284.176 417.714 279.469C415.887 259.268 414.08 239.066 411.93 218.904C411.764 217.312 409.095 214.864 407.475 214.774C405.055 214.645 402.116 215.361 402.947 219.581C403.985 225.074 404.141 230.737 404.525 236.329C405.564 251.764 406.519 267.179 407.724 282.644C407.973 285.848 407.34 287.411 403.715 287.102C402.781 287.022 401.784 287.52 400.226 287.888C401.566 288.933 402.396 289.709 403.341 290.316C405.678 291.746 407.628 293.685 409.032 295.975C410.436 298.265 411.255 300.841 411.421 303.492C412.626 316.489 413.778 329.486 415.056 342.463C415.471 346.672 414.588 350.275 411.442 353.409C408.69 356.136 406.187 359.102 402.635 362.973L434.933 360.843ZM447.727 359.778C447.727 347 447.914 334.302 447.633 321.604C447.54 317.056 447.343 312.071 445.401 308.09C442.212 301.532 437.685 295.561 433.416 289.59C432.71 288.595 430.197 287.998 428.868 288.366C425.441 289.361 421.006 295.909 421.328 299.263C422.512 311.424 424.101 323.565 425.005 335.745C425.312 341.383 427.578 346.76 431.443 351.021C433.344 353.151 435.597 354.952 437.487 357.111C440.25 360.246 443.51 361.112 447.727 359.778ZM402.822 379.064L284.631 384.458L284.413 385.871C290.841 389.852 295.712 396.36 305.328 394.778C310.988 393.842 316.991 394.887 322.837 394.857C330.938 394.857 339.027 394.668 347.128 394.479C361.999 394.121 376.881 393.126 391.731 393.484C403.487 393.783 405.304 392.688 403.331 381.761C403.186 380.995 403.04 380.209 402.822 379.064ZM591.59 348.752C600.51 350.464 600.635 350.464 600.386 343.846C600.085 335.885 599.742 327.923 599.119 320.052C597.602 300.64 595.989 281.237 594.279 261.845C593.012 247.515 591.486 233.205 590.125 218.874C589.274 209.57 588.568 200.255 587.799 190.94L586.189 190.413C584.808 193.11 582.295 195.797 582.264 198.513C582.16 207.659 582.659 216.834 583.458 225.96C584.497 238.22 586.356 250.421 587.384 262.681C588.225 272.802 588.215 282.992 588.9 293.123C589.565 302.806 590.977 312.439 591.455 322.122C591.943 330.978 591.59 339.865 591.59 348.752ZM756.285 401.664L756.523 403.595C753.886 403.804 751.258 404.142 748.621 404.202C743.636 404.321 738.62 404.033 733.656 404.431C730.831 404.65 727.02 404.61 727.57 409.267C728.048 413.248 728.027 417.229 728.837 421.1C729.149 422.563 731.226 424.832 732.41 424.782C739.97 424.453 747.53 423.677 755.049 422.791C756.087 422.662 757.842 421.12 757.874 420.184C758.178 412.933 758.254 405.675 758.102 398.41C758.102 396.181 757.469 393.683 753.948 393.892C746.024 394.35 738.069 394.549 730.177 395.265C728.848 395.395 727.716 397.554 726.501 398.768C727.768 399.923 729.014 402.023 730.312 402.052C737.581 402.212 744.851 401.853 752.12 401.694C753.47 401.634 754.883 401.664 756.285 401.664ZM716.396 251.077C715.715 251.223 715.048 251.423 714.402 251.675C713.935 251.895 713.529 252.219 713.218 252.62C709.064 259.865 702.833 266.552 706.053 275.837C706.338 276.966 706.447 278.13 706.375 279.29C706.375 291.232 706.375 303.197 706.375 315.185C708.992 315.185 711.255 314.827 713.353 315.255C718.836 316.37 719.969 313.523 719.833 309.284C719.491 297.551 719.325 285.798 718.702 274.076C718.307 266.532 717.227 259.039 716.396 251.077ZM632.008 352.016C624.614 352.016 618.507 351.887 612.339 352.116C610.833 352.165 608.704 353.001 607.998 354.106C602.805 362.445 597.904 370.944 592.929 379.403C591.372 382.05 589.814 384.727 588.225 387.583C596.377 388.996 600.406 388.309 604.031 384.229C613.263 373.85 622.277 363.231 632.008 352.016ZM693.85 397.942C681.118 398.39 668.418 398.798 655.727 399.306C639.111 399.973 622.495 400.769 605.807 401.396C588.059 402.072 570.311 402.56 552.563 403.286C551.078 403.356 549.645 404.68 548.191 405.426C549.676 405.854 551.171 406.69 552.646 406.65C566.24 406.352 579.834 405.854 593.428 405.516C602.504 405.297 611.591 405.396 620.667 405.088C633.555 404.64 646.422 403.734 659.31 403.426C668.968 403.187 678.647 403.804 688.305 403.605C694.068 403.475 696.343 403.207 693.85 397.942ZM707.662 377.552C707.963 381.194 708.233 383.921 708.42 386.657C708.908 393.733 708.971 400.868 709.937 407.884C711.089 416.194 718.515 419.776 724.361 424.901C730.063 412.86 721.163 387.493 707.662 377.552ZM714.599 379.811C717.601 384.07 720.114 387.971 723.032 391.554C723.728 392.409 725.784 392.549 727.186 392.549C733.22 392.24 739.222 391.633 745.256 391.315C757.635 390.678 757.645 390.728 756.742 379.025C756.742 378.587 756.254 378.189 756.181 378.029L714.599 379.811ZM547.495 371.849L546.041 372.646C546.311 377.83 546.415 383.045 546.976 388.2C547.08 389.105 549.053 390.489 550.174 390.519C557.901 390.728 565.627 390.628 573.364 390.628C573.489 390.19 573.603 389.752 573.728 389.314L547.495 371.849ZM756.783 311.613C751.539 311.613 747.925 311.364 744.321 311.742C743.044 311.881 740.977 313.444 740.894 314.469C740.531 319.275 740.738 324.112 740.738 328.938L742.691 329.595L756.783 311.613ZM642.985 164.33C649.901 164.21 650.566 159.712 649.777 155.821C649.361 153.731 645.778 152.229 643.618 150.457L642.331 151.453C642.549 155.831 642.767 160.13 642.985 164.39V164.33ZM570.134 179.596C570.352 183.516 570.55 187.089 570.747 190.662L573.011 191.04L576.988 179.217L570.134 179.596ZM555.772 182.193L543.31 184.243L556.27 190.214C556.135 187.537 555.98 185.198 555.782 182.193H555.772Z" fill="black"/>
<path d="M387.214 450.267L367.378 455.522C370.234 446.565 378.334 444.476 385.22 440.515L358.821 407.675C355.29 412.272 351.998 416.094 349.246 420.244C346.307 424.682 343.867 429.439 341.198 434.056C339.318 437.33 339.91 439.599 343.275 442.018C348.343 445.797 353.087 449.96 357.461 454.467C350.991 454.308 350.316 458.796 350.119 462.428C349.745 469.315 350.243 476.241 350.461 483.147C350.555 486.382 352.102 488.641 355.758 488.621C359.122 488.621 363.411 490.054 364.128 484.64C364.128 484.352 364.886 484.143 365.924 483.516C366.174 485.406 366.371 486.879 366.61 488.591L380.692 491.268L380.474 492.681L364.169 491.686C358.364 491.308 352.268 488.611 347.553 494.83C346.027 496.821 342.859 497.697 340.751 500.264L387.899 504.006V505.578C384.887 505.578 381.865 505.717 378.854 505.578C364.803 504.852 350.752 503.996 336.701 503.309C333.419 503.15 332.204 502.732 333.16 498.921C334.019 494.721 334.163 490.416 333.586 486.173C332.547 475.355 330.335 464.598 329.992 453.78C329.743 445.948 331.976 438.067 332.641 430.175C333.233 423.09 336.223 417.079 340.575 411.616C349.714 400.112 368.292 400.759 377.556 412.82C385.573 423.249 389.166 435.081 390.018 447.899C390.983 461.742 392.468 475.544 393.517 489.387C393.87 494.044 393.569 498.741 393.569 503.429L391.066 503.478C389.82 486.222 388.574 468.966 387.214 450.267ZM337.283 497.657C347.595 492.8 347.45 492.084 347.512 481.734C347.564 472.688 344.573 463.304 349.527 454.537C349.797 454.039 349.36 452.546 348.945 452.417C345.092 451.213 341.063 449.143 337.293 449.481C333.825 449.79 332.516 453.462 332.942 457.303C333.762 464.458 334.126 471.663 334.873 478.828C335.517 484.978 336.473 491.138 337.283 497.657ZM343.919 446.615L344.365 445.769C342.836 444.6 341.211 443.552 339.505 442.635C335.289 440.774 335.081 438.375 337.428 434.783C340.253 430.464 342.371 425.727 345.165 421.398C348.28 416.601 351.79 412.054 355.55 406.739C341.956 407.038 331.872 430.703 334.406 446.615H343.919ZM362.227 407.436L384.108 434.932C381.907 421.945 373.152 408.013 362.227 407.436ZM386.507 442.933L374.482 449.103L375.042 450.098L386.975 448.586C386.84 447.003 386.725 445.61 386.507 442.933Z" fill="black"/>
<path d="M508.52 486.63C507.876 486.561 507.014 486.72 506.62 486.372C497.959 478.822 489.336 471.222 480.751 463.573C480.429 463.284 480.377 462.697 480.211 462.269C488.602 456.676 496.827 451.044 505.249 445.61C510.784 442.028 510.94 442.008 510.213 434.365C502.944 439.49 496.11 444.376 489.194 449.183C485.435 451.8 481.644 454.397 477.718 456.776C474.105 458.945 471.404 457.701 471.041 453.561C470.558 449.944 470.639 446.279 471.28 442.684C471.726 440.694 472.038 437.967 475.891 437.281C480.699 436.425 485.237 434.027 489.786 432.066C492.178 431.095 494.197 429.438 495.568 427.323C496.938 425.208 497.592 422.739 497.44 420.254C497.097 413.168 496.983 406.043 487.636 403.973C483.482 403.047 479.266 401.983 475.018 401.256C470.771 400.53 466.524 400.341 461.933 398.967C462.972 398.45 464.01 397.465 465.049 397.514C475.434 397.942 485.819 398.748 494.874 404.331C495.919 404.917 496.874 405.641 497.71 406.481C503.11 412.452 501.292 428.802 494.054 432.882C488.405 436.067 481.8 437.709 475.61 440.047C475.153 440.226 474.707 440.455 474.375 440.605V455.88L512.508 428.911C513.609 429.509 514.097 429.618 514.159 429.837C515.997 436.325 513.412 443.57 507.752 447.222C501.157 451.492 494.449 455.602 487.771 459.751C486.598 460.478 485.351 461.085 483.295 462.209C490.492 468.359 496.526 473.216 502.154 478.46C504.647 480.799 506.308 483.924 508.385 486.69L508.52 486.63Z" fill="black"/>
<path d="M566.323 631.147L775.538 659.011C775.538 659.548 775.538 660.086 775.455 660.633C772.236 660.633 768.975 660.982 765.818 660.564C757.801 659.499 749.836 658.116 741.86 656.822C731.475 655.14 721.256 653.02 710.861 651.846C697.194 650.224 683.382 649.657 669.726 647.955C653.505 645.965 637.387 643.109 621.207 640.76C613.367 639.626 605.443 639.048 597.644 637.775C587.114 636.013 576.666 633.794 566.188 631.804L566.323 631.147Z" fill="black"/>
<path d="M459.264 458.408C454.778 454.477 450.271 450.556 445.764 446.595C443.999 444.805 442.13 443.11 440.167 441.52C438.461 440.395 437.058 438.899 436.074 437.153C435.09 435.407 434.553 433.463 434.507 431.479C434.403 429.727 433.281 428.046 433.011 426.284C432.955 424.929 433.074 423.572 433.364 422.244C434.611 422.811 436.085 423.13 437.051 423.976C444.622 430.653 452.099 437.44 460.064 444.605C459.026 429.946 458.049 415.208 457.042 400.47L459.119 400.012C459.73 401.168 460.181 402.396 460.459 403.664C461.601 417.776 462.65 431.897 463.72 446.008C463.912 447.153 463.992 448.312 463.958 449.471C463.855 450.337 463.18 451.88 462.827 451.86C461.707 451.799 460.643 451.371 459.815 450.646C453.085 444.058 446.449 437.38 439.772 430.743C439.245 430.304 438.686 429.902 438.1 429.538C436.085 432.793 437.425 434.982 439.751 437.092C445.864 442.645 451.936 448.241 457.966 453.88C458.956 454.967 459.849 456.132 460.635 457.363L459.264 458.408Z" fill="black"/>
<path d="M458.216 476.778L432.43 498.254C428.276 490.462 429.563 485.904 435.919 480.709C441.755 475.952 446.969 470.509 452.639 465.553C454.778 463.692 457.426 462.379 459.846 460.816L458.579 459.911C454.425 465.095 450.583 470.529 446.065 475.395C442.68 479.047 438.193 481.754 434.725 485.347C433.396 486.73 433.562 489.407 433.042 491.497L434.559 492.442L461.508 470.489C463.2 484.421 461.632 497.05 462.93 509.618L460.344 509.718V477.435L458.216 476.778Z" fill="black"/>
<path d="M896.544 551.753C860.384 589.4 820.381 623.136 782.476 658.932L780.949 657.797C781.976 656.287 783.129 654.859 784.397 653.528C797.025 642.09 809.691 630.699 822.395 619.354C830.08 612.488 837.973 605.82 845.575 598.914C853.436 591.788 861.152 584.514 868.858 577.239C877.56 569.049 886.19 560.769 894.872 552.559C895.383 552.21 895.947 551.939 896.544 551.753Z" fill="black"/>
<path d="M508.396 486.63C510.535 488.621 511.667 496.343 509.59 497.159C508.527 497.46 507.407 497.527 506.314 497.354C505.221 497.182 504.182 496.775 503.276 496.164C494.137 488.69 485.289 480.869 476.275 473.206C475.15 472.48 473.957 471.853 472.713 471.335V510.733L470.833 510.882C470.491 507.578 469.919 504.275 469.847 500.931C469.67 491.845 469.774 482.749 469.618 473.664C469.618 471.315 469.618 469.076 472.63 468.996C474.429 468.945 476.191 469.493 477.615 470.549C486.307 478.012 494.812 485.685 503.411 493.248C504.344 493.857 505.339 494.374 506.381 494.791C507.139 491.805 507.804 489.148 508.458 486.501L508.396 486.63Z" fill="black"/>
<path d="M470.553 403.744C475.849 405.585 481.748 406.56 486.317 409.456C493.919 414.253 491.24 422.075 486.712 426.842C484.219 429.479 479.868 430.673 476.14 432.006C473.024 433.131 471.072 431.011 470.792 428.285C470.397 424.374 470.844 420.393 470.605 416.472C470.387 412.76 469.732 409.068 469.275 405.366L470.553 403.744ZM474.001 428.454C479.66 430.354 483.347 427.867 485.725 424.085C487.594 421.1 489.36 417.308 486.379 413.895C483.077 410.123 479.11 407.426 473.076 408.919C473.388 415.626 473.699 422.134 474.001 428.454Z" fill="black"/>
<path d="M298.173 653.976C299.035 651.985 300.541 650.075 300.499 648.224C300.292 638.64 299.71 629.067 299.212 619.484C298.536 606.547 297.81 593.51 297.135 580.523L298.931 580.414C299.731 589.529 300.697 598.635 301.299 607.761C302.234 621.693 303.085 635.734 303.646 649.736C303.833 655.18 301.953 656.036 298.173 653.976Z" fill="black"/>
<path d="M527.494 640.581C524.96 643.407 522.872 646.811 519.819 648.97C504.304 659.986 488.519 670.664 472.9 681.551C472.08 682.119 471.861 683.482 470.948 685.363L466.087 684.736C467.437 683.024 468.092 681.641 469.203 680.875C488.644 667.42 508.112 654.015 527.608 640.66L527.494 640.581Z" fill="black"/>
<path d="M527.608 640.661C533.745 636.68 539.945 632.849 546.01 628.788C549.541 626.42 550.891 623.275 549.904 618.906C549.136 615.583 549.385 612.01 549.478 608.557C549.478 607.661 550.59 606.795 551.192 605.92L552.905 606.417C552.905 611.761 553.238 617.125 552.802 622.439C552.386 627.514 555.159 628.739 559.521 628.967C560.965 629.13 562.397 629.376 563.81 629.704C563.81 630.112 563.737 630.53 563.706 630.938C561.863 630.899 560.028 630.703 558.223 630.351C550.122 628.072 544.608 632.669 538.554 636.511C535.334 638.501 531.232 639.277 527.504 640.591L527.608 640.661Z" fill="black"/>
<path d="M363.723 455.313C364.169 464.558 364.564 472.838 364.959 481.117C361.189 477.525 360.493 457.89 363.723 455.313Z" fill="black"/>
<path d="M269.22 503.548L307.395 486.302L308.174 487.944C305.172 489.168 302.161 490.352 299.191 491.636C290.187 495.517 281.225 499.468 272.19 503.299C271.328 503.668 270.165 503.399 269.136 503.419L269.22 503.548Z" fill="black"/>
<path d="M329.297 403.615L320.895 420.841C318.507 416.044 323.886 405.426 329.297 403.615Z" fill="black"/>
<path d="M861.266 539.374C854.942 545.016 848.628 550.669 843.965 554.838L859.771 537.662L861.266 539.374Z" fill="black"/>
<path d="M383.33 403.495C388.906 404.49 397.412 413.865 397.557 419.268L383.33 403.495Z" fill="black"/>
<path d="M883.345 519.142C883.89 519.142 884.332 515.765 884.332 511.599C884.332 507.433 883.89 504.056 883.345 504.056C882.8 504.056 882.358 507.433 882.358 511.599C882.358 515.765 882.8 519.142 883.345 519.142Z" fill="black"/>
<path d="M824.067 567.606L837.028 558.56L837.931 559.645L825.044 568.601L824.067 567.606Z" fill="black"/>
<path d="M646.671 584.215V500.782C637.325 501.289 628.664 501.856 620.044 502.185C615.651 502.344 614.519 504.722 614.582 508.335C614.831 522.267 615.059 536.199 615.267 550.131C615.067 551.038 614.75 551.917 614.322 552.749C613.668 551.256 613.055 550.49 613.045 549.713C612.733 533.744 612.484 517.776 612.297 501.807C612.297 500.811 612.795 499.229 613.554 498.891C620.958 495.527 628.29 491.756 636.92 492.472C637.532 492.522 638.114 492.88 638.883 494.214L623.461 497.07C623.461 497.517 623.554 497.955 623.606 498.393H645.498L614.104 456.248L615.599 455.253L643.639 491.258C644.085 490.711 644.48 490.442 644.449 490.263C642.195 475.883 638.561 461.861 625.756 452.576C621.498 449.471 615.371 448.596 609.877 447.222C598.184 444.237 593.033 452.676 587.643 459.831C581.319 468.2 580.374 478.032 580.747 487.447C591.34 491.905 602.431 494.681 607.676 506.096C595.567 515.739 597.343 529.243 597.156 542.22C597.156 543.703 597.374 545.205 597.384 546.668C597.467 557.267 598.423 558.381 609.545 559.227C611.3 559.366 613.159 558.142 614.81 557.595C617.243 558.64 619.757 559.502 622.329 560.172C628.56 561.406 634.915 562.222 641.188 563.367C641.837 563.546 642.437 563.86 642.945 564.286C643.453 564.713 643.857 565.242 644.127 565.835L596.637 560.182C596.979 560.73 596.543 560.342 596.491 559.904C594.528 544.976 592.846 530.119 597.685 515.44C598.643 512.81 600.108 510.376 602.006 508.265C604.29 505.638 603.273 504.215 600.801 502.782C595.276 499.577 589.253 499.796 583.261 500.712C582.222 500.861 580.862 502.623 580.747 503.747C580.351 507.662 580.209 511.598 580.322 515.53C580.581 525.322 580.966 535.124 581.36 544.917C581.755 554.709 582.316 564.262 582.793 573.935L584.32 574.811L599.96 562.402L601.081 563.566L584.393 578.841L644.355 584.962C644.293 585.519 644.231 586.076 644.158 586.634L580.187 580.842C580.187 576.921 580.187 573.289 580.187 569.666C580.021 554.132 579.917 538.587 579.626 523.053C579.377 509.529 578.421 495.995 578.65 482.481C578.878 468.668 582.658 455.721 595.588 447.65C599.742 445.103 605.734 443.55 610.5 444.187C620.885 445.59 629.557 449.82 635.642 459.423C643.836 472.36 645.944 486.621 648.333 500.821C649.787 509.479 648.956 518.515 648.894 527.372C648.811 539.911 648.478 552.45 648.281 564.999C648.198 570.432 648.219 575.866 648.135 581.3C648.05 582.305 647.887 583.303 647.647 584.285L646.671 584.215ZM595.401 497.746C595.463 497.279 595.515 496.811 595.577 496.353L580.706 490.173C579.532 495.507 581.101 498.015 586.428 497.766C589.409 497.627 592.41 497.746 595.401 497.746Z" fill="black"/>
<path d="M684.369 523.451C680.142 536.667 680.308 550.141 681.523 563.715C681.783 566.701 683.102 567.835 685.843 568.154C697.142 569.48 708.441 570.807 719.74 572.134C723.182 572.381 726.598 572.883 729.959 573.637C733.884 574.722 734.393 573.249 734.269 570.005C733.915 561.436 733.801 552.868 733.656 544.29C733.67 543.74 733.821 543.202 734.095 542.719C734.37 542.236 734.76 541.823 735.234 541.513C735.525 546.728 735.909 551.942 736.086 557.167C736.294 563.387 735.847 569.666 736.595 575.816C737.062 579.648 739.16 583.3 740.749 586.962C740.884 587.27 742.473 586.962 744.155 586.962C743.719 589.4 743.168 592.455 742.66 595.311L660.348 589.131V569.975V570.034L663.09 580.981C663.35 581.976 663.599 582.971 663.859 584.026L665.479 584.126C665.943 582.136 666.231 580.112 666.341 578.075C666.133 568.661 665.821 559.247 665.406 549.833C664.72 533.96 663.952 518.097 663.204 502.234C663.028 498.453 665.219 497.259 669.3 498.811C675.08 501.192 681.023 503.187 687.09 504.782C685.903 503.412 684.578 502.159 683.133 501.04C678.252 497.925 673.34 494.821 668.231 492.084C664.98 490.342 665.209 487.954 666.849 485.944C676.559 474.002 686.508 462.199 696.966 449.66C700.497 453.93 703.799 458.01 707.205 462.01C715.513 471.683 723.821 481.306 732.077 491.009C732.952 491.988 733.505 493.193 733.666 494.472C734.497 507.598 735.214 520.734 735.899 533.861C735.909 534.49 735.76 535.113 735.465 535.676C735.171 536.239 734.739 536.726 734.206 537.095C733.417 526.616 732.638 516.137 731.745 504.195C722.264 506.086 713.686 507.519 705.305 509.678C703.571 510.126 701.494 513.191 701.442 515.112C701.099 526.815 701.307 538.538 701.286 550.251C701.286 551.743 701.016 553.236 700.871 554.719L699.084 554.659V512.584L697.007 511.589L685.272 522.645C687.277 519.092 689.271 515.54 691.908 510.872L667.389 500.155L665.697 501.15C666.707 526.108 667.711 551.07 668.708 576.035L670.411 576.403C674.005 573.179 678.148 570.074 678.429 564.81C678.834 557.058 677.899 549.196 678.886 541.543C679.664 535.393 682.468 529.422 684.369 523.451ZM728.235 493.268L728.806 494.502L710.996 504.513C716.127 504.464 721.242 503.951 726.272 502.981C727.954 502.682 730.748 501.986 730.904 501.11C731.34 498.682 731.62 495.378 730.26 493.656C721.672 482.819 712.606 472.31 703.716 461.732C701.784 459.443 699.635 457.323 697.589 455.134C695.418 457.214 693.061 459.114 691.109 461.393C684.753 468.691 678.498 476.059 672.343 483.496C671.034 485.078 670.37 487.148 669.643 488.531C677.12 494.303 683.943 499.767 691.005 504.941C694.619 507.588 698.43 513.549 702.896 505.588C703.218 505.011 704.453 504.951 705.201 504.593C711.204 501.379 717.165 498.085 723.209 494.95C724.836 494.238 726.525 493.662 728.256 493.228L728.235 493.268ZM740.603 592.863C739.305 589.47 737.747 586.644 737.187 583.648C736.148 578.284 732.7 576.264 727.591 575.607C712.741 573.706 697.911 571.686 683.06 569.855C682.393 569.795 681.719 569.868 681.083 570.07C680.447 570.272 679.861 570.599 679.363 571.03C674.96 575.866 670.775 580.892 666.517 585.847C666.756 586.425 666.984 587.002 667.213 587.579L740.603 592.863Z" fill="black"/>
<path d="M660.349 569.975C660.058 559.028 659.746 548.181 659.487 537.284C659.217 525.71 658.614 514.137 658.843 502.573C659.165 485.874 662.166 469.653 674.036 456.557C677.536 452.696 682.759 449.033 687.796 447.999C694.487 446.757 701.383 446.974 707.974 448.635C715.794 450.566 721.848 455.93 725.795 463.175C724.922 462.388 723.988 461.662 723.209 460.816C714.205 450.954 702.958 447.222 689.53 449.442C688.503 449.496 687.502 449.771 686.602 450.248C674.14 459.114 664.274 469.554 662.934 485.377C662.228 493.706 660.463 501.976 660.276 510.255C660.068 519.321 661.314 528.407 661.595 537.503C661.875 546.598 661.678 555.943 661.595 565.168C661.595 566.77 660.805 568.363 660.369 569.975H660.349Z" fill="black"/>
<path d="M731.901 473.445C738.298 483.197 741.185 493.885 741.964 505.22C742.732 516.256 744.249 527.233 744.799 538.269C745.121 544.827 744.082 551.425 743.927 558.013C743.75 565.407 743.927 572.811 743.127 580.205C743.127 567.188 743.75 554.142 742.982 541.175C741.943 523.74 740.167 506.345 737.924 488.979C737.239 483.645 733.988 478.669 731.901 473.445Z" fill="black"/>
<path d="M584.964 483.824C585.348 481.306 585.109 479.794 585.784 478.928C593.054 469.603 600.323 460.319 607.832 451.193C608.517 450.357 610.77 450.705 612.442 451.193C600.313 459.413 595.806 472.987 584.964 483.824Z" fill="black"/>
<path d="M674.597 439.191C662.924 444.326 658.448 453.87 657.067 466.498C653.339 455.273 663.651 439.938 674.597 439.191Z" fill="black"/>
<path d="M634.313 439.968C642.735 441.013 652.092 455.512 649.787 464.797C646.183 454.955 644.023 445.222 634.313 439.968Z" fill="black"/>
<path d="M580.052 442.734C572.782 447.66 569.947 455.024 568.109 463.901C564.63 456.368 571.775 444.476 580.052 442.734Z" fill="black"/>
<path d="M533.434 877L532.686 876.751L11.5688 706.311L1.74463 662.385L48.5289 647.458L41.2594 607.801L42.2979 607.313L305.203 486.302L305.671 459.194L257.9 479.097L260.05 372.924L261.452 372.815L468.725 356.017L462.494 129.032C462.494 128.713 462.099 97.5452 473.481 66.3372C488.737 24.6501 517.773 1.76156 557.527 0.109602C596.688 -1.5125 623.991 15.843 639.931 30.7007C650.268 40.2101 658.871 51.3101 665.385 63.5408L886.813 355.4L884.736 450.935H878.702L882.534 485.765H921.353L921.821 486.402L1175.51 828.964L747.447 733.688L533.434 877ZM14.2481 704.032L532.946 873.686L746.803 730.444L747.478 730.593L1168.22 824.247L919.744 488.721H879.689L875.203 447.919H881.683L883.76 356.365L662.695 65.0534L662.633 64.9141C656.226 52.959 647.805 42.0987 637.709 32.7706C622.152 18.3607 595.671 1.50282 557.672 3.08511C518.77 4.70722 491.478 26.2822 476.545 67.2029C465.319 97.9433 465.693 128.644 465.703 128.952L471.934 358.734L470.47 358.853L263.155 375.651L261.151 474.49L308.921 454.587L308.35 488.183L307.488 488.581L44.7487 609.493L52.0182 649.458L5.2859 664.385L14.2481 704.032Z" fill="black"/>
<path d="M524.586 816.265L523.911 816.066L0 662.444L51.7898 645.855L52.226 645.965L592.67 775.225L524.586 816.265ZM10.2292 662.315L524.139 813.041L584.829 776.459L51.9248 649L10.2292 662.315Z" fill="black"/>
<path d="M591.351 775.972L584.195 706.43L48.4458 609.114L49.0274 606.178L587.072 703.913L594.456 775.683L591.351 775.972Z" fill="black"/>
<path d="M1267.75 875.288L984.577 542.289L954.783 534.925L955.562 532.039L986.343 539.642L986.665 540.03L1270.17 873.407L1267.75 875.288Z" fill="black"/>
<path d="M1290.62 842.478L1057.32 579.17L1010.11 571.298L1010.64 568.363L1058.97 576.413L1293 840.537L1290.62 842.478Z" fill="black"/>
<path d="M529.198 812.442L526.114 812.89L535.719 873.638L538.803 873.19L529.198 812.442Z" fill="black"/>
</g>
<defs>
<clipPath id="clip0_29_31">
<rect width="1293" height="877" fill="white"/>
</clipPath>
</defs>
</svg>
