<svg width="1184" height="1314" viewBox="0 0 1184 1314" fill="none" xmlns="http://www.w3.org/2000/svg">
<g clip-path="url(#clip0_29_3)">
<path d="M359.2 220.06C357.07 220.06 354.69 220.68 352.85 219.94C333.65 212.15 313.85 205.36 295.6 195.81C281.11 188.26 266.31 180.01 255.6 166.93C250.262 160.356 245.508 153.329 241.39 145.93C237.11 138.028 233.284 129.888 229.93 121.55C227.78 116.43 226.41 110.97 224.83 105.62C220.76 91.79 217.94 77.44 212.43 64.22C206.34 49.61 198.18 35.73 186.83 24.28C178.61 15.99 168.33 11.28 157.11 8.50998C151.176 7.00699 145.164 5.83518 139.1 4.99998C187.37 31.37 206.77 76.24 218.18 126.31L213.18 120.01C211.11 123.84 209.31 127.18 207.5 130.51L205.5 129.31C207.08 126.69 208.28 123.7 210.35 121.55C214.16 117.55 213.64 114.2 210.03 110.13C207.8 113.25 205.79 116.04 203.79 118.83L202.46 118.08C203.94 115.23 204.72 111.47 207.03 109.7C211.76 106.08 208.68 103.43 207.03 99.36L201.46 107.15L199.92 106C202.13 103.17 204.33 100.34 206.79 97.2C204.22 81.94 185.79 44.56 176.44 40.41C182.83 42.88 176.78 53.41 186.18 53.48C183.88 60.05 184.62 61.48 190.28 63.48C189.87 65.85 188.75 68.25 189.2 70.3C192.82 86.66 196.44 103.02 200.64 119.23C203.47 130.13 207.23 140.79 210.57 151.56H212.39C214.21 147 216.027 142.44 217.84 137.88C219.46 146.12 211.63 153.52 216.22 161.59L217.94 161.86C219.647 157.193 221.36 152.527 223.08 147.86L224.71 148.41C223.86 151.41 222.78 154.41 222.23 157.48C221.08 163.87 216.67 170.67 224.38 176.48C225.08 173.4 225.61 170.42 226.47 167.48C227.22 164.94 228.33 162.48 229.28 160.04L230.87 160.62C229.77 170.53 222.75 180.89 233.59 191.11C234.69 183.38 235.65 176.62 236.59 169.85L237.83 169.16C238.5 170.94 239.94 172.81 239.72 174.48C238.93 180.56 237.39 186.54 236.57 192.62C236.34 194.4 237.57 196.37 238.14 198.26L239.55 197.89C240.68 192.46 240.88 186.6 243.19 181.73C245.38 177.08 244.43 174.01 241.88 170.45C236.94 163.55 231.39 156.97 227.39 149.56C223.39 142.15 221.08 134 218 126.14C220.88 132.51 223.09 139.31 226.78 145.14C234.36 157.14 242.73 168.71 250.86 180.57C246.74 178.12 244.86 181.14 244.55 184.38C243.85 190.75 243.89 197.21 243.79 203.63C243.79 204.48 244.7 205.35 246.63 206.26L250.41 185.69L252.16 185.95C254.36 195.69 244.32 207.2 256.59 216.42C257.19 211.89 257.71 208.08 258.18 204.26C258.31 203.18 258 201.98 258.39 201.03C260.84 195.03 262.39 189.31 255.67 184.76C260.89 188.96 266.52 192.76 271.24 197.43C281.17 207.28 293.24 213.77 305.24 220.43C315.97 226.43 327 231.88 338.06 237.26C363.22 249.49 390.06 256.98 416.88 264.41C425.75 266.87 434.46 269.92 443.31 272.41C450.05 274.32 456.91 275.8 464.99 277.79C463.85 272.56 462.84 268.64 462.19 264.67C461.81 262.35 462.19 259.91 461.88 257.57C461.49 254.57 461.4 251.33 460.02 248.83C457.77 244.73 459.64 243.83 463.02 243.88C492.13 244.31 521.24 244.57 550.33 245.4C569.397 245.953 588.447 247 607.48 248.54C616.667 249.362 625.76 251.012 634.65 253.47C652 258.2 660.9 271 665.47 287.5C666.66 291.84 668.73 296.03 669.32 300.43C670.89 312.16 681 317.72 687.1 326.15C692.29 333.32 697.51 340.47 702.88 347.5C709.12 355.66 715.88 363.42 721.78 371.83C730.36 384.1 738.27 396.83 746.57 409.3C750.02 414.48 754.03 419.3 757.24 424.64C759.354 428.464 761.095 432.483 762.44 436.64C763.85 440.52 764.6 444.64 766.18 448.46C766.648 449.14 767.28 449.691 768.018 450.062C768.755 450.433 769.575 450.611 770.4 450.58C787.75 446.35 805.13 442.22 822.3 437.33C836.51 433.33 850.61 428.71 864.46 423.58C881.58 417.25 898.69 410.75 915.22 403.07C924.46 398.78 932.84 392.38 941.05 386.2C955.05 375.69 965.95 362.2 976.05 348.08C980.62 341.68 983.91 334.26 987.05 326.98C991.161 317.805 994.698 308.384 997.64 298.77C1003.64 278.14 1008.8 257.27 1014.48 236.55C1017.39 225.93 1020.39 215.33 1023.84 204.88C1027.84 192.71 1031.73 180.44 1036.84 168.74C1041.09 159.171 1046.26 150.041 1052.29 141.48C1064.41 124.15 1080.41 111.01 1099.42 101.69C1103.42 99.69 1107.86 98.43 1112.09 96.83C1118.31 94.48 1124.53 92.11 1130.75 89.77C1131.68 89.42 1132.65 89.16 1133.6 88.86L1134.6 90.45C1130.31 93.36 1126.27 96.77 1121.68 99.08C1106.82 106.57 1093.49 115.9 1083.47 129.35C1067.02 151.45 1055.77 175.8 1050.96 203.15C1046.57 228.15 1041.57 252.96 1036.4 277.77C1031.98 299.05 1027.68 320.4 1021.96 341.35C1016.36 361.84 1008.03 381.6 995.1 398.57C983.75 413.46 971.32 427.7 955.48 438.39C947.15 444.01 939.37 450.39 931.12 456.16C918.5 464.927 905.793 473.54 893 482C882 489.21 870.66 495.92 859.69 503.17C849.8 509.7 840.21 516.69 830.47 523.45C823.79 528.08 817.1 532.71 810.36 537.26C798.1 545.54 785.82 553.783 773.52 561.99C772.91 562.4 772.25 562.74 770.91 563.54C775.06 568.78 778.63 573.45 782.39 577.95C783.336 579.048 784.607 579.815 786.02 580.14C799.66 582.73 813.23 586.14 827.02 587.43C844.02 589.03 861.19 589.17 878.24 586.56C880.3 586.25 882.59 587.38 884.77 587.84C884.25 589.78 884.21 592.07 883.11 593.59C875.637 603.81 868.053 613.947 860.36 624C851.513 635.547 842.54 647 833.44 658.36C831.35 660.96 828.73 663.42 824.76 660.87C815.35 654.87 804.42 653.43 793.76 652.1C786.58 651.2 779.02 652.64 771.7 653.57C758.287 655.363 745.31 659.574 733.4 666C734.738 667.138 736.155 668.181 737.64 669.12C748.5 674.88 759.387 680.593 770.3 686.26C780.06 691.34 789.93 696.26 799.64 701.42C813.19 708.63 826.55 716.2 840.18 723.26C845.86 726.21 852.1 728.05 857.9 730.8C860.9 732.24 863.43 734.8 866.4 736.44C873.45 740.33 881.13 743.28 887.65 747.89C898.78 755.75 907.65 765.6 913.14 778.62C918.75 792.01 920.72 805.91 922.74 820.1C924.817 834.248 924.479 848.645 921.74 862.68C919.86 872.2 916.74 881.53 913.45 890.68C912.1 894.5 912.69 897.26 914.18 900.74C919.4 912.83 924.56 925 929 937.43C931 943.09 931.21 949.43 932.47 956.79C937.88 951.19 942.54 946.07 947.47 941.28C955.47 933.61 963.47 925.98 971.75 918.65C980.03 911.32 988.75 904.65 996.94 897.37C1009.16 886.56 1021.38 875.72 1033.14 864.37C1042.43 855.45 1048.54 844.7 1052.73 832.15C1058.42 815.09 1070.07 802.79 1088.13 797.15C1100.29 793.36 1108.13 785.15 1110.65 771.94C1113.13 758.485 1116.36 745.177 1120.32 732.08C1122.04 726.53 1126.68 721.82 1130.32 716.96C1130.89 716.439 1131.58 716.069 1132.33 715.884C1133.08 715.699 1133.86 715.704 1134.61 715.9C1135.61 716.31 1136.45 718.49 1136.35 719.81C1135.66 729.38 1134.74 738.93 1133.85 748.48C1132.13 766.81 1130.37 785.14 1128.53 804.57C1132.67 799.97 1137.29 796.5 1139.53 791.86C1141.77 787.22 1142.29 781.45 1142.53 776.13C1143.11 759.89 1142.7 743.6 1143.53 727.38C1144.4 710.88 1146.34 694.44 1147.77 677.97C1147.69 676.709 1147.49 675.457 1147.19 674.23C1141.37 680.07 1139.07 686.53 1137.98 693.34C1137.15 698.49 1137.47 703.82 1136.91 709.03C1136.73 710.66 1135.3 712.14 1134.45 713.69C1133.88 712.04 1132.68 710.33 1132.83 708.75C1133.55 701.03 1134.03 693.21 1135.75 685.69C1137.31 678.89 1139.56 671.86 1147.75 669.26C1145.57 659.38 1150.24 650.76 1152.23 641.68C1152.46 640.6 1153.04 639.626 1153.88 638.91C1162.08 633.02 1162.2 622.91 1166.61 615.1C1169.05 610.95 1172.33 607.353 1176.24 604.54C1180.15 601.67 1183.88 604.27 1183.24 609.14C1182.68 613.42 1180.73 617.56 1180.44 621.83C1179.18 640.05 1178.18 658.283 1177.44 676.53C1177.21 682.26 1178.25 688.03 1178.38 693.79C1178.44 695.879 1177.95 697.947 1176.97 699.79C1172.24 708.05 1166.81 715.94 1162.55 724.43C1161.01 727.955 1160.84 731.926 1162.07 735.57C1164.59 742.4 1161.25 747.18 1158.07 752.15C1150.57 763.75 1143.7 775.47 1146.41 790.21C1146.46 790.81 1146.4 791.415 1146.21 791.988C1146.03 792.562 1145.73 793.093 1145.34 793.55C1139.48 799.9 1132.98 805.74 1127.76 812.55C1125.09 816.05 1124.48 821.21 1123.21 825.7C1120.56 835 1118.15 844.37 1115.46 853.7C1114.93 854.933 1113.98 855.935 1112.77 856.52C1106.34 859.98 1099.18 862.44 1093.49 866.83C1085.7 872.757 1078.58 879.521 1072.26 887C1064.17 896.68 1056.34 906.82 1050.06 917.73C1035.9 942.32 1022.57 967.41 1009.29 992.5C1002.7 1004.96 997.71 1018.3 990.7 1030.5C976.12 1055.86 960.86 1080.94 940.23 1101.96C926.717 1115.77 911.285 1127.55 894.41 1136.96C881.71 1144.05 867.93 1147.46 854.76 1152.77C849.76 1154.77 843.76 1154.17 838.28 1154.69C836.84 1154.82 835.38 1154.6 833.93 1154.69C823.93 1155.05 821.76 1153.69 817.42 1144.31C808.13 1124.31 798.72 1104.31 789.49 1084.22C783 1070.13 776.76 1055.92 770.37 1041.78C767.02 1034.39 763.59 1027.04 759.9 1019.05C756.96 1026.5 753.9 1033.65 751.27 1040.94C742.48 1065.02 733.52 1089.05 725.21 1113.3C720.35 1127.49 716.63 1142.06 712.33 1156.44C708.56 1169.06 704.78 1181.68 700.75 1194.22C700.376 1195.11 699.829 1195.91 699.143 1196.58C698.456 1197.26 697.643 1197.79 696.75 1198.15C674.29 1206.41 655.09 1219.58 640.16 1238.09C632.99 1246.98 627.31 1257.42 622.6 1267.9C616.25 1282.03 609.43 1296.21 608.36 1312.13C608.36 1312.58 607.8 1312.99 607.25 1313.77C602.62 1308.7 602.37 1302.64 602.51 1296.61C603.1 1271.11 603.84 1245.61 604.51 1220.12C604.81 1207.86 605.27 1195.6 605.18 1183.34C605.11 1172.11 604.33 1160.89 603.98 1149.66C602.9 1114.55 601.85 1079.43 600.83 1044.32C600.457 1031.51 600.183 1018.7 600.01 1005.88C599.93 1000.31 600.01 994.72 600.5 989.18C600.728 987.26 601.697 985.505 603.2 984.29C603.94 983.76 606.4 985.02 607.68 986C632.31 1004.94 660.18 1011.44 690.68 1007.84C696.77 1007.12 702.95 1006.69 708.91 1005.34C714.347 1004.17 719.622 1002.35 724.62 999.91C736.01 994.15 747.62 988.53 758.16 981.46C767 975.55 774.66 968.17 778 956.92C781.12 946.42 786.36 936.56 790.38 926.31C793.25 919.01 795.55 911.49 798.31 904.15C799.85 900.06 802.31 896.27 803.48 892.15C804.95 887.05 805.59 881.71 806.57 876.46C806.8 875.22 806.57 873.73 807.2 872.78C807.83 871.83 809.36 871.11 810.48 870.3C811.22 871.36 812.48 872.36 812.62 873.48C813.43 880.84 813.54 888.29 814.74 895.57C816.86 908.43 820.28 921.04 827.41 932.11C835.51 944.67 843.41 957.48 852.96 968.93C859.07 976.27 867.9 981.34 875.51 987.42C876.604 988.07 877.447 989.071 877.9 990.26C846.67 984.33 828.71 962.03 812.79 935.65C817.42 1007.97 821.96 1079.02 826.55 1150.6C838.555 1151.54 850.627 1150.08 862.06 1146.3C883.925 1139.19 904.209 1127.92 921.8 1113.11C934.63 1102.36 946.8 1090.53 955.48 1076.01C965.2 1059.76 974.27 1043.1 983.03 1026.3C990.88 1011.3 997.69 995.66 1005.36 980.52C1017.28 956.99 1029.05 933.36 1041.87 910.31C1048.6 898.2 1057.28 887.16 1065.38 875.84C1067.55 872.84 1070.8 870.57 1073.55 867.97C1079.28 862.57 1084.66 856.73 1090.84 851.89C1096.58 847.4 1103.24 844.09 1109.34 840.04C1111.42 838.797 1113.17 837.085 1114.47 835.04C1120.3 824.36 1122.53 812.5 1123.95 800.68C1126.95 776.1 1129.08 751.44 1131.55 726.8C1131.52 725.843 1131.42 724.889 1131.23 723.95C1124.6 729.3 1122.36 736.47 1120.62 743.38C1118.06 753.53 1116.92 764.03 1114.75 774.29C1112.94 782.84 1108.75 790.29 1101.25 795.06C1096.44 798.06 1090.86 799.94 1085.56 802.15C1076.81 805.78 1070.56 812.47 1064 818.93C1056.7 826.08 1056.11 836.08 1052 844.53C1043.57 861.69 1030.79 875.07 1016.73 887.21C1001.57 900.29 985.2 911.97 969.88 924.87C961.688 931.992 953.984 939.656 946.82 947.81C937.98 957.58 929.63 967.81 921.31 978.03C918.96 980.92 917.74 984.7 915.56 987.76C912.47 992.1 908.56 995.88 905.73 1000.37C900.97 1007.96 896.8 1015.91 891.42 1023.8C891.76 1021.62 891.53 1019.12 892.54 1017.31C898.7 1006.25 905.48 995.53 911.34 984.31C914.334 978.75 916.407 972.743 917.48 966.52C920.29 948.39 920.82 930.3 914.79 912.43C910.33 899.22 902.24 888.43 893.54 878.06C884.423 867.247 878.762 853.946 877.29 839.88C876.54 833.17 877.16 826.3 877.16 819.5H878.85C880.99 829.23 882.75 839.07 885.38 848.66C887.797 857.665 893.003 865.674 900.25 871.54C903.5 874.16 908.45 874.68 913.7 876.54C915.54 869.77 918.08 863.84 918.64 857.73C920.94 832.83 919.34 808.21 911.3 784.29C906.13 768.9 895.9 757.74 881.16 751.55C874.72 748.84 867.16 748.47 859.99 747.94C843.63 746.73 827.3 747.18 811.94 753.94C796.58 760.7 782.75 769.83 773.55 784.59C771.46 787.94 768.75 790.91 765.97 794.52C756.166 789.613 745.244 787.371 734.3 788.02C711.54 789.14 689.94 794.94 671.64 807.93C657.62 817.7 646 831 634 843.53C627.211 850.784 621.118 858.658 615.8 867.05C608.13 878.84 600.05 890.64 599.63 905.62C599.63 906.95 597.8 908.23 596.82 909.53L594.74 908.87C593.98 892.637 593.22 876.407 592.46 860.18C591.96 849.18 591.38 838.18 591.05 827.09C590.81 818.93 586.63 812.67 581.34 807.19C573.97 799.54 566.1 792.37 558.49 784.95C550.72 777.36 543.12 769.57 535.22 762.12C527.9 755.21 520.22 748.7 512.81 741.86C510.35 739.58 508.97 740.86 507.6 742.8C498.85 755.37 490.28 768.06 481.37 780.51C469.18 797.51 456.7 814.39 444.37 831.37C439.47 838.15 434.8 845.1 429.95 851.92C421.283 864.053 412.617 876.157 403.95 888.23L402.44 887.81C402.25 883.74 401.87 879.68 401.9 875.62C401.99 862.1 402.18 848.62 402.4 835.07C402.6 822.95 403.04 810.83 403.08 798.71C403.08 790.31 402.43 781.91 402.46 773.52C402.51 760.22 403.15 746.92 403.07 733.62C402.99 720.32 402.39 706.87 401.91 693.5C401.26 675.5 400.49 657.5 399.83 639.5C399.74 637.17 399.83 635.3 402.97 634.14C405.6 633.14 407.59 630.26 409.66 628.02C416.66 620.48 423.09 612.43 430.56 605.43C435.05 601.24 436.56 596.43 436.87 591.02C437.54 579.11 433.87 567.62 426.43 559.17C419.78 551.6 409.63 547.09 400.98 541.29C399.98 540.6 398.64 540.38 397.53 539.79C397.14 539.58 396.99 538.94 396.72 538.48C403.2 536.01 420.55 542.57 428.94 551.87C436.94 560.75 443.89 570.62 451.42 580.21C453.8 577.59 457 574.42 459.71 570.88C460.137 570.162 460.393 569.356 460.459 568.524C460.525 567.692 460.398 566.856 460.09 566.08C457.322 560.803 454.288 555.67 451 550.7C439 532.64 432.76 512.54 430.57 491.21C428.96 475.59 428.75 459.82 427.16 444.21C426.204 435.969 424.449 427.841 421.92 419.94C420.77 416.2 417.02 413.34 415.12 409.73C413.82 407.27 413.67 404.2 413.01 401.4L414.72 400.57L410.88 398.34L414.23 391.03C405.32 390.48 396.46 390.43 387.74 389.29C372.5 387.29 357.24 385.15 342.17 382.15C327.1 379.15 312.94 373.66 300.73 364.2C296.39 360.83 293.02 356.11 289.52 351.76C280.98 341.16 273.94 329.69 269.52 316.76C268.35 313.36 266.36 310.24 264.04 305.55C267.33 306 269.12 305.72 270.23 306.47C286.11 317.1 304.11 316.47 322.07 316.89C333.07 317.16 344 318.74 354.95 319.89C363.72 320.81 372.5 321.73 381.22 323.06C405.89 326.81 426.72 337.92 444.03 357.29C447.79 351.62 451.89 346.71 454.35 341.08C455.35 338.8 453.35 334.6 451.68 331.88C444.017 318.876 432.871 308.273 419.5 301.27C406.63 294.65 393.42 288.38 378.98 285.17C371.29 283.47 364.08 279.74 356.58 277.11C345.71 273.31 334.84 269.49 323.85 266.04C308.61 261.24 295.07 253.4 282.57 243.64C274.92 237.64 267.15 231.8 259.99 225.27C245.81 212.34 232.71 198.43 223.06 181.6C212.85 163.81 204.47 145.21 199.32 125.37C195.24 109.65 192.82 93.51 188.56 77.85C183.7 59.95 176.21 43.14 163.93 28.76C151.75 14.48 136 7.25998 118.09 3.99998C115.27 3.48998 112.46 2.87998 109.65 2.26998C109.4 2.20998 109.24 1.71998 108.46 0.639978C113 0.419978 117.05 0.129978 121.09 -2.2348e-05C135.32 -0.330022 148.84 2.99998 162.5 6.74998C178.77 11.25 190.56 21.12 198.96 34.75C207.13 47.97 215.91 60.75 219.41 76.85C223.53 95.74 229.17 114.69 237.11 132.27C246.11 152.13 258.02 170.27 278.06 182.21C299.734 195.249 322.637 206.124 346.44 214.68C350.78 216.22 354.91 218.4 359.14 220.28L359.2 220.06ZM866 610C862 607.65 862.29 600.92 855.84 600.7L862.72 612.38L866 610C869.24 603.36 868.58 600.38 863.3 597.74L866 610ZM960.78 403.08C959.58 404.92 957.24 406.84 957.38 408.57C957.91 414.93 959.25 421.22 960.29 427.57L962.21 427.71C962.54 425.48 963.32 423.21 963.11 421.04C962.52 415.04 961.51 409.04 960.71 403.04C962 404.79 963.87 406.36 964.46 408.31C965.73 412.48 966.34 416.84 967.22 421.12L968.33 420.94V398L960.78 403.08ZM936 421.8C937.4 423.16 939.58 424.29 940.07 425.92C941.54 430.85 942.36 435.98 943.44 441.04C949.44 438.42 949.62 427.39 943.44 416.61C940.98 418.4 938.55 420.17 936.13 421.95C934.51 423.43 931.34 425.16 931.53 426.34C932.62 433.04 934.53 439.6 936.59 448.1C938 445.22 939.68 443.44 939.48 441.9C938.62 435.16 937.2 428.49 936 421.8ZM607.41 1287.65L608.58 1287.89C610.38 1284.01 612.21 1280.14 613.96 1276.23C618.96 1265.03 623.72 1253.69 629.03 1242.63C637.622 1224.53 650.967 1209.11 667.64 1198C675.16 1193 682.02 1186.69 691.56 1184.71C695.93 1183.81 701.12 1182.8 703.02 1176.41C710.353 1151.79 718.037 1127.28 726.07 1102.89C733.28 1081.11 741.22 1059.57 748.79 1037.89C751.93 1028.89 755.14 1019.89 757.92 1010.73C759.34 1006.05 757.35 1003.64 753.01 1004.37C737.89 1006.91 722.83 1009.82 707.71 1012.32C699.91 1013.61 691.93 1015.54 684.17 1015.04C671.93 1014.24 659.79 1011.76 647.65 1009.7C644.126 1008.94 640.693 1007.8 637.41 1006.31C626 1001.64 614 997.94 604 987.59C603.59 998.59 602.81 1008.1 603 1017.59C603.23 1032.4 604 1047.21 604.67 1062.02C605.263 1075.93 605.907 1089.83 606.6 1103.72C606.82 1108.06 607.6 1112.38 607.6 1116.72C607.83 1142.06 607.83 1167.39 608.1 1192.72C608.27 1208.82 609.1 1224.91 609.03 1241C608.88 1256.56 608 1272.1 607.41 1287.65ZM467.18 323.18C473.39 322.01 478.28 320.11 483.04 320.4C496.44 321.22 510.04 321.01 522.8 326.4C527.8 328.52 532.8 327.85 537.25 325.79C553.31 318.36 563.04 306 565.25 288.1C565.815 284.898 566.557 281.73 567.47 278.61H568.97C569.574 279.797 570.089 281.027 570.51 282.29C571.96 287.7 572.94 293.29 574.77 298.56C579.35 311.75 587.17 322.25 600.86 327.17C604.2 328.37 609.27 327.78 610.86 329.96C612.45 332.14 610.52 336.72 610.14 340.25C610.12 340.429 610.12 340.611 610.14 340.79C611.65 353.88 612.46 367.09 614.86 380.01C618.19 397.95 622.33 415.72 630.02 432.52C638.02 449.91 644.69 467.89 652.89 485.17C657.32 494.5 663.54 503.01 669.33 511.64C672.71 516.69 676.84 521.25 681.33 526.87C681.45 524.61 681.55 523.71 681.53 522.81C680.92 493.3 680.82 463.81 679.53 434.29C678.35 407.54 676.05 380.84 673.84 354.15C672.95 343.39 671.17 332.69 669.51 322C667.03 306.06 657.11 298.41 641.51 296.71C635.69 296.08 630.02 294.05 624.28 292.71L624.53 291.14C625.672 290.911 626.835 290.803 628 290.82C633.38 291.47 638.72 292.56 644.11 292.87C648.77 293.13 653.93 293.16 656.33 287.95C658.26 283.78 658.79 278.88 655.33 275.52C651.055 271.364 646.242 267.799 641.02 264.92C629.15 258.52 616.29 254.42 602.8 254.2C588.49 253.97 574.8 256.39 568.29 271.95C567.643 273.007 566.882 273.99 566.02 274.88C565.47 273.3 565.42 272 564.76 271.48C557.48 265.79 549.76 260.92 540.33 259.71C530.25 258.42 520.18 256.87 510.06 256.17C497.45 255.29 484.78 255.17 472.13 254.74C470.23 254.68 468.33 254.9 465.53 255.04C466.9 259.35 467.71 263.04 469.21 266.43C472.85 274.64 477.79 281.83 486.07 286.2C498.15 292.58 511.34 294 524.63 295.11C525.996 295.303 527.348 295.58 528.68 295.94L528.35 298.42L473.85 293.76C465.25 301.27 467.77 312.16 467.18 323.18ZM551.41 599.09C547.97 597.4 545.41 595.74 542.54 594.77C521.43 587.62 510.31 572.28 507.54 550.86C506.41 542.27 503.31 535.1 497.6 527.61C493.74 533.37 490.23 538.68 486.6 543.94C484.861 546.68 482.961 549.315 480.91 551.83C465.39 569.637 449.813 587.397 434.18 605.11C426.55 613.74 418.86 622.33 410.9 630.66C403.73 638.18 403.55 638.02 410.8 645.36C412.19 646.76 413.58 648.18 415.08 649.47C423.59 656.75 432.37 663.74 440.62 671.3C459.16 688.3 477.41 705.58 495.83 722.7C502.83 729.22 510.08 735.5 517.08 742.03C526.44 750.75 535.66 759.62 544.95 768.42C552.157 775.253 559.37 782.083 566.59 788.91C573.69 795.61 580.8 802.28 587.76 808.83C587.76 801.31 587.89 794.28 587.76 787.25C587.25 763.59 586.71 739.92 585.96 716.25C585.88 713.83 585.04 710.41 583.34 709.25C576.53 704.63 569.19 700.79 562.13 696.51C550.23 689.3 541.55 679.27 535.04 666.93C523.21 644.55 528.8 610.87 551.41 599.09ZM597.27 896.2H598.03C599.6 891.32 600.79 886.28 602.82 881.59C610.6 863.59 623.9 849.19 636.11 834.36C645.68 822.74 657.42 812.69 669.21 803.21C678.55 795.69 688.85 788.75 699.77 783.93C715.031 777.024 731.706 773.814 748.44 774.56C752.2 774.76 755.97 774.56 760.83 774.56C758.43 765.79 756.75 757.67 754 749.94C746.87 729.88 738.8 710.15 732.06 689.94C728.53 679.37 723.81 669.26 721.2 658.29C717.2 641.68 712.15 625.29 707.07 609.02C702.2 593.36 696.78 577.88 691.5 562.36C689.14 555.36 683.99 552.24 676.94 554.66C666.15 558.35 657.24 565.2 649.46 573.58C655.306 571.291 661.01 568.653 666.54 565.68C673.19 562.11 680.09 561.94 687.09 563.89C688.83 564.38 690.23 566.12 690.63 566.42C687.14 570.19 684.14 573.06 681.63 576.28C676.48 582.82 674.63 591.87 666.41 596.11C665.34 596.66 664.95 598.56 663.73 600.75C673.45 596.04 679.26 589.47 687.19 575.36C687.86 574.16 689.66 573.59 690.94 572.73C691.08 574.18 691.8 575.91 691.26 577.03C687.274 585.622 684.762 594.824 683.83 604.25C682.52 615.25 679.83 626.18 677.61 637.09C674.46 652.25 671.12 667.37 667.77 682.95C671.298 684.164 674.763 685.556 678.15 687.12C679.28 687.71 680.72 689.91 680.39 690.75C677.52 698.14 675.22 706 670.9 712.5C666.28 719.45 659.9 725.33 653.8 731.16C652.771 731.99 652.01 733.107 651.615 734.369C651.22 735.63 651.208 736.981 651.58 738.25C654.06 750.68 655.04 762.87 652.26 775.71C648.47 793.26 638.26 804.17 622.44 810.8C619.241 811.976 615.847 812.533 612.44 812.44C606.23 812.44 600.02 811.93 593.44 811.62C594.72 840.35 596 868.28 597.27 896.2ZM673.49 314.66L672.13 315.55C673.54 321.45 675.63 327.28 676.23 333.26C678.17 352.7 679.59 372.18 681.15 391.65C682 402.12 683.03 412.59 683.44 423.07C684.02 438.16 684.09 453.27 684.44 468.37C684.63 477.71 684.97 487.04 685.04 496.37C685.12 506.09 683.86 515.97 685.2 525.49C686.48 534.63 690.78 543.3 692.9 552.37C694.03 557.23 696.48 559.37 700.9 560.49C720.03 565.15 739.13 569.95 758.26 574.58C762.85 575.7 767.54 576.38 772.18 577.27L772.89 575.78C768.83 570.78 764.46 566.06 760.78 560.84C753.11 549.96 746.17 538.56 738.26 527.84C730.09 516.84 728.67 504.84 731.13 491.97C731.71 488.97 733.02 486.09 733.47 483.08C736.1 465.21 743.59 448.9 750.47 432.54C752.62 427.43 752.28 424.27 749.8 420.43C741.89 408.2 734.33 395.68 725.8 383.91C710.61 363.03 694.8 342.6 679.22 322C677.31 319.57 675.39 317.12 673.49 314.66ZM1097.49 108.17C1096.44 108.424 1095.41 108.759 1094.41 109.17C1080.19 117.49 1067.54 127.91 1058.41 141.52C1050.24 153.643 1043.12 166.435 1037.11 179.76C1031.75 191.76 1028.3 204.62 1024.66 217.3C1020.96 230.16 1018.28 243.3 1014.76 256.24C1011.43 268.46 1007.54 280.53 1003.99 292.69C997.38 315.34 989.49 337.23 975.43 356.69C961.878 375.599 944.502 391.448 924.43 403.21C899 418.21 870.9 427.29 842.88 435.68C811.68 445.03 779.68 451.68 748.07 459.68C746.19 460.15 743.82 462.04 743.25 463.79C740.51 472.17 738.25 480.71 735.95 489.24C734.83 493.43 734.07 497.72 732.95 502.93C737.05 502.34 739.85 502.4 742.29 501.5C763.29 493.76 784.29 485.96 805.29 477.92C814.53 474.36 823.52 470.15 832.64 466.3C845.27 460.96 858.02 455.91 870.52 450.3C884.23 444.16 897.84 437.79 911.26 431.05C921.26 426.05 931.42 421.11 940.47 414.68C957.23 402.76 972.8 389.55 985.6 372.94C995.44 360.18 1002.39 346.11 1008.53 331.66C1015.92 314.29 1021.31 296.09 1028.02 278.42C1035.29 259.157 1040.39 239.143 1043.23 218.75C1043.78 214.88 1045.83 211.25 1046.76 207.41C1049.49 196.09 1051.61 184.62 1054.7 173.41C1059.23 156.98 1068.98 143.14 1078.57 129.41C1083.69 122.07 1090.59 115.78 1097.45 108.17H1097.49ZM545.83 544.82C547.76 539.73 550.66 534.16 551.95 528.25C555.19 513.47 558.25 498.61 560.35 483.64C562.36 469.505 563.599 455.27 564.06 441C564.47 427.11 563.59 413.16 562.93 399.26C562.27 385.36 560.83 371.87 553.41 359.64C545.09 345.93 535.48 333.91 519.12 329.22C515.51 328.22 513.42 328.41 513.12 332.51C512.67 338.73 511.88 344.96 512.04 351.17C512.39 365.37 513.46 379.56 513.83 393.76C514.5 419.32 514.92 444.88 515.34 470.45C515.66 490.01 515.76 509.58 516.14 529.13C516.14 530.69 517.27 533.07 518.52 533.62C527.19 537.42 536 540.85 545.83 544.82ZM584.71 597.33C585.71 591.33 587.54 585.67 587.5 580.02C587.39 564.3 586.5 548.59 585.95 532.87C585.1 507.61 583.95 482.34 583.63 457.07C583.37 438.82 584.02 420.56 584.48 402.31C585.02 381.41 587.21 360.78 596.59 341.64C598.2 338.656 599.966 335.758 601.88 332.96C594.66 327.43 586.88 323.14 581.48 316.86C576.08 310.58 572.79 302.21 568.4 294.42C562.57 311.76 551.55 324.71 533.4 331.13C545.81 339.83 553.19 351.46 559.31 363.69C565.82 376.69 566.47 391.26 567.09 405.52C567.78 421.41 567.91 437.33 567.81 453.23C567.7 469.46 567 485.68 566.58 501.9C566.24 514.72 565.82 527.54 565.63 540.35C565.47 551.17 565.63 561.98 565.63 572.79L563.54 573.88C561.91 572.24 559.79 570.88 558.72 568.88C548.95 551.01 533.23 541.51 513.53 536.07C512.68 539.25 511.03 542.14 511.37 544.78C512.023 550.981 513.381 557.087 515.42 562.98C520.12 575.52 528.42 584.98 541.32 589.87C546.05 591.68 550.41 594.46 555.87 597.28C564.46 593.49 574.56 594.81 584.71 597.33ZM594.19 740.33C597.03 735.33 606.8 735.33 616.64 740.33C635.36 749.78 640.83 764.33 633.16 785.26C631.03 791.06 626.02 797.38 620.63 800.04C612.25 804.2 602.44 805.82 592.4 801.86C592.97 803.86 593.74 806.07 595.14 806.58C597.64 807.49 600.6 807.03 603.23 807.69C615.58 810.78 625.62 805.69 634.93 798.64C641.93 793.4 646.42 785.55 646.28 777.34C646.03 762.76 638.76 750.52 628.97 739.83C627.97 738.76 627.62 737.14 626.97 735.83C630.65 735.36 633.5 735.25 636.23 734.61C648.66 731.72 657.95 724.29 664.85 713.84C667.91 709.2 670.1 703.99 673.03 699.26C676.98 692.9 676.03 689.37 668.81 687.82C655.252 684.813 641.06 686.952 628.99 693.82C619.799 698.831 610.892 704.346 602.31 710.34C597.87 713.48 592.77 717.65 591.22 722.42C588.86 729.69 589.31 737.88 588.6 745.29C599.29 747.86 608.6 748.76 614.67 758.02C622.82 770.47 614.89 786.86 601.93 789.83C599.68 790.34 597.05 789.24 594.6 788.89C594.71 788.17 594.82 787.45 594.94 786.73C596.43 786.83 597.94 786.97 599.43 787.02C603.77 787.17 610.43 781.54 610.07 777.29C609.61 771.02 607.57 764.96 601.79 761.71C598.87 760.07 594.95 760.21 591.47 759.54C590.86 762.78 589.83 766 589.72 769.26C589.53 775 590.11 780.77 590 786.52C589.79 797.25 593.94 801.02 604.68 799.39C608.43 798.83 612.2 798.27 615.89 797.39C619.248 796.609 622.225 794.673 624.302 791.921C626.378 789.168 627.422 785.774 627.25 782.33C627.291 779.247 627.141 776.164 626.8 773.1C624.93 761.23 622.26 749.94 610.6 743.02C605.52 740.07 600.74 738.42 594.19 740.36V740.33ZM445.48 449.54C443.75 453.36 442.28 455.68 441.6 458.21C436.53 477.21 435.07 496.52 438.6 515.88C441.77 533.16 450.42 548.03 461.23 561.67C463.89 565.03 466.29 564.52 468.86 560.99C476.42 550.65 484.133 540.43 492 530.33C494.64 526.95 495.5 523.83 493.18 520.01C488.61 512.46 484.42 504.65 479.55 497.3C473.08 487.53 466.14 478.07 459.33 468.53C455.08 462.56 450.69 456.67 445.48 449.54ZM608 621.1L661.4 530.89L660.03 528.89C650.11 531.89 639.61 533.75 630.39 538.21C612.16 547.04 598.7 560.91 592.73 580.9C592.04 583.22 591.45 586.24 592.34 588.25C597.22 599.29 602.62 610.07 608 621.1ZM696.71 564C703.8 586.61 711.02 609.59 718.16 632.35C722.47 628.24 726.05 624.73 729.73 621.35C738.33 613.35 747.41 605.91 755.44 597.41C761.08 591.41 766.83 588.85 775.11 589.41C785.82 590.2 796.63 589.61 807.4 589.61V588.94L696.71 564ZM853.92 594.43C839.38 596.31 825.85 596.89 812.92 600.03C796.49 604.03 780.51 609.91 764.45 615.31C759.39 617.02 754.68 619.8 749.8 622.06C742.45 625.46 734.93 628.53 727.8 632.35C724.8 633.94 720.32 637.5 720.66 639.47C722.01 647.47 724.97 655.17 727.23 662.61C748.71 650.45 768.93 638.54 789.57 627.42C810.21 616.3 831.48 605.85 853.92 594.38V594.43ZM631.85 682.43C616.93 653.17 605.92 622.1 590 593.26C588.557 596.407 587.599 599.755 587.16 603.19C586.24 614.04 591.04 624.83 586.1 635.97C584.1 640.38 586.22 646.63 586.62 652.03C587.62 665.03 588.7 677.93 589.62 690.9C589.79 693.5 589.11 696.16 588.89 698.18L631.85 682.43ZM628.1 604.63L626.45 603.96C622.6 609.9 618.63 615.78 614.94 621.82C613.53 624.13 611.29 627.3 611.94 629.25C614.63 636.893 617.717 644.39 621.19 651.71C622.66 654.98 624.89 657.91 626.43 661.16C629.27 667.16 631.79 673.36 634.61 679.39C635.06 680.39 636.41 681.58 637.27 681.52C643.17 681.13 649.05 680.43 656.16 679.71C652.07 656.91 650.5 633.92 629.16 621.14C635.16 621.14 641.9 621.48 648.6 621.05C655.6 620.61 662.2 618.52 667.16 613.33C671.73 608.56 677.54 604.45 678.16 596.76C675.26 598.92 672.81 602.02 669.75 602.76C656.08 606.33 642.24 609.24 628.09 612.47L628.1 604.63ZM273 312.93C274.37 314.47 275.2 315.87 276.42 316.7C286.511 323.541 298.252 327.55 310.42 328.31C331.42 329.7 352.29 331.46 371.5 340.83C380 344.98 388.5 349.66 395.78 355.62C404.59 362.84 412.07 371.62 420.57 380.23C423.75 376.23 427.49 371.77 430.84 367.04C431.178 366.333 431.345 365.556 431.327 364.773C431.31 363.99 431.109 363.221 430.74 362.53C424.282 352.696 415.749 344.395 405.74 338.21C393.58 330.76 380.66 325.3 366.02 324.28C352.55 323.35 339.17 321.15 325.72 319.88C314.99 318.88 304.17 318.79 293.47 317.56C286.81 316.79 280.32 314.64 273 312.93ZM381 384.24C379.7 383.72 378.43 383.15 377.11 382.71C366.31 379.07 355.68 375.18 347.11 367.19C337.94 358.63 330.21 349.41 330.2 335.85C330.2 334.57 328.2 332.44 326.8 332.18C322.41 331.37 317.8 330.62 313.44 330.99C303.53 331.81 294.51 329.55 285.78 325.08C282.29 323.29 278.47 322.15 274.55 320.62C277.14 325.72 278.94 330.77 281.96 334.92C288.51 343.92 294.5 353.86 302.85 360.86C325.1 379.55 353.28 381.39 380.94 384.24H381ZM471.61 437.38L473.11 437.59C474.72 442.69 476.89 447.69 477.83 452.92C479.66 463.17 480.59 473.59 482.32 483.87C483.54 491.12 484.13 498.93 487.37 505.28C492.85 516.01 500.22 525.78 507.77 537.48C509.86 534 512.86 531.32 512.47 529.29C510 516.58 507.84 503.63 503.53 491.49C497.405 474.717 490.395 458.281 482.53 442.25C480.37 437.75 474.99 432.05 470.75 431.76C452.88 430.56 436.63 426.66 423.86 413.16C423.128 412.625 422.328 412.191 421.48 411.87C425.76 428.5 453.92 447.33 468.87 444.21L471.61 437.38ZM473.52 412.58L474.64 412.82C475.45 411.23 476.38 409.69 477.06 408.05C484.4 390.05 491.6 372.05 499.06 354.16C501.68 347.86 505.2 341.94 507.81 335.63C510.87 328.23 510.34 327.06 502.53 326.44C493.08 325.745 483.598 325.585 474.13 325.96C471.91 326.04 468.73 328.51 467.9 330.63C466.9 333.19 467.84 336.56 468.06 339.56C469.44 358.74 470.837 377.917 472.25 397.09C472.57 402.26 473 407.42 473.46 412.58H473.52ZM583.83 705.72C586.06 695.05 585.26 693.45 577.03 690.28C576.376 689.98 575.739 689.646 575.12 689.28C562.38 682.73 554.28 672.09 549.5 658.98C543.99 643.89 548.67 626.98 561.76 618.4C567.58 614.58 575.42 613.84 583.09 611.47C582.93 609.24 582.66 605.55 582.28 600.38C576.77 602.38 571.81 603.44 567.52 605.77C556.98 611.48 547.22 618.42 539.52 627.77C536.85 631.01 533.77 635.02 533.44 638.89C532.65 648.15 534.95 657.12 538.94 665.7C544.3 677.24 552.82 685.96 562.81 693.24C569.3 697.91 576.6 701.47 583.83 705.72ZM459.32 328.57L458.14 328.9C457.68 328 456.78 327.07 456.83 326.19C457.44 314.58 458.04 302.96 458.99 291.37C459.23 288.55 459.13 286.25 455.99 286.56C454.66 286.69 452.61 289.2 452.52 290.72C452.07 298.48 452.57 306.3 451.94 314.03C451.27 322.14 453.76 329.03 457.94 335.77C459.32 333.77 460.56 331.99 461.79 330.2L463.63 330.88C456.88 344 451.72 357.32 452.42 372.39C453.14 387.77 462.54 399.02 468.58 411.99C468.952 411.651 469.254 411.241 469.466 410.784C469.679 410.328 469.799 409.833 469.82 409.33C468.6 386.59 467.46 363.85 466.04 341.12C465.04 325.9 462.57 310.71 468.04 295.7C468.69 293.91 466.35 291.04 465.39 288.7C464.11 290.14 461.97 291.42 461.68 293.04C460.566 299.218 459.805 305.455 459.4 311.72C459 317.3 459.32 322.94 459.32 328.57ZM869.82 744.45C869.94 743.98 870.05 743.51 870.17 743.03C868.11 741.74 866.17 740.3 863.98 739.16C848.43 730.85 831.98 733.33 816.46 737.63C800.548 741.918 785.836 749.808 773.46 760.69C765 768.23 763 773.82 768.27 783C793.51 747.64 828.78 738.45 869.82 744.45ZM1161.52 710.78L1163.67 711.3C1166.82 705.96 1172.06 700.86 1172.67 695.24C1174.12 682.46 1173.12 669.43 1173.48 656.51C1173.75 646.95 1174.3 637.38 1175.28 627.87C1175.89 621.95 1177.52 616.14 1178.69 610.28L1177.16 609.49C1175.22 611.23 1172.42 612.62 1171.52 614.8C1168.9 621.1 1165.78 627.59 1165.12 634.23C1163.3 652.76 1162.51 671.4 1161.54 690C1161.22 696.91 1161.52 703.86 1161.52 710.78ZM406.8 839.84L408.54 837.33C416.48 825.93 424.74 814.73 432.3 803.08C449.89 775.97 467.14 748.63 484.55 721.4C486.16 718.89 487.41 716.04 483.81 714.77C482.27 714.23 478.93 715.63 477.96 717.14C473.13 724.7 468.9 732.65 464.31 740.36C458.58 749.98 452.83 759.57 446.87 769.04C441.48 777.59 435.77 785.94 430.24 794.4C423.45 804.8 416.59 815.15 409.99 825.67C407.44 829.72 404.43 833.86 406.8 839.84ZM403.8 853.44L406.01 854.66C407.247 853.709 408.385 852.637 409.41 851.46C415.863 842.387 422.257 833.277 428.59 824.13C438.063 810.51 447.5 796.877 456.9 783.23C460.9 777.45 464.99 771.73 468.64 765.74C473.03 758.52 476.84 750.96 481.18 743.74C484.58 738.04 488.56 732.68 491.89 726.94C492.54 725.81 491.36 723.62 491.03 721.94C489.5 722.47 487.24 722.53 486.55 723.6C480.11 733.6 473.92 743.71 467.71 753.83C463.39 760.89 459.41 768.17 454.84 775.07C446.3 787.98 437.42 800.67 428.73 813.48C421.85 823.64 414.95 833.78 408.27 844.07C406.43 846.9 405.31 850.28 403.84 853.44H403.8ZM1147.56 757.79L1149.72 758.79C1152.54 752.79 1156.52 747 1157.85 740.67C1159.18 734.34 1157.7 727.48 1157.72 720.84C1157.79 701.56 1157.85 682.28 1158.23 663.01C1158.38 655.58 1159.39 648.17 1160.12 639.51C1158.38 641.06 1157.12 641.61 1156.98 642.4C1155.1 650.28 1153.17 658.16 1151.74 666.13C1151.06 669.88 1151.74 673.86 1151.24 677.65C1147.67 704.26 1147.37 731 1147.6 757.79H1147.56ZM589.31 533.45C594.95 532.45 599.48 531.22 604.08 530.81C611.46 530.17 618.88 530.14 626.28 529.65C630.05 529.4 634.2 527.46 637.47 528.5C644.68 530.81 649.74 525.29 656.19 525.78C656.14 525.2 656.08 524.63 656.02 524.05L590.3 526.33L590.15 523.47C617.23 522.68 644.31 521.93 671.67 520.67C670.67 515.46 667.67 515.12 664.42 515.1C652.31 515.02 640.19 514.64 628.09 514.91C616.35 515.17 604.62 515.99 592.9 516.91C591.37 517.02 588.79 518.84 588.73 519.97C588.49 524.48 589.05 529.08 589.31 533.45ZM584.45 689.45L586.53 686.97C584.22 683.77 582.24 680.27 579.53 677.44C572.03 669.61 565.41 661.44 564.72 649.96C563.84 635.25 568.72 626.49 583.43 626.81C583.03 623.81 582.64 620.92 582.12 617.09C579.37 618.36 577.33 618.99 575.65 620.15C571.65 622.92 567.42 625.53 564 628.93C554.81 638.05 548.89 644.67 553.93 658.93C557.42 668.83 563.21 677.35 571.69 683.56C575.4 686.37 580.17 687.6 584.45 689.5V689.45ZM404.36 880.38L405.91 880.84L507.67 737.18C504.67 733.03 502.22 734.36 500.34 736.94C494.533 744.88 488.867 752.913 483.34 761.04C476.89 770.5 470.7 780.14 464.34 789.65C456.01 802.08 447.7 814.52 439.22 826.85C432.28 836.94 425.09 846.85 418.05 856.85C413.94 862.7 409.79 868.52 405.93 874.53C404.83 876.17 404.83 878.43 404.36 880.38ZM766.36 503.55C776.54 520.09 775.44 537.98 773.97 556.24C778.87 555.14 781.84 553.14 782.02 548.24C782.55 533.13 784.25 517.87 776.33 503.83C776.06 503.35 776.4 502.52 776.49 501.36C777.81 501.88 779.19 501.97 779.57 502.63C787.57 516.63 785.7 532.28 787.17 547.9C789.17 546.28 791.32 544.38 791.54 542.29C793.1 527.47 793.06 512.74 785.83 499.08C785.19 497.88 782.83 496.37 781.95 496.71C776.82 498.68 771.83 501.13 766.41 503.55H766.36ZM814.25 595.65C814.73 594.94 814.89 594.8 814.91 594.65C814.906 594.575 814.881 594.503 814.839 594.442C814.796 594.38 814.738 594.331 814.67 594.3C811.67 593.85 808.67 593.06 805.67 593.05C794.48 593.05 783.27 593.54 772.08 593.25C770.035 593.119 767.986 593.445 766.083 594.207C764.18 594.968 762.47 596.144 761.08 597.65C754.78 603.84 748.17 609.72 741.61 615.65C738.9 618.11 736 620.36 733.18 622.65L734.77 624.87C760.07 611.1 786.94 601.88 814.3 595.65H814.25ZM496.25 727.06C492.25 732.89 487.95 738.61 484.14 744.62C473.03 762.1 462.57 780.02 450.97 797.18C437.25 817.48 422.54 837.1 408.41 857.18C405.88 860.77 403.31 864.74 405.93 869.82C410.26 863.82 413.44 857.17 417.56 851.21C425.35 839.95 433.98 829.27 441.72 817.97C460.62 790.39 479.2 762.59 497.91 734.87C499.81 732.14 500.48 729.55 496.33 727.06H496.25ZM406.83 825.65C408.83 822.22 410.83 818.71 412.99 815.37C422.54 800.78 432.45 786.37 441.67 771.63C453.49 752.69 464.83 733.44 476.21 714.22C477.08 712.76 476.62 710.51 476.78 708.62C475.18 709.69 473.04 710.41 472.08 711.89C464.94 722.89 458.02 734.1 451.08 745.24C444.77 755.31 438.53 765.42 432.2 775.48C424.73 787.33 417.2 799.12 409.71 810.99C407.12 815.2 403.72 819.25 406.91 825.65H406.83ZM405.47 807L407.54 808C408.335 807.294 409.065 806.517 409.72 805.68C418.447 792.02 427.15 778.353 435.83 764.68C443.04 753.24 450.15 741.68 457.31 730.24C461.6 723.37 465.94 716.53 470.13 709.59C471.93 706.59 472.53 703.59 468.18 701.12C462.18 710.7 456.18 720.12 450.45 729.65C439.23 748.157 428.08 766.727 417 785.36C414.07 790.3 411.51 795.46 408.8 800.53C407.66 802.66 406.58 804.83 405.47 807ZM407.24 763.8C408.538 762.383 409.747 760.887 410.86 759.32C418.25 746.81 425.72 734.32 432.86 721.71C438.86 711.06 444.51 700.17 450.38 689.42C452.16 686.16 451.51 684.06 446.74 682.42C438.94 696.07 431.04 709.71 423.33 723.42C418.92 731.28 415.5 739.78 410.33 747.08C406.86 752.05 405.89 756.6 407.24 763.78V763.8ZM765.81 1006.73L763 1008.27L821.69 1123.6C821.95 1121.48 822.1 1120.6 822.15 1119.77C822.58 1110.57 816.75 1103.56 813.42 1095.77C809.18 1085.87 803.83 1076.44 798.99 1066.77C796.48 1061.77 794.24 1056.65 791.53 1051.77C786.47 1042.69 781.13 1033.77 775.96 1024.77C772.53 1018.75 769.19 1012.72 765.81 1006.71V1006.73ZM282.25 239.26C282.9 238.05 283.79 237.04 284 235.9C285.23 229.36 286.46 222.81 287.32 216.22C287.54 214.55 287 212.07 285.85 211.06C280.46 206.29 274.77 201.87 269.1 197.43C267.841 196.624 266.5 195.954 265.1 195.43C260.1 201.65 261.05 208.75 259.76 215.43C258.76 220.84 260.84 222.28 265.52 224.25C265.76 219.75 265.63 215.8 266.26 211.98C266.85 208.45 268.26 205.06 269.31 201.61L271.12 201.96C268.05 216.26 264.72 230.64 282.25 239.26ZM842.46 729.66C842.61 729.07 842.75 728.47 842.9 727.88C840.49 727.06 837.96 725.32 835.67 725.59C825.49 726.83 815.353 728.417 805.26 730.35C800.52 731.26 795.56 732.47 791.41 734.82C783.32 739.39 775.63 744.7 767.98 750.01C765.481 751.701 763.675 754.238 762.897 757.153C762.118 760.069 762.417 763.168 763.74 765.88C773.57 754.37 785.39 745.99 799.05 739.65C812.92 733.21 827.45 730.74 842.46 729.66ZM404.9 794.1L407.61 795.02C411.69 788.02 415.69 781.02 419.86 774.02C432.4 753.127 444.973 732.26 457.58 711.42C459.858 707.955 461.934 704.363 463.8 700.66C464.44 699.26 463.48 697.13 463.14 694.43C452.83 710.56 443.3 725.15 434.14 739.96C425.647 753.64 417.383 767.463 409.35 781.43C407.14 785.26 406.34 789.86 404.9 794.1ZM817.73 1079.45L818.83 1079.2C818.61 1075.79 819 1072.2 818.01 1069.03C817.02 1065.86 814.5 1063.03 812.88 1059.97C805.77 1046.43 798.88 1032.75 791.6 1019.31C787.73 1012.17 783.15 1005.42 778.95 998.46C776.64 994.63 774.45 990.72 771.6 985.8C770.6 988.25 769.69 989.51 770 990.1C785.84 1019.92 801.75 1049.7 817.73 1079.45ZM818.21 1098.35L820.21 1097.9C819.87 1095.11 820.02 1092.14 819.07 1089.58C817.78 1086.15 815.52 1083.1 813.9 1079.79C810.9 1073.68 808.32 1067.34 805.09 1061.36C795.617 1043.77 786.003 1026.26 776.25 1008.83C773.9 1004.61 770.9 1000.74 768.25 996.72L766.41 997.49C766.71 999.42 766.56 1001.58 767.41 1003.23C769.85 1008.04 772.79 1012.6 775.35 1017.35C780.35 1026.71 785.2 1036.17 790.26 1045.51C796.02 1056.12 802.08 1066.58 807.77 1077.23C811.42 1084.16 814.73 1091.3 818.21 1098.35ZM623.73 599.83L624.95 600.57L674.95 533.45C667.88 529.09 667.05 529.02 663.15 534.6C658.74 540.92 654.67 547.49 650.65 554.07C644.65 563.92 638.76 573.86 632.89 583.8C629.81 589.1 626.8 594.48 623.73 599.83ZM755.41 509.15C756.41 511.56 757.73 513.46 758.06 515.52C759.92 527.05 761.44 538.64 763.34 550.17C763.971 553.031 764.979 555.795 766.34 558.39C766.634 558.796 767.028 559.119 767.483 559.329C767.939 559.539 768.44 559.629 768.94 559.59C769.6 559.41 770.27 558.02 770.34 557.12C771.84 539.52 774.59 521.73 762.77 505.75L755.41 509.15ZM665.86 512.34C664.2 507.34 662.48 505.43 658.1 505.58C647.44 505.93 636.75 505.4 626.1 505.85C614.6 506.33 603.1 507.44 591.66 508.52C590.32 508.65 589.12 510.3 587.85 511.24C589.24 511.95 590.62 513.24 592.01 513.24C597.58 513.34 603.14 513 608.71 512.89C620.1 512.68 631.49 512.47 642.89 512.34C650.24 512.27 657.59 512.34 665.86 512.34ZM760.1 753.34C778 733 801.57 725.43 826.77 720.25C823.29 718.61 819.77 717.25 816.42 717.71C810.202 718.684 804.051 720.04 798 721.77C784.45 725.27 773.29 733.2 762.82 741.98C760.23 744.11 757.35 748.07 760.1 753.32V753.34ZM775.34 1040.46L773.34 1041.38L821.19 1143.11C823.76 1132.68 818.28 1125.44 814.71 1117.84C808.14 1103.84 801.07 1090.04 794.04 1076.25C787.94 1064.24 781.59 1052.37 775.34 1040.44V1040.46ZM454.68 689.46C453.47 691.33 452.29 692.91 451.37 694.63C446.15 704.32 441.37 714.24 435.73 723.71C426.83 738.77 417.34 753.49 408.31 768.48C407.16 770.39 407.31 773.05 406.79 775.35L408.35 775.93C409.44 774.19 410.55 772.46 411.61 770.71C418 760.19 424.33 749.65 430.77 739.17C439.63 724.75 448.51 710.33 457.53 696.01C459.6 692.73 458.49 691.1 454.68 689.46ZM783.67 954C780.35 958.77 780.46 962.23 782.79 966.13C791.13 980.13 799.2 994.23 807.51 1008.22C809.355 1010.98 811.358 1013.63 813.51 1016.15L815.02 1015.2C809.36 992.71 795.79 974.19 783.67 954ZM776.09 976.82C771.29 980.76 774.52 984.23 776.2 987.1C782.95 998.59 790.08 1009.86 797.03 1021.23C798.16 1023.08 799.1 1025.03 800.12 1026.94L815.2 1055.39C815.8 1051.61 815.9 1047.94 814.45 1045.06C807.08 1030.45 799.54 1015.91 791.59 1001.6C786.92 993.19 781.38 985.24 776.09 976.84V976.82ZM779.74 966.89L777.67 967.25C777.86 969.46 777.38 972.04 778.35 973.83C786.637 989.25 795.09 1004.58 803.71 1019.83C806.62 1024.98 810.07 1029.83 813.28 1034.83L815.38 1033.93C814.32 1029.93 813.91 1025.53 812.06 1021.93C808.29 1014.55 803.74 1007.57 799.51 1000.42L779.74 966.89ZM746.25 518.36L747.91 517.69C748.57 519.09 749.58 520.44 749.81 521.9C750.43 525.83 751.56 529.9 750.96 533.73C749.77 541.21 754.85 544.56 759.07 549.16C760.85 541.16 757.64 519.24 753.61 513.52C752.976 512.855 752.188 512.356 751.317 512.065C750.446 511.774 749.516 511.7 748.61 511.85C744.45 513.25 740.54 515.4 735.49 517.74L746.24 532.66L747.76 532C747.253 527.46 746.75 522.913 746.25 518.36ZM406 741.92L408.54 742.99C411.85 737.49 415.31 732.08 418.44 726.49C423.01 718.35 427.25 710.03 431.82 701.89C435.27 695.76 439.21 689.89 442.53 683.69C443.41 682.04 442.8 679.6 442.87 677.52C441.17 678.64 438.87 679.38 437.87 680.96C434.51 686.51 431.76 692.42 428.53 698.05C425.3 703.68 421.65 709.05 418.48 714.68C414.96 720.953 411.627 727.33 408.48 733.81C407.31 736.33 406.83 739.21 406 741.92ZM649.53 487.92C649.35 481.22 645.02 482.19 641.34 482.18C632.87 482.18 624.4 482.06 615.94 482.18C607.67 482.28 599.39 482.46 591.13 482.89C587.59 483.08 586.57 485.28 587.82 487.89L649.53 487.92ZM786.3 495.4C798.45 508.4 795.3 524.74 797.15 540.19C799.07 538.96 800.91 537.81 801.2 536.36C803.75 523.24 804.5 510.18 798.45 497.64C795 490.4 795 490.41 786.31 495.42L786.3 495.4ZM751.23 733.13L753.39 733.9C766.93 721.66 782.11 712.32 799.93 706.64C798.29 705.49 796.46 704.49 794.84 704.77C789.2 705.77 783.38 706.48 778.09 708.53C768.31 712.33 759.28 717.66 752.97 726.4C751.71 728.15 751.77 730.86 751.23 733.13ZM589.05 432.79C588.99 431.88 588.92 430.97 588.85 430.06L623.52 428.45L624.27 427.29C622.72 425.99 621.16 423.55 619.63 423.57C610.09 423.71 600.56 424.3 591.04 425.02C589.89 425.11 588.04 426.77 587.92 427.85C587.62 430.78 588.09 433.8 588.25 436.63H626.44C626.2 434.83 625.04 433.18 623.77 433.1C616.04 432.62 608.29 432.39 600.54 432.29C596.71 432.23 592.88 432.61 589.05 432.79ZM826.41 519.49C836.21 515.23 837.09 487.36 828.15 475.58L820.26 480.53C829.6 492.58 825.23 506.42 826.41 519.49ZM586.76 477.2C586.93 477.71 587.1 478.2 587.26 478.73H645.34L646.05 476.66C643.78 475.51 641.5 473.35 639.24 473.38C623.06 473.54 606.88 474.08 590.71 474.71C589.37 474.76 588.08 476.33 586.76 477.2ZM659.94 502.49C656.61 497.17 652.72 497.96 649.38 497.95C640.17 497.95 630.96 497.95 621.77 498.42C611.7 498.93 601.66 499.87 591.63 500.91C590.22 501.06 588.97 502.82 586.99 504.34L659.94 502.49ZM807.64 533C815.85 517.16 815.64 501.68 805.64 486.25L798.06 489.41C807.28 503 807.7 517.85 807.64 533ZM832 474.1C840.84 486.16 836.61 499.95 837.54 513.36C842.86 510.15 846.39 507.61 845.15 501.03C843.76 493.63 845.15 485.65 843.37 478.42C841 469 840.67 469.81 832 474.1ZM381.74 349.1L358.74 368.25C359.74 367.46 360.31 365.84 361.42 364.69C366.03 359.89 370.89 355.32 375.42 350.44C376.28 349.52 376.02 347.57 376.28 346.1C374.92 346.1 372.96 345.46 372.28 346.1C365.69 352.68 359.33 359.47 352.48 366.64C355.15 368.55 357.09 369.8 358.87 371.24C362.68 374.33 365.33 373.3 368.18 369.59C372.36 364.17 376.99 359.09 381.61 354.03C384.09 351.33 383.41 349.79 381.72 349.12L381.74 349.1ZM756.2 743.44C771.43 727.33 790.07 718.34 811.08 713.64C808.19 707.81 804.44 710.87 801.01 711.64C784.01 715.47 769.49 723.8 757.01 735.92C754.58 738.33 753.84 740.63 756.2 743.44ZM851.33 465.89C844.24 467.27 844.07 467.68 846.33 473.94C847.297 476.471 847.932 479.116 848.22 481.81C848.86 489.61 849.22 497.42 849.74 506.89C852.55 503.05 856.37 500.2 856.49 497.22C856.87 486.66 857.79 475.77 851.33 465.89ZM815.84 527.54C821.3 525.32 822.11 521.95 822.32 518.22C822.49 515.17 822.63 512.12 822.8 509.06C823.35 499.24 822.9 489.63 816.66 480.96L808.66 484.72C818.69 497.45 818.94 511.77 815.84 527.54ZM640.52 470.25L641.1 468.25C639.71 467.58 638.34 466.41 636.92 466.33C622.21 465.56 607.49 464.82 592.77 464.39C589.05 464.28 586.54 466.16 588.14 470.24L640.52 470.25ZM511.1 454.66C512.27 447.29 489.64 416.15 479.17 409.98L476.69 416.07C491.32 426.5 498.53 442.49 511.1 454.66ZM653.54 494.74L654.44 492.85C652.74 492.28 651.05 491.25 649.34 491.21C645.02 491.13 640.69 491.62 636.34 491.66C621.36 491.807 606.36 491.897 591.34 491.93C587.48 491.93 586.52 493.43 588.04 496.93L653.54 494.74ZM406.29 727.74L407.56 728.28C408.396 727.203 409.174 726.081 409.89 724.92C413.89 717.65 417.81 710.36 421.75 703.07C426.82 693.72 431.91 684.38 436.86 674.96C437.28 674.14 436.67 672.77 436.54 671.66C435.488 671.948 434.479 672.375 433.54 672.93C432.933 673.589 432.46 674.36 432.15 675.2C426.04 686.2 419.9 697.15 413.87 708.2C412.32 711.04 411.92 715.46 409.63 716.78C404.27 719.83 406.76 724 406.29 727.75V727.74ZM581.55 630.6C574.07 633.13 571.79 637.29 572.55 645.34C573.24 652.98 579.55 662.56 584.69 663.2C583.63 652.36 582.6 641.61 581.55 630.6ZM511.54 470L513.13 469.37C512.54 466.37 512.7 463 511.21 460.59C508.34 455.95 504.59 451.83 501.12 447.59C494.79 439.82 488.46 432.04 481.98 424.39C480.49 422.63 478.43 421.34 476.63 419.84L475.63 420.91L511.54 470ZM813.17 999.17C812.99 992.44 812.83 987.71 808.43 982.17C801.31 973.17 797.1 961.82 791.49 951.56C790.41 949.56 788.49 948.09 786.98 946.37C785.68 948.37 785.24 949.81 785.75 950.71C794.65 966.57 803.67 982.42 813.17 999.17ZM635.92 456.49C634.605 456.807 633.268 457.024 631.92 457.14C618.27 457.14 604.63 456.94 590.99 457.01C589.83 457.01 588.67 458.51 587.52 459.32C588.75 459.94 589.97 461.05 591.24 461.12C598.247 461.54 605.27 461.807 612.31 461.92C620.41 462.04 628.52 461.92 636.95 461.92C636.57 460.08 636.28 458.51 635.92 456.49ZM458.77 401.23C457.69 396.62 455.53 392.94 450.65 391.71C443.7 389.97 436.65 388.71 429.7 386.94C424.85 385.7 422.18 387.41 421.02 391.7L458.77 401.23ZM634.61 453.29C630.17 446.68 603 445.11 588 449C587.42 451.88 587.56 453.88 591.54 453.72C599.8 453.38 608.07 453.37 616.34 453.29C622 453.24 627.69 453.29 634.61 453.29ZM855.61 463.13C857.32 469.13 859.31 474.28 860.21 479.65C861.11 485.02 860.93 490.58 861.21 496.35C869.39 492.12 869.57 480.09 862.21 459.49L855.61 463.13ZM302.78 252.13C304.45 243.13 306.07 234.46 307.86 224.88L301.26 221.12C296.73 228.87 296.07 236.59 296.6 244.67C296.93 248.83 298.34 251.43 302.83 252.08L302.78 252.13ZM788 700.69C788 699.96 787.92 699.23 787.89 698.49C786.34 698.33 784.73 697.81 783.26 698.07C770.26 700.37 759.72 707.5 749.75 715.65C746.16 718.65 746.13 719.1 749.35 723.65C760 712.22 773.49 705.57 788 700.69ZM312 227.36C311.18 228.7 309.82 229.97 309.63 231.36C308.72 238.12 307.98 244.91 307.48 251.72C307.17 256.03 309.7 257.78 313.68 257.72C314.85 250.84 315.21 244.02 317.32 237.79C319.24 232.28 318.32 229.35 312 227.36ZM632.85 609.2C636.4 606.12 639.64 604.26 641.53 601.48C646.07 594.82 649.99 587.73 654.09 580.79C654.64 579.638 655.098 578.444 655.46 577.22C643.08 581 632.49 595.2 632.85 609.2ZM745.36 713.39C750.64 709.6 755.36 705.68 760.62 702.58C765.88 699.48 771.37 697.32 777.56 694.37C771.27 690.78 766.26 691.79 761.37 694.81C756.77 697.66 752.09 700.43 747.68 703.55C744.59 705.74 741.27 708.29 745.36 713.39ZM406.58 713.56C412.87 708.07 431.09 671.88 429.63 666.83C428.43 668.56 427.32 669.91 426.47 671.4C421.23 680.61 416.12 689.88 410.82 699.05C408.21 703.58 403.73 707.47 406.58 713.56ZM289.58 214.06C288.67 223.93 287.53 232.42 287.34 240.94C287.34 242.94 290.48 244.94 292.41 247.22C294.41 236.88 296.14 228.01 297.98 218.5L289.58 214.06ZM867.93 457.69C869.43 469.02 870.79 479.36 872.39 491.5C874.26 488.41 876.39 486.43 876.57 484.31C877.162 477.659 877.226 470.971 876.76 464.31C876.13 456.78 872 454.56 867.93 457.69ZM512.8 480.54C507.48 466.22 497.5 454.85 487.68 442.31C486.52 450.43 498.25 468.47 512.8 480.54ZM882 450.79C878.09 451.07 876.95 452.56 878 456.79C879.23 461.79 879.35 467.06 879.68 472.24C879.92 476.07 879.68 479.92 879.68 484.24C888.42 480 889.12 461.28 882 450.79ZM810.66 978.35L812.17 977.57C809.34 962.13 800.29 950.06 790.32 937.08C789.6 939.52 788.61 941.08 789.02 941.75C796.13 954 803.42 966.17 810.66 978.35ZM509.66 428.69L511.47 427.61C505.66 414.744 497.246 403.222 486.76 393.77C482.17 398.57 482.15 399.37 484.6 401.2C488.367 403.886 491.852 406.949 495 410.34C500.14 416.23 504.81 422.55 509.69 428.69H509.66ZM901.21 471.61C903.12 469.8 906.33 468.11 906.21 466.66C905.56 458.1 906.11 449.12 899.71 440.23C898.04 442.48 895.58 444.32 895.81 445.73C897.19 453.91 899.16 462 901.24 471.61H901.21ZM482.71 403.06C482.17 404.44 481.17 405.94 481.5 406.34C491.01 417.91 500.66 429.34 510.75 441.4C511.48 434.35 492.6 409.08 482.74 403.06H482.71ZM449.11 320.28C451.11 309.21 449.79 287.28 447.06 285.28C440.61 295 441.63 316.88 449.14 320.28H449.11ZM588.71 540.54C612.07 541.01 620 539.47 629.52 532.84C622.52 533.22 615.68 533.78 608.83 533.91C601.8 534 595.12 534.86 588.71 540.54ZM827.15 657C826.81 643.54 820.21 633.54 813.36 623.67C812.891 622.886 812.167 622.286 811.31 621.97C810.204 621.891 809.092 621.976 808.01 622.22C807.988 623.193 808.127 624.162 808.42 625.09C813.19 634.26 817.96 643.44 822.94 652.51C823.89 654.26 825.72 655.53 827.15 657ZM432.76 306.15L440.21 311.47C440.65 309.53 441.03 308.81 440.93 308.16C439.87 301.16 439.49 294.35 442.1 287.44C443.83 282.87 439.99 282.25 435.25 281.74C434.46 289.48 433.69 297.07 432.76 306.15ZM321.85 262.84C322.51 262.48 323.16 262.11 323.85 261.74C324.85 255.74 325.58 249.69 327.01 243.81C328.53 237.55 328.27 236.55 320.41 234C319.58 241.67 318.41 249 318.19 256.42C318.08 258.51 320.55 260.7 321.85 262.84ZM838.08 608L835.44 609.27C839.44 616.64 843.44 624.01 847.67 631.76C855.92 622.5 856.06 622.41 850.38 613.35C848.59 610.49 845.79 608.27 843.45 605.76C843.93 613.46 850.45 618.25 850.74 625.35L849.45 625.83L838.08 608ZM334.88 265.4C335.88 259.4 336.73 253.55 337.78 247.7C338.55 243.44 336.78 241.19 332.43 240.52C328.24 246.52 327.38 253.14 328.23 260.17C328.72 264.17 330.93 265.83 334.88 265.4ZM430.07 302.83C430.8 295.69 431.71 288.83 432.07 281.93C432.12 280.75 429.63 278.37 428.44 278.45C426.79 278.56 424.13 280.31 423.92 281.67C423.31 285.67 424.45 290 423.51 293.86C422.08 299.49 424.33 301.71 430.07 302.83ZM587.24 444.22H629.5L629.68 442.34C619.62 437.34 608.47 440.34 597.87 439.52C594.29 439.25 590.09 439.33 587.24 444.22ZM345.41 269.22C346.61 262.71 348.01 256.76 348.62 250.72C348.77 249.25 346.55 247.15 344.94 246.08C344.36 245.7 341.35 247.32 341.13 248.37C339.81 254.7 338.97 261.14 337.96 267.62L345.41 269.22ZM349.59 365.22L370 344.08L369.44 342.16C367.44 341.95 364.54 340.8 363.6 341.7C357.33 347.7 351.48 354.22 345.4 360.65L349.59 365.22ZM337.59 350.46L351.65 337.85C345.09 335.67 339.36 330.7 334.73 335.23C330.67 339.21 334.2 345 337.62 350.45L337.59 350.46ZM619.74 419.25L621 418C619.7 416.76 618.38 414.43 617.11 414.46C608.46 414.67 599.8 415.23 591.17 415.99C587.8 416.28 587.17 418.41 588.9 421.35L619.74 419.25ZM891.58 445.77L887.1 447.38L891.53 477.51C894.08 475.78 896.39 474.23 898.87 472.51C892.27 469.57 897.15 464.2 895.72 460.25C894.1 455.73 893.06 451 891.61 445.76L891.58 445.77ZM398.14 288.61L399.58 287.17C400.34 282.24 401.26 277.32 401.75 272.36C401.89 270.96 401.03 268.36 400.17 268.17C398.17 267.65 394.17 267.7 393.91 268.45C392.55 272.72 391.11 277.38 391.65 281.66C392 284.21 395.85 286.31 398.14 288.61ZM911.25 437C906.25 437.35 905.25 439.69 906.25 444C907.5 449.4 908.08 454.95 909 460.43C909.22 461.74 909.62 463.02 909.93 464.31L911.79 464.2C918.9 455.35 913 446.21 911.25 437ZM362.25 253.83C356.15 265.37 357.73 274.71 365.75 275.83C369.81 264.93 368.56 256.35 362.28 253.79L362.25 253.83ZM486.91 389.46C496.91 397.6 503.03 407.93 510.5 417.63C512.36 410.55 498.5 390.8 488.75 385.93C488 387.28 487.34 388.64 486.91 389.46ZM387.1 282.52C387.63 279.39 388.1 276.24 388.72 273.11C390.34 264.77 390.02 264.35 381.24 263.59C376.78 273.74 379 281.23 387.1 282.52ZM615.39 402.58C615.7 401.95 616 401.32 616.31 400.7C615.1 399.46 613.78 397.07 612.71 397.17C605.25 397.9 597.83 399.08 590.44 400.33C589.63 400.47 589.07 402.05 588.39 402.96C589.39 403.49 590.39 404.55 591.32 404.49C599.35 404 607.37 403.24 615.39 402.58ZM420.15 298.17C420.57 290.82 421.01 284.56 421.2 278.3C421.162 277.733 420.984 277.184 420.682 276.702C420.38 276.221 419.964 275.821 419.47 275.54C418.29 275.26 416.15 275.54 415.71 276.34C414.28 278.796 413.266 281.473 412.71 284.26C412.21 287.11 412.6 290.11 412.6 293.71L420.15 298.17ZM808.91 958.7C810.14 946.05 801.91 938.06 794.91 929.19C792.53 932.69 792.39 932.9 794.91 936.93C799.5 944.25 804.24 951.45 808.91 958.7ZM832.58 651.51C833.14 650.09 833.99 649.04 833.8 648.24C831.04 636.64 825.2 626.66 817.19 617.94C816.65 617.35 814.92 617.86 814.61 617.86L832.58 651.51ZM367.73 374.16L368.44 376.16C370.03 376.16 372.35 376.84 373.08 376.05C378.44 370.26 383.54 364.22 388.54 358.11C389.25 357.24 389.01 355.59 389.2 354.31C387.77 354.55 385.8 354.31 385 355.11C379.11 361.31 373.46 367.77 367.73 374.16ZM801 623.86C801.48 626.53 801.42 627.79 801.92 628.75C805.69 635.93 809.43 643.13 813.52 650.12C814.39 651.6 816.69 652.24 818.33 653.27L819.71 651.59C813.42 643.07 813 630.72 801 623.86ZM927.78 427.52C924.37 429.19 920.78 430.16 924.3 434.87C925.17 436.02 924.95 437.98 925.3 439.56C926.14 443.87 927 448.18 927.89 452.68C933.27 449.85 933 436.36 927.78 427.52ZM951.54 434.65L953.22 434.77C960.13 426.98 955 418.68 953.32 409.62L947.72 413.33C949.13 421.21 950.34 427.93 951.54 434.65ZM353.57 248C349.36 256.16 349.1 263.07 349.85 270.06C349.94 270.88 351.85 271.91 353.09 272.06C353.94 272.18 355.67 271.06 355.79 270.37C356.719 265.056 357.307 259.689 357.55 254.3C357.59 252.66 355.53 251 353.57 248ZM406.25 701L426.11 664.19L424.27 663C423.27 664.39 422.2 665.71 421.33 667.17C417.25 673.96 413.96 681.39 408.93 687.37C405.63 691.35 403.7 694.41 406.25 701ZM618.91 410.63C617.41 408.56 616.56 406.46 615.83 406.5C607.46 406.96 599.11 407.68 590.77 408.5C589.86 408.59 589.08 409.99 588.23 410.79C589.38 411.29 590.55 412.28 591.67 412.22C600.19 411.86 608.7 411.27 618.91 410.63ZM510.3 404.09L511.45 403.74C511.15 402.12 511.34 400.14 510.45 398.95C505.45 392.23 500.26 385.65 494.96 379.17C494.33 378.4 492.57 378.55 491.34 378.27C491.34 379.55 490.87 381.27 491.51 382.05C497.67 389.49 504 396.76 510.3 404.09ZM355.78 337.8C351.27 341.88 347.49 345.72 343.28 349C339.38 352 339.37 354.46 343.47 357.48L360.9 340.35L355.78 337.8ZM415.67 398C420.03 403.5 424.32 408.94 428.62 414.37L430.06 413.37C429.72 411.43 429.23 409.51 429.06 407.55C428.06 396.63 428.06 396.62 417.57 396.41C417.44 396.37 417.31 396.58 415.67 398ZM409.46 292C410.25 286.64 411.09 281.91 411.54 277.14C411.68 275.71 410.69 274.14 410.22 272.68C408.48 273.45 405.6 273.86 405.22 275.06C404.027 278.798 403.414 282.696 403.4 286.62C403.42 290.28 405.79 292.42 409.46 291.92V292ZM838.11 644.81C840.11 635.94 827.99 614.98 821.68 615.54C827 625.1 832.28 634.43 838.11 644.81ZM914.88 434.73C916.54 443.11 918 450.51 919.46 457.89C924.87 454.98 924.99 448.57 919.71 432.55L914.88 434.73ZM741.22 702.89L764.62 688C758.76 684.95 754.79 687.91 750.98 690.71C747.17 693.51 743.63 696.76 739.57 700.14L741.22 702.89ZM443.81 449.43L444.71 447.25L429.11 427.81L427.76 428.69C427.9 437.45 434.61 442.74 439.56 448.9C440.2 449.7 442.36 449.28 443.81 449.43ZM376.68 377.5L377.55 379.18C378.99 378.7 380.86 378.64 381.81 377.68C386.3 373.09 390.66 368.35 394.81 363.41C395.55 362.53 394.86 360.41 394.81 358.94C393.32 359.46 391.37 359.56 390.44 360.58C386.96 364.39 383.81 368.5 380.56 372.51C379.22 374.15 378 375.83 376.68 377.5ZM794 630.14C797 636.72 799.8 642.87 802.86 649.6L808.43 649.93C806.51 640 798.84 629.38 794 630.14ZM613 542.42C605.5 543.17 599.14 543.73 592.81 544.54C592.214 544.586 591.652 544.833 591.214 545.24C590.777 545.648 590.491 546.191 590.402 546.782C590.314 547.373 590.429 547.977 590.728 548.494C591.028 549.011 591.494 549.412 592.05 549.63C597.32 551.64 608.27 548.16 613.05 542.42H613ZM372.61 257.82C368.4 271.41 369.83 278.4 376.85 278.62C373.73 272.31 381.06 264.3 372.61 257.82ZM842.54 636.89L844.76 635.89C843.09 632.07 841.65 628.13 839.7 624.47C837.468 620.369 834.997 616.402 832.3 612.59C831.73 611.78 829.99 611.78 828.79 611.4C828.95 612.61 828.79 613.99 829.31 615C830.74 617.67 832.51 620.17 834.08 622.77C836.92 627.44 839.72 632.17 842.54 636.89ZM974.54 391.26C972.81 393.2 970.47 394.66 970.54 395.93C971.01 402.42 972.11 408.87 973.03 415.65C977.68 411.94 978.4 401.14 974.57 391.26H974.54ZM612.33 385.87C611.33 379.22 606.2 382.01 603.49 381.87C593.58 381.42 590.34 383.16 589.54 388.36L612.33 385.87ZM384.53 380.4C389.21 382.75 391.05 379.99 393.12 377.97C395.627 375.706 398.004 373.302 400.24 370.77C401.39 369.36 401.72 367.28 402.42 365.51C400.5 365.86 397.94 365.51 396.8 366.68C392.63 370.8 388.93 375.39 384.53 380.4ZM614.85 391.6C604.3 388.32 590.41 390.68 589.04 395.66C597.25 394 605.94 396.28 614.85 391.6ZM790.14 632.21L787.61 632.27C787.31 634.13 786.08 636.75 786.88 637.72C789.8 641.29 789.17 649.07 798.17 647.1L790.14 632.21ZM497.26 369.62L495.63 370.14C495.4 371.74 494.38 373.99 495.07 374.83C500.07 380.83 505.36 386.59 510.57 392.42L512.13 391.26L497.26 369.62ZM392.26 383.26C395.51 383.91 397.51 384.87 398.08 384.33C401.67 380.91 405 377.21 408.26 373.47C408.58 373.1 408.14 371.63 407.61 371.11C407.08 370.59 405.67 370.31 405.32 370.65C401.21 374.43 397.27 378.34 392.23 383.26H392.26ZM499.78 472.14C499.43 481.49 506.89 485.5 512.32 491.39C512.87 486.84 504.76 474.79 499.75 472.14H499.78ZM650.12 602.36C655.21 602.69 665.96 589.55 666.65 580.98L650.12 602.36ZM404.26 683.88L406.09 684.74C412.62 676.87 417.64 668.18 420.22 658.18L404.26 683.88ZM404.34 675.71L406.1 676.41L416.28 655.28L414.07 654.21C412 662 403.12 666.32 404.34 675.71ZM611 378C607.84 373.14 593.52 374.36 590.29 380L611 378ZM846.9 603.17L858.64 618.17C860.11 615.32 856.72 606.11 853.17 603.62C851.91 602.78 849.65 603.33 846.9 603.17ZM452.62 388.65C446.69 382.13 432.83 379.53 429.42 383.1L452.62 388.65ZM445.4 424.27L448.08 422.53C439.08 419.38 443.59 411.53 440.22 404.83C439.63 410.83 441.63 416.33 433.63 418.9L445.4 424.27ZM992.83 370.88H990.83C986.1 378.13 991.59 384.88 992.83 391.88V370.88ZM659.37 646.28C658.75 649.28 657.37 652.17 658.12 652.79C660.97 655.31 664.46 657.11 667.71 659.17C668.53 652.28 663 650.93 659.37 646.28ZM464.19 428.28C461.01 419.54 459.19 410.37 453.95 402.93L451.24 404.3L464.19 428.28ZM510.68 382.51C511.23 375.31 503.68 365.27 497.18 364.31L510.68 382.51ZM608.68 370.42V368.42C603.26 366.42 597.75 367.75 592.29 368.89C591.78 369 591.11 370.39 591.29 371C591.454 371.384 591.714 371.72 592.045 371.976C592.376 372.231 592.767 372.398 593.18 372.46C598.3 371.9 603.47 371.14 608.65 370.43L608.68 370.42ZM978.26 387.12L981.39 406.23C984.1 400.38 982.64 389.58 978.23 387.13L978.26 387.12ZM754.75 683L754.09 681.75C750.951 682.215 747.948 683.348 745.284 685.073C742.62 686.798 740.358 689.075 738.65 691.75C738.97 692.23 739.29 692.75 739.65 693.2L754.75 683ZM409.25 648.8C407.85 652.33 406.94 654.4 406.25 656.53C405.59 658.46 405.14 660.46 404.6 662.44C414.03 646.79 412.53 652.44 404 644.14V650.36L409.25 648.8ZM997.25 383.39C1000.58 377.82 999.32 366.65 995.25 363.31C996 370.4 996.6 376.87 997.24 383.34L997.25 383.39ZM987.13 380L984.69 380.2C982.35 387.03 987.87 393.11 986.33 399.87L988.42 399.69L987.13 380ZM667.25 667.41C667.25 660.57 662.14 659.29 658.69 656.1C657 661.83 657 661.83 667.25 667.41ZM434.26 374L433.48 376.61L450.86 382.18C450.77 380.58 450.93 379.18 450.64 379.04C445.21 377.25 439.73 375.63 434.26 374ZM786.74 647.05C787.05 646.63 787.36 646.2 787.68 645.78C786.157 643.068 784.488 640.441 782.68 637.91C782.34 637.47 780.32 638.34 779.07 638.61C780.23 641.2 781.14 643.96 782.69 646.29C783.18 647.09 785.32 646.83 786.74 647.05ZM748.13 678.21C746.36 677.46 745.32 676.64 744.88 676.89C741.341 678.818 737.925 680.962 734.65 683.31C734.16 683.67 735.04 685.87 735.32 687.45L748.13 678.21ZM509.9 492.69L507.1 493.42C508.627 498.82 510.16 504.217 511.7 509.61L514.11 508.94C512.703 503.52 511.3 498.103 509.9 492.69ZM591.84 558C596.04 557.57 600.92 558.63 602.25 552.37C591.13 552.46 590.91 552.57 591.84 558ZM998.61 357.7C1000.4 363.88 1001.89 369 1003.37 374.12L1004.29 373.99C1003.65 367.99 1003 361.99 1002.29 355.26C1000.07 356.72 998.91 357.49 998.61 357.7ZM661.49 524.64L678.06 528.53C675.85 525.46 674.46 523.53 673.65 522.43L661.49 524.64ZM401.65 385.64C408.39 386.98 412.42 382.88 411.25 376.09L401.65 385.64ZM437.82 458.28C439.95 454.38 435.38 447.5 429.3 446.36L437.82 458.28ZM661.29 634.13C661.55 639.8 668.84 645.4 672.85 643.54L661.29 634.13ZM594.29 361.9L594.62 365.19L607.93 363.52L607.63 360.79L594.29 361.9ZM673.29 639.07L674.68 637.23C671.28 634.61 667.91 631.96 664.4 629.49C663.592 630.261 662.836 631.086 662.14 631.96L673.29 639.07ZM733 679.58L740.25 675.27C739.92 674.75 739.59 674.27 739.25 673.73C738.6 674.11 737.74 674.36 737.36 674.93C736.972 675.751 736.702 676.623 736.56 677.52C736.28 677.02 736.01 676.52 735.74 676.01C734.5 673.79 733.267 671.563 732.04 669.33L729.96 670.28L733 679.58ZM768.88 642.58L757.73 649.66L758.73 651.58L768.83 646.77L768.88 642.58ZM685.98 551.58L688.33 550.46L681.16 535.6L679.67 536.32C681.783 541.44 683.893 546.55 686 551.65L685.98 551.58ZM803.06 935.57L805.2 934.37L798.2 921.08C797.58 921.41 796.95 921.73 796.32 922.08L803.06 935.57ZM510.18 370.22C509.61 363.88 505.26 358.15 499.98 357.69L510.18 370.22ZM435.78 465.32L437.55 464.32L431.66 454C428.4 461.13 433.82 462.31 435.78 465.32ZM1013.46 346.32L1015.71 346.01C1015.04 341.75 1014.38 337.483 1013.71 333.21L1011.85 333.43C1012.4 337.73 1012.93 342.03 1013.46 346.33V346.32ZM595.38 355.51C595.46 356.35 595.53 357.2 595.61 358.05L607.01 357.21L606.76 354.53L595.38 355.51ZM659.38 664.77C657.47 671.54 661.08 672.7 664.47 674.04L665.72 673.09L659.38 664.77ZM597.29 349.3L597.65 351.94L606.84 350.94L606.55 348.32L597.29 349.3ZM505.74 350.6L503.19 352.2L509.19 359.84L511.19 358.4L505.74 350.6ZM448 374.88C445.26 370.8 441.82 368.93 437.58 370.04L437.15 371.55L448 374.88ZM660.51 640.88L658.93 642.37C659.85 646.64 664.2 647 666.93 649.25L668.13 647.92L660.51 640.88ZM776.51 648.75L778.85 646.93L774.5 641C773.81 641.68 772.42 642.76 772.5 643C773.7 645 775.12 646.85 776.47 648.74L776.51 648.75ZM660.86 674.28L658.67 675.28C659.34 677.18 659.75 679.28 660.83 680.86C661.15 681.34 663.34 680.58 664.67 680.39L660.86 674.28ZM599.12 344.17L599.21 345.42L607 344C606.78 343.23 606.56 342.46 606.35 341.69L599.12 344.17Z" fill="black"/>
<path d="M86.77 576.37C88.58 577.62 91.17 578.46 92.07 580.19C97 589.56 100.71 599.67 106.38 608.53C113.26 619.28 121.2 629.53 135.03 632.46C142.964 634.042 150.809 636.045 158.53 638.46C164.677 640.454 170.323 643.748 175.085 648.116C179.848 652.485 183.614 657.827 186.13 663.78C197.91 690.59 217.37 708.33 244.73 717.99C258.73 722.91 272.79 727.57 286.39 733.36C299.13 738.78 311.84 744.58 322.29 754.17C325.635 757.19 329.22 759.932 333.01 762.37C338.24 765.79 343.09 762.58 347.19 760.09C361.57 751.36 371.31 738.87 377.19 722.88C381.55 710.99 382.42 698.96 382.19 686.61C382.182 685.16 382.258 683.711 382.42 682.27C382.57 681.79 382.796 681.338 383.09 680.93C397.41 694.83 374.51 784.93 353.93 794.4C353.53 792.62 353.55 790.7 352.69 789.35C350.05 785.17 347.61 780.63 344.11 777.27C335.42 768.92 326.65 760.53 317.03 753.34C309.176 747.579 300.691 742.732 291.74 738.89C280.74 734.05 268.92 731.05 257.8 726.44C244.23 720.81 230.47 715.29 217.8 707.93C206.61 701.41 197.69 691.79 190.8 680.35C183.61 668.35 175.52 656.41 163.27 649.52C155.08 644.91 144.82 644.03 135.51 641.39C128.61 639.44 121.51 637.86 114.97 635.08C112.51 634.08 110.37 630.33 109.64 627.44C104.97 609.04 96.53 592.39 86.76 576.3L86.77 576.37Z" fill="black"/>
<path d="M86.76 576.34C85.12 571.85 78.76 566.1 73.38 564.89C74.38 569.16 74.78 573.24 76.21 576.89C81.78 591.37 87.58 605.78 93.48 620.13C98.54 632.46 100.48 645.38 101.67 658.45L99.92 658.89C98.92 654.56 97.44 650.29 97 645.89C95.3 629.01 88.07 613.95 81.85 598.56C77.0339 586.567 73.2371 574.19 70.5 561.56C67.76 549.14 60.79 537.56 55.11 525.93C53.82 523.28 50.19 521.76 47.63 519.72L45.91 520.84C46.42 523.12 46.52 525.6 47.51 527.65C54.7 542.54 59.21 558.32 63.23 574.26C67.19 590 70 606 75.11 621.34C77.2 627.65 83.68 632.58 88.44 637.91C90.76 640.51 93.7 642.58 96.36 644.91L95 646.74C92.5344 645.117 90.1639 643.354 87.9 641.46C84.46 638.27 81.31 634.77 78.02 631.41C74.42 627.73 72.02 623.84 71.7 618.21C71 605.7 62.7 597.67 53.42 590.57C49.82 587.81 46.5 584.95 46.55 580.03L64.63 596.79L66.1 596C63.53 586.31 61.38 576.49 58.29 567C53.94 553.63 48.84 540.51 44.14 527.25C41.5 519.78 39.42 512.07 36.32 504.79C33.88 499 30 494.05 23.15 491.7C21.48 502.27 29.67 508.85 31.48 517.56C33.29 526.27 35.9 535.05 38.15 543.78C36.67 541.64 34.61 539.71 33.82 537.35C30.06 526.13 26.41 514.86 23.21 503.46C20.75 494.7 19.21 485.69 16.92 476.87C15.01 469.48 9.91996 464.52 3.55996 460.6C3.10634 462.044 3.07166 463.587 3.45996 465.05C6.79996 476.61 10.46 488.05 13.46 499.72C15.61 507.84 17.03 516.16 18.77 524.39C16.67 517.39 14.63 510.28 12.45 503.25C8.41996 490.13 4.20996 477.05 0.229963 463.9C-0.280037 462.23 0.229963 460.25 0.229963 458.41C2.27996 458.51 4.72996 457.92 6.31996 458.84C12.32 462.26 16.47 466.97 17.95 474.24C19.29 480.76 21.26 486.73 28.03 491.12C33.49 494.67 37.03 501.59 40.54 507.55C42.93 511.64 44.41 515.27 49.66 517.25C56.49 519.83 60.15 526.46 62.66 533.25C64.76 538.82 66.66 544.5 68.28 550.25C69.9 556 73.44 559.82 78.28 563.18C82.74 566.31 87.84 569.53 86.76 576.43V576.34Z" fill="black"/>
<path d="M327.06 615.4C330.4 613.09 334.11 611.17 337.01 608.4C346.92 598.9 352.8 586.97 356.76 573.99C357.2 572.478 358.216 571.199 359.59 570.43C359.99 572.83 361.03 575.33 360.7 577.62C357.62 598.79 348.54 616.62 331.7 630.42C321.41 638.88 310.7 647.33 302.44 657.6C296.73 664.68 293.83 674.6 291.52 683.7C288.22 696.7 287.06 710.12 290.41 723.47C291.129 725.801 291.371 728.253 291.12 730.68C290.27 729.39 288.95 728.2 288.62 726.79C283.29 703.55 285.14 680.97 296.92 660.06C300.8 653.17 306.92 647.34 312.69 641.77C319.59 635.15 327.63 629.77 334.5 623.08C343 614.85 348.75 604.61 353.5 593.89L352.42 593.09C350.92 595.29 349.42 597.5 347.92 599.68C346.42 601.86 344.86 604.15 343.19 606.28C339.63 610.81 336.31 615.52 330 616.83C328.41 617.16 327.19 619.23 325.52 620.75C321.89 612.75 321.89 604.5 322.33 596.31C323.73 570.03 331.1 546.31 351.82 528.31C359.928 521.332 369.736 516.62 380.25 514.65C384.46 513.79 388.55 511.78 392.76 511.58C401.53 511.16 410.35 511.35 419.13 511.77C425.3 512.06 429.69 516.11 433.7 520.37C434.36 521.07 434.29 522.45 433.58 524.09C431.95 522.62 430.41 521.03 428.68 519.69C419.46 512.51 408.49 512.51 398.04 514.17C387.27 515.88 376.22 518.57 366.47 523.26C353.64 529.44 343.68 539.62 337.07 552.7C331.204 563.937 327.381 576.126 325.78 588.7C324.78 597.05 325.6 605.61 325.6 614.07L327.06 615.4Z" fill="black"/>
<path d="M106.55 665.46C115.29 681.89 130.86 690.46 145.25 700.64C159.04 710.42 171.63 721.88 184.66 732.71C192.85 739.53 201.12 746.28 208.9 753.53C216.68 760.78 223.85 768.53 231.28 776.11C237.11 782.04 243.11 787.8 248.71 793.93C258.45 804.59 268.02 815.42 277.52 826.3C283.06 832.64 287.52 840.3 293.97 845.39C300.97 851 309.57 854.99 317.97 858.64C332.36 864.93 347.03 870.64 361.73 876.15C374.2 880.85 386.88 884.97 399.46 889.35C400.29 889.64 401.09 890.02 401.9 890.35C401.81 890.85 401.73 891.35 401.64 891.83C399.279 891.481 396.941 890.986 394.64 890.35C380.64 885.53 366.72 880.67 352.81 875.67C347.74 873.84 342.81 871.61 337.81 869.55C331.7 867.04 325.54 864.65 319.51 861.95C311.15 858.2 302.8 854.42 294.66 850.23C292.06 848.88 289.9 846.41 287.94 844.11C279.07 833.73 270.52 823.06 261.5 812.81C249.5 799.14 237.5 785.41 224.83 772.39C216.41 763.75 206.77 756.31 197.7 748.31C189.7 741.31 182.02 733.94 173.81 727.2C162.99 718.3 151.81 709.91 140.81 701.2C131.15 693.53 121.33 686.02 112.16 677.8C109.01 674.98 107.57 670.24 105.35 666.38L106.55 665.46Z" fill="black"/>
<path d="M629.94 981.87C629.94 976.01 629.02 969.98 630.14 964.35C632.23 953.86 636.88 944.19 642.86 935.35C645.51 931.41 648.4 931.59 650.51 936.35C654.51 945.21 657.94 954.35 661.14 963.47C662.624 967.843 663.529 972.392 663.83 977C664.14 981.18 661.67 983.92 657.17 983.74C651.42 983.5 645.68 983.02 639.94 982.56C637.19 982.34 634.46 981.92 631.72 981.56L629.94 981.87ZM647.37 936.94C639.05 945.8 636.52 956.01 633.64 965.7C630.92 974.86 633.25 977.4 642.72 979.7C646.222 980.588 649.809 981.1 653.42 981.23C660.66 981.38 661.88 979.79 659.97 972.88C657.97 965.73 655.91 958.61 653.51 951.6C651.9 946.87 649.67 942.36 647.37 936.94Z" fill="black"/>
<path d="M723.27 961.72C723.44 950.34 725.13 939.4 730.58 929.28C733.33 924.18 735.05 923.84 738.97 928.11C749.56 939.63 755.42 953.39 757.58 968.77C757.76 970.06 756.92 972.57 756.12 972.77C748.5 974.63 740.78 976.04 733.12 977.7C727.74 978.86 724.78 977.22 724.56 971.34C724.293 968.114 723.863 964.903 723.27 961.72ZM735.07 929.27C727.15 943.21 726.61 956.89 728.47 970.83C728.66 972.24 731.35 974.43 732.8 974.36C738.168 974.013 743.511 973.345 748.8 972.36C752.86 971.69 754.39 968.94 753.04 965.23C749.71 956.14 746.35 947.05 742.43 938.23C741 935.09 738 932.72 735.07 929.27Z" fill="black"/>
<path d="M676.68 980C677.27 977.78 678.32 976 678.13 974.27C676.96 963.91 679.44 954.27 683.13 944.71C684.64 940.79 686.22 936.88 687.98 933.06C689.67 929.41 692.13 929.68 693.98 932.73C698.33 939.73 702.85 946.79 706.42 954.24C709.03 959.69 710.42 965.77 712 971.66C712.38 973.08 712 975.44 711 976.38C705.49 981.72 683.31 983.78 676.68 980ZM690.78 934.9C689.61 937.6 688.7 939.38 688.05 941.25C687.47 942.91 687.46 944.81 686.71 946.38C682.23 955.494 680.616 965.751 682.08 975.8C682.23 976.9 684.03 978.68 684.94 978.61C691.72 978.08 698.5 977.32 705.23 976.28C708.23 975.81 709.29 973.72 708.23 970.61C704.22 958.44 700.08 946.34 690.78 934.89V934.9Z" fill="black"/>
<path d="M359.2 220.06L359.14 220.24C369.02 222.89 379.04 225.12 388.76 228.3C402.62 232.84 416.14 238.43 430.03 242.87C437.71 245.32 445.85 246.3 453.76 248.05C455.245 248.496 456.693 249.058 458.09 249.73L457.64 251.91C454.83 251.58 451.97 251.47 449.22 250.91C431.654 247.118 414.414 241.949 397.66 235.45C386.93 231.34 376.04 227.62 365.28 223.57C363.12 222.73 361.22 221.24 359.2 220.06Z" fill="black"/>
<path d="M24.1 547.09L38.89 559.6L40.42 558.6C39.5 555.6 38.42 552.68 37.76 549.6C37.38 547.75 37.76 545.74 37.82 543.81C41.22 554.25 44.62 564.7 48.14 575.53C47.4039 575.571 46.6661 575.571 45.93 575.53C44.37 564.7 35.45 559.88 28.27 553.53C26.42 551.94 25.47 549.28 24.1 547.09Z" fill="black"/>
<path d="M18.6799 524.24L24.2299 547.31C22.8199 542.09 21.3499 536.88 20.0399 531.63C19.4299 529.21 19.1299 526.7 18.6799 524.24Z" fill="black"/>
<path d="M554.51 587.51C549.38 586.04 545.51 585.57 542.35 583.89C536.836 581.151 531.627 577.835 526.81 574C519.45 567.84 519.35 558.35 517.65 549.82C517.1 547.08 519.9 545.41 522.47 547.15C531.18 553.03 541.99 556.53 546.67 567.15C549.36 573.31 551.51 579.67 554.51 587.51Z" fill="black"/>
<path d="M663.28 695.53C661.52 707.33 653.49 713.63 643.94 718C634.74 722.21 625.09 725.21 614.59 723.08C611.81 722.51 608.81 722.99 606.1 722.99C622.69 707.36 635.91 690 663.28 695.53Z" fill="black"/>
<path d="M209.55 142.08C211.05 137.76 212.557 133.427 214.07 129.08L215.96 129.72C214.48 133.973 212.993 138.22 211.5 142.46L209.55 142.08Z" fill="black"/>
<path d="M280.37 211.48C279.63 218.493 278.893 225.493 278.16 232.48L276.05 232.17C276.16 225.07 275.12 217.8 278.97 211.23L280.37 211.48Z" fill="black"/>
</g>
<defs>
<clipPath id="clip0_29_3">
<rect width="1183.27" height="1313.77" fill="white"/>
</clipPath>
</defs>
</svg>
